/* XPM */
// This file is part of BOINC.
// http://boinc.berkeley.edu
// Copyright (C) 2008 University of California
//
// BOINC is free software; you can redistribute it and/or modify it
// under the terms of the GNU Lesser General Public License
// as published by the Free Software Foundation,
// either version 3 of the License, or (at your option) any later version.
//
// BOINC is distributed in the hope that it will be useful,
// but WITHOUT ANY WARRANTY; without even the implied warranty of
// MERCHANTABILITY or FITNESS FOR A PARTICULAR PURPOSE.
// See the GNU Lesser General Public License for more details.
//
// You should have received a copy of the GNU Lesser General Public License
// along with BOINC.  If not, see <http://www.gnu.org/licenses/>.
static const char *copy_all_button_xpm[] = {
/* columns rows colors chars-per-pixel */
"82 18 9 1",
". c Black",
"X c #444444",
"# c #111111",
"  c None",
"$ c #555555",
"o c #222222",
"@ c #666666",
"O c #333333",
"+ c #777777",
/* pixels */
"                                                                                  ",
"                                                                                  ",
"                                                                                  ",
"                                                                                  ",
"                                                          .  X                    ",
"                     o..O                           +.    .  X                    ",
"                    .   @                           #XX   .  X                    ",
"                   $+       ..O   o#.O  .   .       # .   .  X                    ",
"                   X       .  @X  o  o  @@ @@      X+ X   .  X                    ",
"                   $@      o   o  X  X@  # .       ....o  .  X                    ",
"                    .   @  .  $X  X  #   XO$       O   #  .  X                    ",
"                     #..X   ..O   ...$    .       o    @$ .  X                    ",
"                                  X       X                                       ",
"                                  X      #                                        ",
"                                                                                  ",
"                                                                                  ",
"                                                                                  ",
"                                                                                  "
};
