/* XPM */
static char *copy_all_button_xpm[] = {
/* columns rows colors chars-per-pixel */
"85 18 110 2",
"j  c #44429C",
"l  c #FCFEFC",
"Z  c #7476BC",
"N  c #CCCAE4",
"x  c #4442A4",
"d  c #545EAC",
"%. c #647ABC",
"H  c #5C66AC",
"y  c #2C3294",
"{  c #5C66B4",
"}  c #9CB6D4",
"L  c #8486C4",
"#. c #9CB6DC",
">  c #ACD2E4",
"0  c #646EB4",
"s  c #A4BED4",
"7  c #343A9C",
"o  c #B4DADC",
":  c #A4BEDC",
"[  c #E4E2EC",
"X  c #B4DAE4",
"B  c #E4E2F4",
"@. c #B4DAEC",
"5  c #3C429C",
".. c #6C76BC",
"O  c #ACC6DC",
"]  c #3C42A4",
"p  c #7C92C4",
"+. c #BCE2E4",
"^  c #9496CC",
"*. c #747EBC",
"#  c #849AC4",
"m  c #F4F2F4",
"Q  c #94B6CC",
"J  c #6C6AB4",
"$  c #849ACC",
"F  c #9C9ED4",
"A  c #F4F2FC",
"+  c #94B6D4",
"4  c #4C52A4",
")  c #BCD6E4",
"W  c #8CA2CC",
"Y  c #CCC6E4",
"w  c #A4C6CC",
"$. c #545AAC",
"T  c #ACAED4",
"e  c #A4C6D4",
"_  c #ACAEDC",
"<  c #B4E2E4",
"V  c #544EA4",
"o. c #DCD6EC",
"-  c #7C9AC4",
" . c #544EAC",
"u  c #343694",
"~  c #646AB4",
"z  c #BCBEDC",
"8  c #34369C",
"c  c #ECF2FC",
"h  c #B4D6DC",
"@  c #84A2C4",
"1  c #B4D6E4",
"9  c #3C3E9C",
"X. c #BCDEDC",
"K  c #9492C4",
"O. c #3C3EA4",
"b  c #645EAC",
".  c #BCDEE4",
"S  c #9492CC",
"q  c #BCDEEC",
"n  c #747ABC",
"%  c #8496C4",
"&  c #8496CC",
"/  c #4C4EA4",
"(  c #A4A2CC",
"C  c #D4D6EC",
">. c #9CBACC",
"P  c #4C4EAC",
"'  c #A4A2D4",
":. c #9CBAD4",
"g  c #ACD6E4",
"!  c #ACAAD4",
"-. c #6472B4",
"2  c #A4C2D4",
"R  c #7C76BC",
"`  c #E4E6EC",
"v  c #5C5EAC",
"   c #B4DEE4",
"U  c #E4E6F4",
"a  c #ACCAD4",
"D  c #5C5EB4",
"&. c #3C469C",
"f  c #6C7ABC",
";. c #ACCADC",
"*  c #7C96C4",
"t  c #343294",
"I  c #BCBADC",
"r  c #34329C",
"G  c #B4D2DC",
"k  c #BCBAE4",
"i  c #444EA4",
"=  c #849EC4",
"E  c #9CA2CC",
",. c #B4D2E4",
"M  c #9CA2D4",
"6  c #3C3A9C",
"=. c #4C56A4",
",  c #BCDAE4",
"|  c #4C56AC",
";  c #8CA6CC",
"3  c #BCDAEC",
/* pixels */
"  . . . X X   o O + @ # # $ # $ # % # $ & % # # $ % $ * # & # # # # % # $ = - # % - # # # # # # # - # # # & # % # # # $ # # $ # # & % # & # % $ # * ; : > ,   . < . . 1 2 ",
"3 o     , . ; 4 5 6 7 6 6 8 6 7 7 6 6 7 7 7 7 6 7 6 7 9 7 6 7 6 7 7 7 6 6 7 6 6 7 6 7 7 6 7 7 7 6 7 6 7 6 7 7 7 6 7 7 6 7 7 6 7 6 7 7 7 7 7 7 7 7 7 6 6 9 0 O X q   , , w ",
"  o X . e 0 9 r r r r r t r 8 r 8 r y 8 u 8 t 8 t r u r y 8 8 r 8 r t r r r t y 8 r r 8 r 8 r r r r r r 8 t 8 8 8 r u t r u r r r r r r r r r 8 r 8 t 8 t 8 i p , < ,   a ",
"  3 1 s d 7 r r t 8 t r u r t r y 8 r t r t r r y r t r 8 t r r r t 8 y u r 8 8 r u r y r t r y r t 8 y t r r t r y r r r r t 8 t t r u r t t r t t 8 r 8 r r 9 f . X . g ",
"    h 0 r t 8 t r r u y r t 8 u r t 8 8 j k l l z x 8 t r r u r u y 8 r r u y r r r u r 8 r t 8 u r 8 t c l v r t b l n t m M r t 8 r t r t r u 8 r r u t r u t 9 = ,   h ",
".   $ 6 8 y r t 8 y r 8 r r r r 8 t r y N B V x C N t 8 r y 8 t r r r u r r r t r t r u y r t 8 r y r Z A l S t r D l n t c F 8 t r t 8 t r t r r 8 t r 8 y 8 r 8 i G     ",
"  G H r r r 8 r 8 y r y t 8 t y r t r J l K y r L l P y z l l M u r I U Y l C P T U t r L C t r t 8 t T I C U r r v l R r m E t r r 8 t r r 8 t r t r y r r t r r 7 W ,   ",
"3 Q 4 t 8 t 8 y t r u 8 r r r t 8 r t S l J u r r t 8 ! m P b l S t z l ~ x m N Z l J r T K r 8 r y 8 B L ^ l / t v l n t c ( r u r t r u r t 8 t r 8 r r t r u t 8 f . ) ",
"  W i r t 8 r 8 r u r t r u r r t r t M l D t r t r r m _ 8 t N U r I m r r T m r ` S u c V y r 8 t J A 5 P l S 8 v l R r A F r r t 8 r t r 8 t r y r t t r r r 8 8 H   < ",
", # i 8 t r t t r r t 8 r t 8 t 8 y r S l J r t r 8 5 l F t 8 I c r z A r y ' l ] ! [ ~ C r r y t u F Y r t N C y v l Z u m F 8 u r r t 8 r t r t 8 t 8 t r u y t u { , , ",
"X } | t 8 r 8 r t 8 r t r u r r r 8 8 ~ l S r y L l v A ! r 8 N [ t I c t r T A r 0 l Y K y 8 r 8 t B l l l l l  .D l R 8 c ( t r t 8 r t r 8 t 8 r r t r t r y r 7 ..  X.",
". g H r y y r u r t r u r r u r t r t t C B V 5 o.C r T m P ~ l S y I l L x ` I r t U l P r r r t J l P 8 r D l S v l Z r m E t 8 r t r u r t r t r 8 t r 8 r 8 r u W X X ",
"  . * O.u 8 t r r u r r t 8 r t r r t r j Y l l N x t r N l l ( 8 8 k m I l C / r r _ o.u 8 8 t r S C t t r t B N v l R r c ' r t r 8 t r r u r u r t r 8 t t r u i 1 X , ",
"X   h 0 8 t r 8 t r r u r t r 8 u y u r y t 8 r r y t r u r 8 r 8 y I c r r r t 8 u ! S r y u r t r r u r u 8 r t r r y u r r y u r t r 8 t r r y 8 y t r t 8 t O.= X .   ",
"+.@.+.#.$.8 8 t r u r r t 8 t r r 8 y r 8 r 8 t r r 8 r r t t y r u I m r t 8 r v l C j t 8 r y 8 t r r t y r t r r 8 r r r t r r r u r t r 8 t 8 r r r t r y 9 %.. .   . ",
". <   X s d 6 8 r r t 8 r t r r t r 8 8 y r y 8 t r t 8 y 8 r r r r r y t 8 y r r t 8 y r t r 8 r y 8 r y 8 t r u r t 8 t 8 t r 8 t r t 8 r t r r t 8 t 8 8 &.*.. . . X , ",
"X . .     X $ =.8 7 8 8 8 7 8 7 8 8 8 8 8 7 8 8 8 8 8 8 6 8 8 7 u 8 7 8 7 8 8 6 8 8 8 8 6 8 8 8 8 8 8 8 7 8 8 7 8 8 8 8 8 8 7 8 8 8 7 8 8 8 7 8 7 8 8 7 9 -.} .   X   X , ",
", , X . X , o , ;.+ } } :.>.:.} Q } >.:.:.:.>.} :.:.:.} :.} :.} :.} :.:.:.} :.Q } } } } } } >.} } :.} } } >.} + :.} } :.+ } >.} :.} :.:.:.} } } } } :.:.,.X X < q X.X . . "
};
