/* XPM */
// This file is part of BOINC.
// http://boinc.berkeley.edu
// Copyright (C) 2008 University of California
//
// BOINC is free software; you can redistribute it and/or modify it
// under the terms of the GNU Lesser General Public License
// as published by the Free Software Foundation,
// either version 3 of the License, or (at your option) any later version.
//
// BOINC is distributed in the hope that it will be useful,
// but WITHOUT ANY WARRANTY; without even the implied warranty of
// MERCHANTABILITY or FITNESS FOR A PARTICULAR PURPOSE.
// See the GNU Lesser General Public License for more details.
//
// You should have received a copy of the GNU Lesser General Public License
// along with BOINC.  If not, see <http://www.gnu.org/licenses/>.
static const char *error_indicator_image_xpm[] = {
/* columns rows colors chars-per-pixel */
"69 20 43 1",
"  c Black",
"= c #FF6666",
"d c #993333",
"- c #FF2222",
"* c #FFFFFF",
"> c #900000",
"u c #FFBBBB",
"i c #440000",
". c #310000",
"q c #550000",
"1 c #FF7777",
"3 c #660000",
"O c #B00000",
"X c #400000",
"% c #770000",
"6 c #FF3333",
"9 c #880000",
": c #D93333",
"7 c #990000",
"2 c #D00000",
"f c #FFCCCC",
"s c #600000",
"p c #AA0000",
"0 c #BB0000",
"t c #FF8888",
"8 c #CC0000",
"e c #F00000",
"y c #DD0000",
"4 c #FF4444",
"# c #800000",
"o c #100000",
"w c #EE0000",
"$ c #210000",
"+ c #FF0000",
", c #FFDDDD",
"5 c #A00000",
"< c #FF9999",
"r c #FF5555",
"& c #DFAAAA",
"g c #C00000",
"a c #FF1111",
"; c #FFEEEE",
"@ c #E00000",
/* pixels */
"                                                                     ",
"           .Xo                                                       ",
"        XO++++@#o        $++++++++%                                  ",
"       &**=++-;*:o       $++++++++%                                  ",
"      >-;*,++<*1+2o      $++3                                        ",
"     X++1**14*,+++#      $++3                                        ",
"     5+++,*;,*6+++@      $++3       %+7.87 ++$%+$  %+++9o   0+3qw3   ",
"     e+++r***t+++++.     $++3       %+7y+7 ++%++$ 8+++++yo  0+%++3   ",
"     +++++u**r+++++X     $+++++++3  %+w8$  ++w%  %+wi $y+9  0+wp     ",
"     ++++a,**,+++++X     $+++++++3  %++.   ++p   8+%   3+w  0+w      ",
"     ++++t*u**1++++X     $++3       %+w    ++%   ++i   $++o 0+p      ",
"     @++4*,+,*;-+++.     $++3       %+y    ++3   ++i   $++o 0+7      ",
"     5++,*4+=**<++@      $++3       %+y    ++3   8+%   3+w  0+7      ",
"     $+t*<+++u**4+s      $++3       %+y    ++3   %+wi .y+%  0+7      ",
"      d*;a+++4**f2       $++++++++7 %+y    ++3    8+++++8o  0+7      ",
"       >++++++++go       $++++++++7 %+y    ++3    o9+++%    0+7      ",
"        X5e+++Os                                                     ",
"                                                                     ",
"                                                                     ",
"                                                                     "
};
