/* XPM */
// This file is part of BOINC.
// http://boinc.berkeley.edu
// Copyright (C) 2008 University of California
//
// BOINC is free software; you can redistribute it and/or modify it
// under the terms of the GNU Lesser General Public License
// as published by the Free Software Foundation,
// either version 3 of the License, or (at your option) any later version.
//
// BOINC is distributed in the hope that it will be useful,
// but WITHOUT ANY WARRANTY; without even the implied warranty of
// MERCHANTABILITY or FITNESS FOR A PARTICULAR PURPOSE.
// See the GNU Lesser General Public License for more details.
//
// You should have received a copy of the GNU Lesser General Public License
// along with BOINC.  If not, see <http://www.gnu.org/licenses/>.
static const char *messages_alert_link_image_xpm[] = {
/* columns rows colors chars-per-pixel */
"70 20 9 1",
"o c #FF6666",
"X c #FF2222",
"@ c #FF7777",
"  c None",
"+ c #FF3333",
"# c #FF4444",
". c #FF0000",
"$ c #FF5555",
"O c #FF1111",
/* pixels */
"                                                                      ",
"                                                                      ",
"                                                                      ",
"                                                                      ",
"                                                                      ",
"                                                                      ",
"       .X   o.                                                        ",
"       .O   ..                                                        ",
"       .o+  o.   @..+   #..+  @..X   ...o   $..O#   O.O   @..X        ",
"       . O O .   #  @#  X  #  .  @      .   X  @#  X   O  .  @        ",
"       .  O# .  #....X  .oo   O#o    #...  #    #  .....  O#o         ",
"       .  .  .  #@       oo.    oO  O$  .  #    #  +        oO        ",
"       .     .   O   o o   O  $  #@ .   .  @+  +#  .   +  $  #@       ",
"       .     .   o..O   X..$  +..+   ..#.   +..+$   O..o  +..+        ",
"                                               +                      ",
"                                            ...#                      ",
"                                                                      ",
"                                                                      ",
"                                                                      ",
"                                                                      "
};
