/* XPM */
// This file is part of BOINC.
// http://boinc.berkeley.edu
// Copyright (C) 2008 University of California
//
// BOINC is free software; you can redistribute it and/or modify it
// under the terms of the GNU Lesser General Public License
// as published by the Free Software Foundation,
// either version 3 of the License, or (at your option) any later version.
//
// BOINC is distributed in the hope that it will be useful,
// but WITHOUT ANY WARRANTY; without even the implied warranty of
// MERCHANTABILITY or FITNESS FOR A PARTICULAR PURPOSE.
// See the GNU Lesser General Public License for more details.
//
// You should have received a copy of the GNU Lesser General Public License
// along with BOINC.  If not, see <http://www.gnu.org/licenses/>.
static const char *messages_link_image_xpm[] = {
/* columns rows colors chars-per-pixel */
"70 20 9 1",
". c Black",
"o c #444444",
"O c #111111",
"  c None",
"@ c #555555",
"$ c #222222",
"X c #666666",
"+ c #333333",
"# c #777777",
/* pixels */
"                                                                      ",
"                                                                      ",
"                                                                      ",
"                                                                      ",
"                                                                      ",
"                                                                      ",
"          .X   .X                                                     ",
"          ..  X.X                                                     ",
"          .o  O+X  @..+  #...  +..@  ...X   ...o  @..+  #...          ",
"          . $ XoX  +  +  .     +        .  .   o  +  +  .             ",
"          . $. oX X....X  $.X  @.+   +...  $   o X....X  $.X          ",
"          .  o oX  +        O     $ $#  .  .  @o  +        O          ",
"          .    oX  @...  O..+  ...   ..$.  X..$o  @...  O..+          ",
"                                              @X                      ",
"                                           o..+                       ",
"                                                                      ",
"                                                                      ",
"                                                                      ",
"                                                                      ",
"                                                                      "
};
