/* XPM */
// This file is part of BOINC.
// http://boinc.berkeley.edu
// Copyright (C) 2008 University of California
//
// BOINC is free software; you can redistribute it and/or modify it
// under the terms of the GNU Lesser General Public License
// as published by the Free Software Foundation,
// either version 3 of the License, or (at your option) any later version.
//
// BOINC is distributed in the hope that it will be useful,
// but WITHOUT ANY WARRANTY; without even the implied warranty of
// MERCHANTABILITY or FITNESS FOR A PARTICULAR PURPOSE.
// See the GNU Lesser General Public License for more details.
//
// You should have received a copy of the GNU Lesser General Public License
// along with BOINC.  If not, see <http://www.gnu.org/licenses/>.
static const char *preferences_link_image_xpm[] = {
/* columns rows colors chars-per-pixel */
"81 20 9 1",
"X c #181818",
"O c #272727",
"@ c #363636",
"  c None",
"o c #464646",
". c #555555",
"+ c #656565",
"# c #747474",
"$ c #838383",
/* pixels */
"                                                                                 ",
"                                                                                 ",
"                                                                                 ",
"                                                                                 ",
"                                                                                 ",
"                            .X.                                                  ",
"          XXXo              O                                                    ",
"          X  .+             .                                                    ",
"          X   @ . .@  XX@  XXX  oXX#  X @# +XXo  .oXX#   XXX  +XXo  $XXX         ",
"          X  o# .o   O  $+  .  +#  O  X+   o  o  ..  X  X     o  o  X            ",
"          XXXo  .    XXXX@  .  @XXXX  X   #XXXX# .   X  @    #XXXX#  @X#         ",
"          X     .    O      .  +#     X    o     .   X  X     o        O         ",
"          X     .     XXX#  .   oXXX  X    +XXX  .   X   XXX  +XXX  OXXo         ",
"                                                                                 ",
"                                                                                 ",
"                                                                                 ",
"                                                                                 ",
"                                                                                 ",
"                                                                                 ",
"                                                                                 "
};
