/* XPM */
// This file is part of BOINC.
// http://boinc.berkeley.edu
// Copyright (C) 2008 University of California
//
// BOINC is free software; you can redistribute it and/or modify it
// under the terms of the GNU Lesser General Public License
// as published by the Free Software Foundation,
// either version 3 of the License, or (at your option) any later version.
//
// BOINC is distributed in the hope that it will be useful,
// but WITHOUT ANY WARRANTY; without even the implied warranty of
// MERCHANTABILITY or FITNESS FOR A PARTICULAR PURPOSE.
// See the GNU Lesser General Public License for more details.
//
// You should have received a copy of the GNU Lesser General Public License
// along with BOINC.  If not, see <http://www.gnu.org/licenses/>.
static const char *project_image_xpm[] = {
/* columns rows colors chars-per-pixel */
"40 40 233 2",
"#X c #F7D991",
"H. c #AAB8CC",
"z. c #FABF1E",
"I  c #536E94",
"3. c #FFF0BA",
"XX c #CDD7E6",
"Q  c #8A918B",
"s  c #153560",
"a  c #6C7F9A",
",X c #476995",
"2. c #24416C",
"%X c #F5EEDF",
"M. c #294571",
"h  c #3B6493",
"7X c #C3C0C6",
"=X c #D0DEF0",
"C. c #F3B20A",
":. c #F8E6AC",
"$. c #BCC5D4",
"U. c #F5CA77",
"gX c #164271",
" . c #EEEDE7",
"$  c #EEF0F1",
"~  c #5979A4",
".X c #C9CBC2",
"C  c #DDE1E3",
"o. c #FBEDC2",
"2  c #81909F",
"r  c #194676",
".. c #FBF6E5",
";  c #F6F8F8",
"{  c #C2D6EE",
"o  c #FBFCFB",
"d  c #194373",
"d. c #A4A9A6",
"K  c #9AAAC2",
"N  c #143C6A",
"l. c #F9C32C",
"F. c #A4ACB2",
"0X c #07214E",
"'  c #1B345D",
"J. c #021A46",
"R  c #7A7A61",
"^  c #DBE4F2",
"f  c #667C9F",
"+  c #EAEDED",
"8  c #D6D7D7",
"jX c #F4F5F2",
"3  c #E5E6E5",
"i. c #FCD354",
";. c #FCD65E",
"O  c None",
"6. c #FCD04B",
"uX c #7F90AB",
"*  c #F4F5F6",
"`. c #E5E9F4",
"W. c #7F8A99",
"qX c #001D4F",
"h. c #738898",
"q  c #66738C",
"T  c #3C4748",
"5  c #1F517F",
"0. c #305785",
"lX c #355B87",
"N. c #55677B",
"]. c #C5CED9",
")  c #D4D1BE",
"6  c #537699",
"c. c #EDA900",
"g. c #8297B2",
"O. c #FCE5A3",
"!  c #B1B5BD",
"zX c #647389",
"[. c #EDCD7F",
":  c #FCFDFA",
"8. c #F2F5FB",
"4. c #FFECA3",
"b  c #8C9CB4",
"   c #FCFDFD",
"@X c #F7DB99",
"r. c #FFECA9",
"I. c #F5BA1C",
"v  c #3A537A",
"1. c #B4BFD2",
"t  c #426488",
"^. c #F7BD41",
"5X c #8F9793",
"[  c #E1E9F4",
"}. c #FAC133",
"_  c #FAFAF3",
"rX c #CDD0D7",
"L  c #71829C",
"%  c #F0F2F2",
"u. c #FDDD73",
"u  c #F5F9FE",
"{. c #F0B322",
"9  c #607C9B",
"=  c #F5F6F8",
" X c #F5E4BD",
"T. c #0B2652",
"Y. c #ADB8C3",
"D. c #F2B646",
".  c #FAFAFC",
"oX c #BCCDE6",
"K. c #1F334E",
"m  c #F5F6FC",
"x  c #425B7D",
"G. c #0B234B",
"G  c #152B4E",
"&X c #E9E2C2",
"_. c #133D78",
"|  c #7E7F69",
"7  c #C1C5C8",
"(. c #F3F9FF",
"V. c #F3B419",
"X. c #FDF5DA",
",. c #40586F",
"iX c #4F6D95",
"a. c #F3C967",
"q. c #5E7385",
";X c #C9C4A7",
"+X c #40556E",
"e  c #144778",
"|. c #F8C75A",
"n. c #132B53",
"j. c #FBCB49",
"B  c #637DA3",
"R. c #C4CFE0",
"L. c #BFC5CC",
"s. c #F6FDFF",
"}  c #34598A",
"#  c #ECEFF0",
"l  c #ECF2FC",
"]  c #2A4B7B",
">  c #F1F3F4",
"kX c #6B88A8",
"z  c #7787A1",
"#. c #203D68",
",  c #DDDDDF",
"eX c #D3D2D5",
"f. c #34507B",
"<X c #486081",
"c  c #344D74",
"xX c #546286",
"A. c #F4B206",
"~. c #F9C53C",
"S  c #8496AE",
"P  c #14325C",
"Q. c #EFD594",
"W  c #9DA19B",
"E  c #989A90",
"p  c #E5E8F2",
"*X c #5A645F",
"F  c #28426A",
"p. c #F7BC20",
"w. c #E3E8E6",
"m. c #738AAA",
"k  c #D4DCEA",
"B. c #D9DDE2",
"hX c #E3EBF9",
"OX c #879AB6",
"&  c #F2F4F4",
"j  c #44638B",
">. c #C3C4B5",
"<. c #244B7B",
"Z  c #4C719A",
"3X c #6C7D8E",
"g  c #D2D9E1",
"sX c #D2D6DC",
"1X c #0B2853",
"X  c #FAFCFC",
"-. c #FDE289",
"E. c #0B2245",
"Z. c #F8BA11",
"b. c #A8B0B5",
"dX c #243957",
"2X c #DFEBF7",
"H  c #10264B",
"tX c #4F7296",
"4X c #798381",
"6X c #656D6B",
"aX c #92ACCF",
"1  c #C6CBD0",
"=. c #FDF4D3",
"4  c #798CA4",
"w  c #43709B",
"A  c #1D3B67",
"V  c #E4E6EB",
"fX c #3E668E",
"@. c #5E6964",
"yX c #113661",
"pX c #3B5989",
"). c #728EB3",
"+. c #D3D4C9",
"-X c #F1F2E8",
"wX c #424E76",
"*. c #FBF1CD",
"/  c #395F91",
"5. c #FEE076",
"7. c #F6EAC6",
"@  c #ECEEEF",
"S. c #F1AA01",
"y. c #FEE690",
"n  c #F1F5FC",
"!. c #E7A202",
"t. c #FEE99C",
"0  c #19416D",
"M  c #112D59",
"$X c #F6DEA7",
"&. c #A4B3CB",
"(  c #20334D",
":X c #576263",
"<  c #A4B0C3",
"`  c #84866F",
"D  c #576B87",
"y  c #CCD3DD",
"%. c #DBE2ED",
"U  c #EAEEF1",
"k. c #FCCB37",
"e. c #F9F7EB",
"8X c #506D8D",
">X c #0F2D59",
"i  c #EAEEF6",
"-  c #F9FAFA",
"P. c #EAB230",
"/. c #F4EAD5",
"Y  c #193562",
"J  c #233A5A",
"x. c #F7B80E",
"9X c #3C5780",
"9. c #7D8887",
"'. c #283B5A",
"v. c #EFB641",
/* pixels */
"  . X X X X X X X X X X X X X X X X X X X X X X X X X X X X X X X X X X X X .   ",
"o O O O O O O O O O O O O O O O O O O O O O O O O O O O O O O O O O O O O O O o ",
"  O + @ # $ % % % % % % % % % % % % % % % % % % % % % % % % % % % % $ $ @ + O   ",
". O @ % % & & * = = - - - - - - - - - - - - - - - - - - - - - = = * * % % # O . ",
"  O # % * * = ; - - - - - - - - - - - - - - - - - - - - - - - - - = * * & # O   ",
"- O # * * - . X -   - - - - - o o o                             - - - ; * % O - ",
"  O % * - - :                                                       - - * > O   ",
"  O > * - -   : , < 1                                   1 2 3       o - ; > O   ",
"- O > ; -       4 5 6 7         . . . . . . . o       8 9 0 q         - - > O o ",
"  O > - - o     w e r t y   . . . . u i p i u . .   3 a s d f         o ; * O o ",
"  O & = -       g h d 0 j k   l y z x c v x b n . m a M N B V         o - * O   ",
"- O & - .         C Z 0 A v S D F M G G H J K l l L M P I ,           . - & O o ",
"  O & = o           U Z P Y M G T R E W Q ! n V L P Y ~ #               ; * O   ",
"  O & - o           m ^ / M ( R ) = _ _ - u # ` ' Y ] [ . -           o . * O o ",
"- O & ; -           . u { } |  .  ..X.o.O.o.u +.@.#.#.$.  .             - * O   ",
"  O & ; o           %.&.l g V _ *.X._ =.-.;.:.X >.,.<.I m .           . - * O o ",
"  O & - .           1.2.b u u o.o.X.=.3.4.5.6.7.8.9.0.<.V .             - * O   ",
"- O & ; o         . K <.q.w.e.-.r.4.t.y.u.i.p.a.s.d.v f.$..           . - * O o ",
"  O & u .         n g.h h.3 X.j.;.6.k.l.z.x.c.v.u b.G n.< . .         : - * O   ",
"  O 8._ :         m m.M.N.B.X.V.C.Z.Z.x.A.C.S.D.X F.H G.H..           . - * O o ",
"- O % ; .       . m 4 J.K.L._ P.c.A.A.A.C.I.V.U.s.Y.G T.R..             - * O   ",
"  O * - .           < G.E.W.  Q.!.C.I.l.~.~.^./.(.l )._.`..           . . * O o ",
"  O & ; o           %.F G.'.].  [.{.}.j.j.|. Xs..XXXl oXm               - * O   ",
"- O & ; o         . . OXn.T.+Xy . 7.@X#X$X%XX &X*X} =X  .             . - * O o ",
"  O & . -           . $.' n.T.4 (.l _ ; o -X;X:XM >X,X`.              : - * O   ",
"  O & ; o           ^ <Xn.1X~ 2Xk 3X4X5XQ 6XJ T.n.n.P I V             . - * O o ",
". O & ; .         7X8X>XM m.i ^ 9XJ.0XG.G.qX1X] m.'.T.M wXeX            - * O   ",
"  O 8.; o       rXtXyXyXuXm X ^ ).iXf.] pX~ aX[ X sXdXn.Y x sX        . - * O o ",
"o O % - .       fXN gXf & . X   X l hXhXhXu   . X   7XM.P N x         Y jX* O   ",
"X O * ; o       v e kX%       . . . . .   . .       : $.lXA zX      Y Y = * O o ",
"  O & ; .       ! I g               X X                 K xXeX    A Y Y = * O   ",
"- O & - .                                                       A Y Y Y * * O o ",
"  O % = - .                                                   A Y Y Y A * * O   ",
"  O > * ; o                                                 A Y Y Y Y Y * > O o ",
"- O % * ; .                                               A Y Y Y Y A Y * > O . ",
"  O $ * = ; -                                           A Y Y Y Y A Y Y * % O   ",
"  O $ & jX* - ; - - - o . . .   . . o   . . . . .     . > * * = = jX* = * # O o ",
"- O + $ % jX% * * * ; * * = = * ; * = * = = = = = * * = ; = * * * * > % $ @ O   ",
"  O O O O O O O O O O O O O O O O O O O O O O O O O O O O O O O O O O O O O O . ",
"    X X X X                                                                     "
};
