/* XPM */
static const char *project_image_xpm[] = {
/* columns rows colors chars-per-pixel */
"40 40 139 2",
")  c #FCF2D4",
"   c #FCFEFC",
"K  c #44628C",
"u. c #4C76A4",
"j. c #DCE6EC",
"f. c #2C5E8C",
"u  c #94AECC",
"P  c #244A7C",
"2  c #2C5E94",
"T  c #BCCEDC",
"G  c #6C82A4",
"d. c #547EA4",
"(  c #4C6A94",
"5  c #9CB6CC",
"j  c #2C527C",
"5. c #94A2BC",
";  c #346694",
"b  c #748AAC",
"-  c #144E84",
"F  c #547294",
"o. c #FCCA04",
"4  c #A4BED4",
"E  c #345A84",
"q  c #9CAAC4",
">  c #3C6E9C",
"9. c #345A8C",
"V  c #144274",
"}  c #5C7A9C",
"z  c #14427C",
"X  c #648EB4",
"$. c #A4B2C4",
"]  c #FCCA24",
"q. c #3C628C",
"=. c #849AB4",
"'  c #FCBE04",
"4. c #CCD2DC",
"a  c #1C4A7C",
"_  c #FCD65C",
"H  c #6482A4",
"C  c #CCD2E4",
"c  c #ACBACC",
"v  c #F4F2F4",
"e. c #446A94",
"g. c #4C7EAC",
"e  c #8CA2BC",
"&. c #FCEEC4",
"{  c #FCFAEC",
"h  c #D4DAE4",
"#  c #2C669C",
"f  c #1C3E74",
"^  c #FCFAF4",
"0  c #B4C2D4",
"h. c #5486AC",
"Q  c #FCFAFC",
"t. c #4C729C",
"%. c #94AAC4",
"=  c #346E9C",
"U  c #244674",
".  c #DCE2EC",
"<  c #2C5A8C",
"Z  c #24467C",
"k  c #9CB2C4",
"9  c #E4EAEC",
"D  c #2C4E7C",
"@  c #E4EAF4",
"B  c #C4D2DC",
"6  c #144A7C",
"0. c #7C9ABC",
"3  c #144A84",
"J  c #546E94",
"A  c #A4BACC",
"X. c #FCC604",
"&  c #ECF2F4",
",  c #A4BAD4",
">. c #345684",
"S  c #CCDAE4",
"`  c #FCC614",
"d  c #143E74",
"w. c #1C528C",
"6. c #FCC61C",
"W  c #5C769C",
"a. c #F4FAFC",
"%  c #44729C",
"-. c #FCD24C",
"@. c #FCDE74",
"l. c #8CAAC4",
"g  c #3C5E8C",
"m  c #1C4674",
" . c #FCDE7C",
"~  c #8496B4",
"x  c #1C467C",
";. c #FCDE84",
"+. c #FCEAAC",
"p. c #B4CADC",
"3. c #647EA4",
"/  c #44668C",
"1. c #FCF6DC",
"7. c #FCF6E4",
"M  c #244E7C",
"w  c #8C9EBC",
"8. c #6C86A4",
"r. c #749ABC",
",. c #B4BECC",
"R  c #B4BED4",
"s. c #5482AC",
"!  c #94A6BC",
"y. c #9CBAD4",
"y  c #2C5684",
"*  c #346A9C",
"Y  c #748EAC",
"I  c #DCDEEC",
"t  c #BCC6D4",
"#. c #FCCE04",
"+  c #5C8AAC",
"$  c #14528C",
"r  c #9CAEC4",
":  c #E4E6EC",
"L  c #C4CEDC",
"p  c #14467C",
"N  c #A4B6CC",
"k. c #447AA4",
".. c #FCC204",
"O  c #ECEEF4",
"2. c #CCD6DC",
"O. c #FCC20C",
"8  c #CCD6E4",
"l  c #1C4E84",
":. c #FCCE3C",
"*. c #FCC214",
"|  c #F4F6F4",
"i  c #ACBED4",
"s  c #3C5A84",
"o  c #F4F6FC",
"<. c #D4DEE4",
"[  c #FCDA74",
"7  c #245684",
"n  c #1C4274",
"1  c #D4DEEC",
"i. c #24568C",
/* pixels */
"                                                                                ",
"    . X o                                                             O + @     ",
"  @ # $ % &                                                         O * $ * O   ",
"O = $ $ - ; @                                                     : ; - $ $ > & ",
", $ $ - - - < 1                                                 : 2 3 - - $ $ 4 ",
"  5 $ - 3 3 6 7 8               9 0 q w e r t O               1 y 6 3 3 - - u   ",
"    i $ 6 3 p p a t       @ w s d f d f d f d f g q         h j p p 3 6 - k     ",
"      0 l 6 p p z x c v b n d d d f d d f d f d m t       8 M z p p p 3 N       ",
"        B M p z n V d M f d f f d d f d d f d n 0       C Z d V z p x A         ",
"          S j V d f d f d f d d f D F G H J K t       L P d d f V m i           ",
"            I y d d f d d d U Y h                   T U d f d d n R             ",
"              : E f d f d W 9                     Q J d d d d f !               ",
"                O K d d ~ ^                         Q G f d f d /               ",
"                  O ( b         ) _ ` ' ' ] [ {         } f d f d c             ",
"          O C       | ^        ...X.X.o.o.X.X.O.+.      v j d f d s             ",
"          q m R             @...o.o.#.#.#.#.o.X...+.      $.d d f d C           ",
"          J d f %.        &...o.#.#.#.o.#.o.#.o.X.*.{     Q D d d f =.          ",
"          x f d f @       -.X.o.#.o.#.#.#.#.#.#.o.X.;.      G d f d J           ",
"        O d d f d h       ..X.#.#.#.#.o.#.o.#.#.o.X.:.      q d f d >.          ",
"        h f d f d :     ) ..o.#.#.o.#.#.#.#.#.#.#.X.`       ,.f d d U           ",
"        <.d d f d :     1...o.#.o.#.#.` #.#.` #.#.X.*.      ,.d f d U           ",
"        9 f d d f 2.    ^ ..X.#.#.#.#.#.#.#.#.#.o.X.:.      $.d d f >.          ",
"          U d f d r       -.X.o.#.` #.#.#.#.#.#.o...;.      0 f d d F           ",
"          J d d f F       &...X.#.#.#.#.#.` #.o.X.` {         3.d f =.          ",
"          %.d f d f <.       ...o.o.#.#.#.#.o.X...+.            ~ d 4.          ",
"          O n d f d F          ...X.X.o.X.X.X.*.+.      o Q       0             ",
"            b d d f d 5.        ) _ 6...O.6.[ 7.        3.F Q                   ",
"            O P d f d f r                           Q G f d ( o                 ",
"              G d d f d d ~                       . ( d d f d K O               ",
"            =.V f d d f >..                 Q 4.8.n d f d f d d 9.:             ",
"          =.p V d d f E :       $./ W 3.G J P d f d f d d d f V V y I           ",
"        0.p z V n V s 9       r f d d f d d f d f d d f U V V V p p 7 8         ",
"      0.3 6 p p V q.O       $.f d f d d f d d f d f m ~ | =.n p z p a w.L       ",
"    0.- 3 a p p e.&       Q =.>.f d d f d f d f g e O       r a p 6 3 3 $ 0     ",
"  r.- - - 3 6 t.v               : 0 q w w q t 9               0 l 3 3 - - $ 5   ",
"y.$ $ - - 3 u.o                                                 B i.- - - $ $ p.",
"a.s.$ $ - d.o                                                     1 f.$ $ $ s.Q ",
"  a.g.$ h.Q                                                         j.* $ k.a.  ",
"    | l.Q                                                             O X &     ",
"                                                                                "
};

// This file is part of BOINC.
// http://boinc.berkeley.edu
// Copyright (C) 2014 University of California
//
// BOINC is free software; you can redistribute it and/or modify it
// under the terms of the GNU Lesser General Public License
// as published by the Free Software Foundation,
// either version 3 of the License, or (at your option) any later version.
//
// BOINC is distributed in the hope that it will be useful,
// but WITHOUT ANY WARRANTY; without even the implied warranty of
// MERCHANTABILITY or FITNESS FOR A PARTICULAR PURPOSE.
// See the GNU Lesser General Public License for more details.
//
// You should have received a copy of the GNU Lesser General Public License
// along with BOINC.  If not, see <http://www.gnu.org/licenses/>.
