/* XPM */
// This file is part of BOINC.
// http://boinc.berkeley.edu
// Copyright (C) 2008 University of California
//
// BOINC is free software; you can redistribute it and/or modify it
// under the terms of the GNU Lesser General Public License
// as published by the Free Software Foundation,
// either version 3 of the License, or (at your option) any later version.
//
// BOINC is distributed in the hope that it will be useful,
// but WITHOUT ANY WARRANTY; without even the implied warranty of
// MERCHANTABILITY or FITNESS FOR A PARTICULAR PURPOSE.
// See the GNU Lesser General Public License for more details.
//
// You should have received a copy of the GNU Lesser General Public License
// along with BOINC.  If not, see <http://www.gnu.org/licenses/>.
static const char *spacer_image_xpm[] = {
/* columns rows colors chars-per-pixel */
"2 11 7 1",
"  c Black",
"O c #2A403F",
"X c #2B4141",
". c #2C4242",
"@ c #283F3E",
"+ c #283F3F",
"o c #2A4140",
/* pixels */
" .",
" X",
" o",
" O",
" +",
" @",
" +",
" +",
" +",
" +",
" +"
};
