/* XPM */
// This file is part of BOINC.
// http://boinc.berkeley.edu
// Copyright (C) 2008 University of California
//
// BOINC is free software; you can redistribute it and/or modify it
// under the terms of the GNU Lesser General Public License
// as published by the Free Software Foundation,
// either version 3 of the License, or (at your option) any later version.
//
// BOINC is distributed in the hope that it will be useful,
// but WITHOUT ANY WARRANTY; without even the implied warranty of
// MERCHANTABILITY or FITNESS FOR A PARTICULAR PURPOSE.
// See the GNU Lesser General Public License for more details.
//
// You should have received a copy of the GNU Lesser General Public License
// along with BOINC.  If not, see <http://www.gnu.org/licenses/>.
static const char *suspend_link_image_xpm[] = {
/* columns rows colors chars-per-pixel */
"59 20 9 1",
". c #181818",
"$ c #272727",
"+ c #363636",
"  c None",
"X c #464646",
"o c #555555",
"O c #656565",
"@ c #747474",
"# c #838383",
/* pixels */
"                                                           ",
"                                                           ",
"                                                           ",
"                                                           ",
"                                                           ",
"                                                           ",
"                ...X                                       ",
"                .  oO                                      ",
"                .   + +..+  @o  +  #...   ..+              ",
"                .  X@    +# @o  +  .     $  #O             ",
"                ...X  @...@ @o  +   +.@  ....+             ",
"                .     .  X@  +  $     $  $                 ",
"                .     X..+@  +.X$  $..X   ...@             ",
"                                                           ",
"                                                           ",
"                                                           ",
"                                                           ",
"                                                           ",
"                                                           ",
"                                                           "
};
