/* XPM */
// This file is part of BOINC.
// http://boinc.berkeley.edu
// Copyright (C) 2008 University of California
//
// BOINC is free software; you can redistribute it and/or modify it
// under the terms of the GNU Lesser General Public License
// as published by the Free Software Foundation,
// either version 3 of the License, or (at your option) any later version.
//
// BOINC is distributed in the hope that it will be useful,
// but WITHOUT ANY WARRANTY; without even the implied warranty of
// MERCHANTABILITY or FITNESS FOR A PARTICULAR PURPOSE.
// See the GNU Lesser General Public License for more details.
//
// You should have received a copy of the GNU Lesser General Public License
// along with BOINC.  If not, see <http://www.gnu.org/licenses/>.
static const char *workunit_gauge_progress_indicator_image_xpm[] = {
/* columns rows colors chars-per-pixel */
"8 7 5 1",
"o c None",
"  c #1C1A1A",
"X c #1C1A1B",
". c #1B1A1A",
"O c #1B1A1B",
/* pixels */
" ... Xoo",
".....Xoo",
"...X. oo",
"......oo",
"......oo",
"....X.oo",
".O....oo"
};
