/* XPM */
// This file is part of BOINC.
// http://boinc.berkeley.edu
// Copyright (C) 2008 University of California
//
// BOINC is free software; you can redistribute it and/or modify it
// under the terms of the GNU Lesser General Public License
// as published by the Free Software Foundation,
// either version 3 of the License, or (at your option) any later version.
//
// BOINC is distributed in the hope that it will be useful,
// but WITHOUT ANY WARRANTY; without even the implied warranty of
// MERCHANTABILITY or FITNESS FOR A PARTICULAR PURPOSE.
// See the GNU Lesser General Public License for more details.
//
// You should have received a copy of the GNU Lesser General Public License
// along with BOINC.  If not, see <http://www.gnu.org/licenses/>.
static const char *workunit_active_image_xpm[] = {
/* columns rows colors chars-per-pixel */
"16 16 65 1",
"e c #FFCC33",
"6 c #FFCC35",
"g c #46443C",
"* c #4B483E",
"- c #7D7356",
"N c #D5B860",
"u c #625C49",
"d c #67604B",
"> c #948760",
"7 c #D5B864",
"q c #7E7456",
"5 c #F9CC46",
"b c #3B3A37",
"y c #403E39",
"o c #45423B",
"$ c #524E42",
"G c #343333",
"t c #847959",
"= c #645E4A",
"w c #D2B661",
"< c #69624C",
"l c #46433C",
"i c #968961",
"V c #A09166",
"A c #5D5747",
"c c #857A59",
"M c #FBCE46",
"X c #3D3C38",
"O c #42403A",
"z c #D8BB63",
"2 c #6A634D",
"& c #5E5847",
"8 c #90835E",
"# c #43413B",
"B c #48453D",
"4 c #D4B863",
"S c #4D493F",
"a c #9D8F64",
"1 c #524D41",
"k c #9D8F65",
"+ c #373635",
"m c #D2B55F",
". c #3C3A37",
"3 c #8C805D",
"s c #3F3E39",
"9 c #49463D",
"j c #998C63",
": c #9E9065",
"f c #A39467",
"p c #FBCD42",
"0 c #565243",
"  c #333333",
"D c #383735",
", c #837958",
"% c #605A48",
"F c #3D3B38",
"Z c #544F42",
"C c #343433",
"v c #5C5746",
"r c #D4B75F",
"@ c #393836",
"n c #615B49",
"x c #D9BB61",
"h c #665F4B",
"; c #938660",
/* pixels */
"                ",
"                ",
"    .XooOO+@    ",
"   @#$%%&$*+    ",
"  .*=-;:>,<1@   ",
" .O23456578=9X  ",
" +0qweeeeert0y  ",
" Xuipeeeeepa=y  ",
" sdf6eeeee6f=g  ",
" .hjpeeeeepk%l  ",
" O0qzeeeeexcv@  ",
" b*nim5eMN3=g   ",
"  yBu-jVkq<9XC  ",
"  .@9Zd2A0S#@   ",
"   .bDb.FXFCC   ",
"   G     C C    "
};
