/* XPM */
// This file is part of BOINC.
// http://boinc.berkeley.edu
// Copyright (C) 2011 University of California
//
// BOINC is free software; you can redistribute it and/or modify it
// under the terms of the GNU Lesser General Public License
// as published by the Free Software Foundation,
// either version 3 of the License, or (at your option) any later version.
//
// BOINC is distributed in the hope that it will be useful,
// but WITHOUT ANY WARRANTY; without even the implied warranty of
// MERCHANTABILITY or FITNESS FOR A PARTICULAR PURPOSE.
// See the GNU Lesser General Public License for more details.
//
// You should have received a copy of the GNU Lesser General Public License
// along with BOINC.  If not, see <http://www.gnu.org/licenses/>.
static const char *workunit_running_image_xpm[] = {
"16 16 22 1",
"% c #006C00",
"2 c #001700",
"@ c #02A602",
"+ c #005700",
"  c None",
"o c #049704",
"X c #018101",
"< c #4FFF4F",
"$ c #106110",
", c #11BA11",
"* c #06C206",
". c #5A8A5A",
"= c #3EB23E",
"O c #32AD32",
"1 c #002A00",
"> c #364F36",
"3 c #203C20",
"- c #004100",
"; c #1FE11F",
": c #2FF72F",
"# c #56BB56",
"& c #06B206",
/* pixels */
"                ",
"     .XXooO     ",
"    +Xoo@@@@#   ",
"   $%Xo&***&&=  ",
"  -+%X&;:::;*@  ",
" >-+%X,:<<<<;@o ",
" 1-+%X@;:<<<;@o ",
" 1--+%Xo,;:;,oX ",
" 11-++%XXo@@oXX ",
" 21--++%%%XXXX% ",
" 3111-+++%%%%%+ ",
"  2111--+++++-  ",
"  >22111-----3  ",
"   >222211113   ",
"     322221     ",
"                "
};
