/* XPM */
// This file is part of BOINC.
// http://boinc.berkeley.edu
// Copyright (C) 2011 University of California
//
// BOINC is free software; you can redistribute it and/or modify it
// under the terms of the GNU Lesser General Public License
// as published by the Free Software Foundation,
// either version 3 of the License, or (at your option) any later version.
//
// BOINC is distributed in the hope that it will be useful,
// but WITHOUT ANY WARRANTY; without even the implied warranty of
// MERCHANTABILITY or FITNESS FOR A PARTICULAR PURPOSE.
// See the GNU Lesser General Public License for more details.
//
// You should have received a copy of the GNU Lesser General Public License
// along with BOINC.  If not, see <http://www.gnu.org/licenses/>.
static const char *workunit_running_image_xpm[] = {
/* columns rows colors chars-per-pixel */
"16 16 74 2",
/* colors */
"AA c #FFFFFFFFFFFF",
"BA c #E8E8F0F0E8E8",
"CA c #E0E0E8E8E0E0",
"DA c #D8D8F0F0D8D8",
"EA c #D0D0E8E8D0D0",
"FA c #D0D0D8D8D8D8",
"GA c #C8C8E8E8C8C8",
"HA c #B8B8E0E0B8B8",
"IA c #B0B0C8C8B0B0",
"JA c #A8A8E0E0A0A0",
"KA c #A8A8D8D8A8A8",
"LA c #9898D0D09898",
"MA c #9090F8F85858",
"NA c #9090A8A89898",
"OA c #8888F0F06060",
"PA c #8888F0F05858",
"AB c #8888B0B08888",
"BB c #8080E0E06060",
"CB c #8080C8C88080",
"DB c #7878E8E85050",
"EB c #7070F0F04848",
"FB c #6868E0E04848",
"GB c #6868D8D84040",
"HB c #6060C0C05858",
"IB c #5858D8D84040",
"JB c #5858D8D83838",
"KB c #5858B8B85858",
"LB c #585890906868",
"MB c #585890905858",
"NB c #585888886060",
"OB c #5050A0A04848",
"PB c #505080805858",
"AC c #505078786868",
"BC c #505068687070",
"CC c #505068686868",
"DC c #4848C8C83030",
"EC c #484898984848",
"FC c #484868686868",
"GC c #404080804848",
"HC c #404058586060",
"IC c #3838C0C02828",
"JC c #3838B8B83030",
"KC c #3838B8B82828",
"LC c #383898983030",
"MC c #383890904848",
"NC c #383888884040",
"OC c #383878783838",
"PC c #303088883030",
"AD c #303060604848",
"BD c #303058584848",
"CD c #303050505858",
"DD c #2828C0C01818",
"ED c #2828B8B81818",
"FD c #282898982828",
"GD c #282860604848",
"HD c #282858584848",
"ID c #282850505050",
"JD c #2020A8A82020",
"KD c #202068683030",
"LD c #1818B0B01010",
"MD c #1818A8A81010",
"ND c #181870702020",
"OD c #181868682828",
"PD c #181850504040",
"AE c #181848484040",
"BE c #1010A8A80808",
"CE c #101098981010",
"DE c #101088881818",
"EE c #080898980808",
"FE c #080888880000",
"GE c #0000A0A00000",
"HE c #000058581010",
"IE c #000040402020",
"JE s bg c None",
/* pixels */
"JEJEJEJEIANBHDBDCDHDCCJEJEJEJEJE",
"JEJEJEMBOCABFACAAAEANACDFCJEJEJE",
"JEJEPCOBGAAAAAAAAAAAAAGALBCDJEJE",
"JENBPCJAGADABABAAABADAGAHAGCFCJE",
"JEHELCLAJAGADADADADAGAJALAJCIEJE",
"NBNDFEHBKAJAHAGAGAHAJAJAHBFEODFC",
"KDCEFEMDKBCBLALALALACBHBMDEEDEAE",
"NDCEGEGEMDDCHBHBGBHBJCEDGEEEBEPD",
"NDJDMDKCLDKCICICDCICICEDKCGEMDPD",
"FDJDLDEDICICJBIBDCJBDCICEDEDJDHD",
"PBKCKCICDCJBJBIBFBIBJBDCICDDLCHC",
"JEKDICICJBIBDBDBDBDBIBJBICDCPDJE",
"JEACNCJBJBGBDBPAOADBFBJBJBMCBCJE",
"JEJEHCMCFBEBPAMAMAPAEBFBECCDJEJE",
"JEJEJEBCGDKBBBOAOAOAKBADBCJEJEJE",
"JEJEJEJEJEFCIDADGDIDHCJEJEJEJEJE"};
