/* XPM */
// This file is part of BOINC.
// http://boinc.berkeley.edu
// Copyright (C) 2011 University of California
//
// BOINC is free software; you can redistribute it and/or modify it
// under the terms of the GNU Lesser General Public License
// as published by the Free Software Foundation,
// either version 3 of the License, or (at your option) any later version.
//
// BOINC is distributed in the hope that it will be useful,
// but WITHOUT ANY WARRANTY; without even the implied warranty of
// MERCHANTABILITY or FITNESS FOR A PARTICULAR PURPOSE.
// See the GNU Lesser General Public License for more details.
//
// You should have received a copy of the GNU Lesser General Public License
// along with BOINC.  If not, see <http://www.gnu.org/licenses/>.
static const char *workunit_waiting_image_xpm[] = {
/* columns rows colors chars-per-pixel */
"16 16 24 1",
"% c #DFDF00",
"- c #B9B900",
"  c None",
"o c #FEFE01",
"4 c #4E4E21",
"X c #F7F709",
". c #DFDF42",
"1 c #6E6E03",
"& c #FFFF0E",
", c #FCFCA9",
"* c #FFFF1B",
"$ c #A4A401",
"= c #868600",
"O c #FFFF35",
"3 c #515100",
"@ c #ABAB54",
"; c #FFFF54",
"# c #D3D300",
"5 c #333300",
": c #FFFF6D",
"+ c #FFFF96",
"2 c #F3F301",
"> c #696932",
"< c #FFFFBA",
/* pixels */
"                ",
"     .XoooO+    ",
"   @#oooooooO   ",
"   $%oo&*&&ooO  ",
"  =-%o*;:;;O&o: ",
" >=-%oO:+,<+Oo& ",
" 1=$#2*;:+<,Ooo ",
" 31$-#X**O;;*oo ",
" 31=$-#2&&&&oo2 ",
" 331=$-#%2ooo2# ",
" 4331=$--##%%#- ",
"  53311=$$---$@ ",
"  >55331=====1  ",
"   >55553333>   ",
"     455554     ",
"                "
};
