/* XPM */
// This file is part of BOINC.
// http://boinc.berkeley.edu
// Copyright (C) 2011 University of California
//
// BOINC is free software; you can redistribute it and/or modify it
// under the terms of the GNU Lesser General Public License
// as published by the Free Software Foundation,
// either version 3 of the License, or (at your option) any later version.
//
// BOINC is distributed in the hope that it will be useful,
// but WITHOUT ANY WARRANTY; without even the implied warranty of
// MERCHANTABILITY or FITNESS FOR A PARTICULAR PURPOSE.
// See the GNU Lesser General Public License for more details.
//
// You should have received a copy of the GNU Lesser General Public License
// along with BOINC.  If not, see <http://www.gnu.org/licenses/>.
static const char *workunit_waiting_image_xpm[] = {
/* columns rows colors chars-per-pixel */
"16 16 31 1",
"9 c #EAEA87",
"o c #D3D3AA",
"- c #DFDF00",
", c #B9B900",
"  c None",
"@ c #FEFE01",
"0 c #4E4E21",
"+ c #F7F709",
"O c #DFDF42",
"5 c #6E6E03",
". c #FBFBD1",
"; c #FFFF0E",
"X c #FCFCA9",
": c #FFFF1B",
"= c #A4A401",
"> c #868600",
"# c #FFFF35",
"8 c #515100",
"% c #ABAB54",
"< c #FFFF54",
"& c #D3D300",
"q c #333300",
"4 c #D7D7CA",
"1 c #FFFF6D",
"7 c #ABAB95",
"$ c #FFFF96",
"6 c #F3F301",
"* c #B4B468",
"2 c #696932",
"3 c #FFFFBA",
"w c #D9D9CD",
/* pixels */
"      .XX.      ",
"    oO+@@@#$    ",
"   %&@@@@@@@#   ",
"  *=-@@;:;;@@#  ",
" o>,-@:<1<<#;@1 ",
" 2>,-@#1$X3$#@; ",
"45>=&6:<1$3X#@@X",
"785=,&+::#<<:@@9",
"o85>=,&6;;;;@@69",
"o885>=,&-6@@@6&o",
" 0885>=,,&&--&, ",
" 7q8855>==,,,=% ",
"  2qq885>>>>>5  ",
"   2qqqq88882   ",
"    70qqqq07    ",
"      w774      "
};
