/* XPM */
// This file is part of BOINC.
// http://boinc.berkeley.edu
// Copyright (C) 2011 University of California
//
// BOINC is free software; you can redistribute it and/or modify it
// under the terms of the GNU Lesser General Public License
// as published by the Free Software Foundation,
// either version 3 of the License, or (at your option) any later version.
//
// BOINC is distributed in the hope that it will be useful,
// but WITHOUT ANY WARRANTY; without even the implied warranty of
// MERCHANTABILITY or FITNESS FOR A PARTICULAR PURPOSE.
// See the GNU Lesser General Public License for more details.
//
// You should have received a copy of the GNU Lesser General Public License
// along with BOINC.  If not, see <http://www.gnu.org/licenses/>.
static const char *workunit_suspended_image_xpm[] = {
/* columns rows colors chars-per-pixel */
"16 16 32 1",
"- c #DE0000",
"0 c #9C7B7B",
"5 c #6A0000",
"q c #310000",
"4 c #D5CDCD",
"; c #FF1010",
"& c #AC4A4A",
"  c None",
"= c #AC0000",
"8 c #F60000",
"% c #FF8B8B",
": c #FF1818",
"3 c #FFBDBD",
"e c #B4A4A4",
"2 c #6A3131",
"6 c #5A0000",
"o c #E0A9A9",
"# c #FF0000",
"O c #D54A4A",
"+ c #F60808",
"1 c #FF6A6A",
"w c #B8A9A9",
"> c #BDA4A4",
"* c #D50000",
"7 c #520000",
"< c #FF5252",
". c #F6CDCD",
"9 c #4A1818",
"@ c #FF0808",
", c #830000",
"X c #FFA4A4",
"$ c #FF3131",
/* pixels */
"      .XX.      ",
"    oO+@#@$%    ",
"   &*######@$.  ",
"  &=-##;:;@##$  ",
" >,=-#:<11<$;#1 ",
" 2,=-@$1%X3X$#; ",
"45,=*+:<1%3X$#@X",
">6,,=-+:$$<<:@#%",
">75,==*8@;:;@#8%",
"4765,==*-88##8*o",
" 9765,==**--**= ",
" 0q775,,======& ",
"  2qq7755,,,,2  ",
"  .2qqqq77672   ",
"    w9qqqq90    ",
"      4e04      "
};
