/* XPM */
static char *app_xpm[] = {
/* columns rows colors chars-per-pixel */
"32 32 8 1",
"  c opaque",
". c gray22",
"X c blue",
"o c #00d800",
"O c #e01000",
"+ c #d8dcd8",
"@ c white",
"# c None",
/* pixels */
"################################",
"######                    ######",
"##### +@@@@@@@@@@@@@@@@@@+ #####",
"##### @@XXXXX@@OOO@@....@@ #####",
"##### @@XXXXX@@OOO@@....@@ #####",
"##### @@XXXXX@@OOO@@....@@ #####",
"##### @@@@@@@@@@@@@@@@@@@@ #####",
"##### @@@@@@@@@@@@@@@@@@@@ #####",
"##### @@@@@@@@@@@@@@@@@@@@ #####",
"##### @@....@@.....@@..@@@ #####",
"##### @@....@@.....@@..@@@ #####",
"##### @@....@@.....@@..@@@ #####",
"##### @@@@@@@@@@@@@@@@@@@@ #####",
"##### @@@@@@@@@@@@@@@@@@@@ #####",
"##### @@@@@@@@@@@@@@@@@@@@ #####",
"##### @@ooo@@oooo@@ooooo@@ #####",
"##### @@ooo@@oooo@@ooooo@@ #####",
"##### @@ooo@@oooo@@ooooo@@ #####",
"##### @@@@@@@@@@@@@@@@@@@@ #####",
"##### @@@@@@@@@@@@@@@@@@@@ #####",
"##### @@@@@@@@@@@@@@@@@@@@ #####",
"##### @@XX@@OOO@@XXX@@..@@ #####",
"##### @@XX@@OOO@@XXX@@..@@ #####",
"##### @@XX@@OOO@@XXX@@..@@ #####",
"##### @@@@@@@@@@@@@@@@@@@@ #####",
"##### @@@@@@@@@@@@@@@@@@@@ #####",
"##### @@@@@@@@@@@@@@@@@@@@ #####",
"##### @@.....@@...@@oooo@@ #####",
"##### @@.....@@...@@oooo@@ #####",
"##### @@.....@@...@@oooo@@ #####",
"##### +@@@@@@@@@@@@@@@@@@+ #####",
"######                    ######"
};
