/* XPM */
static const char *amdicon2_xpm[] = {
"19 16 273 2",
"  	c #FAFAFA",
". 	c #CAC9CB",
"+ 	c #A9A3A6",
"@ 	c #A29B9C",
"# 	c #A19798",
"$ 	c #A29496",
"% 	c #A29293",
"& 	c #A59494",
"* 	c #A79899",
"= 	c #AA9C9F",
"- 	c #AEA0A4",
"; 	c #B1A7A8",
"> 	c #B4A9AC",
", 	c #AAA1A3",
"' 	c #9C9696",
") 	c #938D8E",
"! 	c #8C8889",
"~ 	c #B6B6B6",
"{ 	c #FBFBFB",
"] 	c #E2E1E3",
"^ 	c #7B5454",
"/ 	c #770103",
"( 	c #8B0506",
"_ 	c #A30D11",
": 	c #BB141A",
"< 	c #D31921",
"[ 	c #DA1A23",
"} 	c #CC181E",
"| 	c #C0151C",
"1 	c #B31117",
"2 	c #A50E12",
"3 	c #97090C",
"4 	c #8A0406",
"5 	c #7F0202",
"6 	c #720102",
"7 	c #650102",
"8 	c #4F2426",
"9 	c #CCCCCD",
"0 	c #E7E5E5",
"a 	c #601514",
"b 	c #760102",
"c 	c #8C0405",
"d 	c #A40D10",
"e 	c #BC1419",
"f 	c #D41820",
"g 	c #DC1922",
"h 	c #CE181E",
"i 	c #C1151C",
"j 	c #B41117",
"k 	c #A60E10",
"l 	c #99080B",
"m 	c #8B0306",
"n 	c #7F0102",
"o 	c #710000",
"p 	c #640000",
"q 	c #551D1F",
"r 	c #BDBDBD",
"s 	c #F0EEEE",
"t 	c #601717",
"u 	c #760101",
"v 	c #8C0406",
"w 	c #A50C11",
"x 	c #BD1319",
"y 	c #D4191F",
"z 	c #DC1A22",
"A 	c #CE171D",
"B 	c #A70D10",
"C 	c #710001",
"D 	c #640101",
"E 	c #592223",
"F 	c #BFBFBF",
"G 	c #F3F2F2",
"H 	c #611919",
"I 	c #9C7170",
"J 	c #BC8F90",
"K 	c #AD5757",
"L 	c #CF8A89",
"M 	c #E18B8D",
"N 	c #E17275",
"O 	c #DC8F8E",
"P 	c #C76363",
"Q 	c #D08F92",
"R 	c #BC7777",
"S 	c #C29090",
"T 	c #B08180",
"U 	c #A07170",
"V 	c #834A48",
"W 	c #875C5C",
"X 	c #5C292B",
"Y 	c #C2C2C1",
"Z 	c #F3F2F1",
"` 	c #611A19",
" .	c #CCBFBD",
"..	c #D4C1C0",
"+.	c #DBC3C3",
"@.	c #E9D5D5",
"#.	c #EFD8D7",
"$.	c #E4B9BA",
"%.	c #CD7271",
"&.	c #DEC7C8",
"*.	c #DDBFBF",
"=.	c #B27C7E",
"-.	c #D9C3C2",
";.	c #D6BFBD",
">.	c #C5B5B4",
",.	c #CABAB8",
"'.	c #B6A7A7",
").	c #603133",
"!.	c #C6C6C5",
"~.	c #F0F1EF",
"{.	c #631A1B",
"].	c #AA8D8E",
"^.	c #801114",
"/.	c #C7A09E",
"(.	c #CA7776",
"_.	c #D89092",
":.	c #DE9A9B",
"<.	c #D7A6A6",
"[.	c #CE9A98",
"}.	c #D2ACAB",
"|.	c #BA8989",
"1.	c #CBACAD",
"2.	c #C8AFAF",
"3.	c #A98887",
"4.	c #A99290",
"5.	c #9A8284",
"6.	c #65393B",
"7.	c #CACACB",
"8.	c #E3E1E2",
"9.	c #611718",
"0.	c #8B0406",
"a.	c #B57C78",
"b.	c #CB7A7A",
"c.	c #D2797B",
"d.	c #DF8485",
"e.	c #D27073",
"f.	c #C67877",
"g.	c #C17A79",
"h.	c #BD8385",
"i.	c #B07576",
"j.	c #AD7E7B",
"k.	c #9D706C",
"l.	c #720101",
"m.	c #6C4346",
"n.	c #CFCFD1",
"o.	c #D3D0D3",
"p.	c #5F1213",
"q.	c #8B0407",
"r.	c #BC8682",
"s.	c #D38A8A",
"t.	c #D67C7C",
"u.	c #DA8685",
"v.	c #D78C90",
"w.	c #C15B5C",
"x.	c #C67F80",
"y.	c #BC8485",
"z.	c #B37778",
"A.	c #A97673",
"B.	c #AF8886",
"C.	c #710101",
"D.	c #6D4548",
"E.	c #D4D4D6",
"F.	c #C5C3C5",
"G.	c #5E0C0D",
"H.	c #A20D0F",
"I.	c #BC141A",
"J.	c #CD181E",
"K.	c #C2151C",
"L.	c #A50E10",
"M.	c #98080B",
"N.	c #7E0102",
"O.	c #6B4244",
"P.	c #D3D3D4",
"Q.	c #BABABA",
"R.	c #5D0A0C",
"S.	c #750101",
"T.	c #8D0406",
"U.	c #BA151A",
"V.	c #CF1B23",
"W.	c #CF1F27",
"X.	c #BD2028",
"Y.	c #B02025",
"Z.	c #A71A1F",
"`.	c #A01218",
" +	c #96090C",
".+	c #890406",
"++	c #710100",
"@+	c #683E3F",
"#+	c #D1D0D1",
"$+	c #BBBABB",
"%+	c #5E080B",
"&+	c #6F0709",
"*+	c #731D1F",
"=+	c #6D2C2F",
"-+	c #5E3536",
";+	c #4A3A3C",
">+	c #413C3E",
",+	c #3F3D40",
"'+	c #3E3D3F",
")+	c #433F3F",
"!+	c #4D3C3C",
"~+	c #573335",
"{+	c #5F2627",
"]+	c #641517",
"^+	c #610304",
"/+	c #653A3B",
"(+	c #CECED0",
"_+	c #C1C1C2",
":+	c #3C1E1F",
"<+	c #2F2425",
"[+	c #292628",
"}+	c #292627",
"|+	c #504E4F",
"1+	c #C6C6C6",
"2+	c #A8A7A8",
"3+	c #BEBDBE",
"4+	c #C9C9CA",
"5+	c #A9A8AA",
"6+	c #999898",
"7+	c #AAA9AA",
"8+	c #2A2627",
"9+	c #312222",
"0+	c #513D40",
"a+	c #CBCBCD",
"b+	c #C7C8C9",
"c+	c #292728",
"d+	c #231F20",
"e+	c #878586",
"f+	c #A5A4A5",
"g+	c #AAA8A9",
"h+	c #6C6B6B",
"i+	c #B6B5B6",
"j+	c #A3A1A2",
"k+	c #949293",
"l+	c #929091",
"m+	c #221F20",
"n+	c #3F3E40",
"o+	c #DFDFE1",
"p+	c #717072",
"q+	c #444244",
"r+	c #3B393B",
"s+	c #4A484A",
"t+	c #5E5C5E",
"u+	c #727171",
"v+	c #757475",
"w+	c #737172",
"x+	c #696868",
"y+	c #5F5C5E",
"z+	c #525153",
"A+	c #494749",
"B+	c #423F41",
"C+	c #3E3C3E",
"D+	c #3C393A",
"E+	c #383738",
"F+	c #5A5A5C",
"G+	c #E3E3E4",
"H+	c #FDFDFD",
"I+	c #E4E4E5",
"J+	c #CDCECF",
"K+	c #C5C7C8",
"L+	c #CCCDCE",
"M+	c #DBDCDE",
"N+	c #EEF0EF",
"O+	c #F5F7F6",
"P+	c #F4F6F5",
"Q+	c #EBEDED",
"R+	c #E2E2E4",
"S+	c #D9D9DB",
"T+	c #D1D1D3",
"U+	c #C7C8CA",
"V+	c #C6C6C8",
"W+	c #C5C5C7",
"X+	c #E3E3E3",
"  . + @ # $ % & * = - ; > , ' ) ! ~ { ",
"] ^ / ( _ : < [ } | 1 2 3 4 5 6 7 8 9 ",
"0 a b c d e f g h i j k l m n o p q r ",
"s t u v w x y z A i j B l m n C D E F ",
"G H I J K L M N O P Q R S T U V W X Y ",
"Z `  ...+.@.#.$.%.&.*.=.-.;.>.,.'.).!.",
"~.{.].^./.(._.:.<.[.}.|.1.2.3.4.5.6.7.",
"8.9.u 0.a.b.c.d.e.f.g.h.i.j.k.l.p m.n.",
"o.p.u q.r.s.t.u.v.w.x.y.z.A.B.C.p D.E.",
"F.G.u 0.H.I.f g J.K.j L.M.m N.C p O.P.",
"Q.R.S.T.d U.V.W.X.Y.Z.`. +.+N.++p @+#+",
"$+%+&+*+=+-+;+>+,+'+,+)+!+~+{+]+^+/+(+",
"_+:+<+[+}+|+1+2+3+4+5+6+9 7+8+}+9+0+a+",
"b+c+d+d+d+e+f+g+h+i+j+$+k+l+d+d+m+n+7.",
"o+p+q+r+s+t+u+v+w+x+y+z+A+B+C+D+E+F+G+",
"H+I+J+K+L+M+N+O+P+Q+R+S+T+a+U+V+W+X+H+"};
// This file is part of BOINC.
// https://boinc.berkeley.edu
// Copyright (C) 2018 University of California
//
// BOINC is free software; you can redistribute it and/or modify it
// under the terms of the GNU Lesser General Public License
// as published by the Free Software Foundation,
// either version 3 of the License, or (at your option) any later version.
//
// BOINC is distributed in the hope that it will be useful,
// but WITHOUT ANY WARRANTY; without even the implied warranty of
// MERCHANTABILITY or FITNESS FOR A PARTICULAR PURPOSE.
// See the GNU Lesser General Public License for more details.
//
// You should have received a copy of the GNU Lesser General Public License
// along with BOINC.  If not, see <https://www.gnu.org/licenses/>.
