/* XPM */
static const char *androidicon2_xpm[] = {
"16 16 4 1",
" 	c None",
".	c #9ACD00",
"+	c #99CC00",
"@	c #99CD00",
"                ",
"      .++@      ",
"     ++++.+     ",
"    ++++++++    ",
"    ++++++++    ",
"  . ++++++++ .  ",
" ++ ++++++++ ++ ",
" ++ ++++++++ ++ ",
" ++ ++++++++ ++ ",
" ++ ++++++++ ++ ",
"  . ++++++++ .  ",
"    ++++++++    ",
"    .++.+++.    ",
"     .+  ++     ",
"     .+  ++     ",
"      +  +      "};
// This file is part of BOINC.
// https://boinc.berkeley.edu
// Copyright (C) 2018 University of California
//
// BOINC is free software; you can redistribute it and/or modify it
// under the terms of the GNU Lesser General Public License
// as published by the Free Software Foundation,
// either version 3 of the License, or (at your option) any later version.
//
// BOINC is distributed in the hope that it will be useful,
// but WITHOUT ANY WARRANTY; without even the implied warranty of
// MERCHANTABILITY or FITNESS FOR A PARTICULAR PURPOSE.
// See the GNU Lesser General Public License for more details.
//
// You should have received a copy of the GNU Lesser General Public License
// along with BOINC.  If not, see <https://www.gnu.org/licenses/>.
