/* XPM */
static char *androidicon_xpm[] = {
/* columns rows colors chars-per-pixel */
"16 16 18 1",
"@ c #CCD599",
"  c None",
"; c #CCD5CC",
"o c #99AA00",
", c #66AA33",
"> c #FFD5CC",
"O c #99AA33",
"= c #99FF66",
": c #CCAA33",
"$ c #99D500",
"* c #CCFF66",
"+ c #99D533",
"- c #CCFF99",
"& c #CCD533",
"# c #99D566",
"X c #CCFFCC",
"% c #CCD566",
". c #FFFFCC",
/* pixels */
"     . ..       ",
"     XoOOo+     ",
"     o@+++@o    ",
"    #O+OO+O$X   ",
"  %%%#%#%%#%@oX ",
"  O+%O+O+O+O%O% ",
"  +O%+O+O+O+%+@ ",
"  +O%+O&+O&O%O* ",
"  #+%O++O++O=O@ ",
"  O+%+O&O+O+%O* ",
"  %O%O+O+O&O-o; ",
"    #+O++O+O-   ",
"    %O+:#&O+>   ",
"      o- @o     ",
"     .o@ -,.    ",
"      +X >+     "
};
