/* XPM */
static const char *boinc_xpm[] = {
/* columns rows colors chars-per-pixel */
"16 16 69 1",
"1 c #355684",
"c c #245081",
"n c #244A7B",
"F c #316293",
"4 c #768DAC",
"3 c #7B91AE",
"A c #607A9E",
"l c #FED035",
"7 c #FED037",
"u c #FED346",
"i c #526F96",
"f c #577398",
"w c #FFC803",
"C c #375885",
"+ c #295C8E",
"j c #788FAD",
"X c #134F87",
"L c #6A93B7",
"g c #24497A",
"9 c #768CAB",
"J c #7495B5",
"; c #315B8A",
"# c #7993B2",
"= c #7E97B4",
"< c #183E72",
". c #5784AD",
"  c None",
"o c #86A2BE",
"m c #164176",
"s c #FECC24",
"y c #FECC25",
"$ c #637DA1",
"* c #6881A3",
"- c #285A8D",
"t c #7289A9",
"d c #FED244",
"Z c #395A86",
"q c #FFCD06",
"h c #43628C",
"N c #21568A",
"0 c #FFCA04",
"p c #193F73",
"G c #5D89AF",
"B c #15487D",
"@ c #15487E",
"v c #738AA9",
"z c #738AAA",
"H c #134E86",
"% c #3F5F8A",
"M c #3D6591",
"S c #6081A5",
"5 c #2C5686",
"V c #5B779B",
"a c #6F87A7",
"2 c #365884",
"6 c #3B5C88",
"r c #40608A",
"O c #618BB0",
"x c #4A6891",
": c #164075",
"D c #14497F",
"k c #FECE2F",
"8 c #FED13D",
"b c #3C5D88",
"& c #41618B",
", c #173E72",
"K c #135088",
"e c #214678",
"> c #2B4E7E",
/* pixels */
"                ",
".X           oXO",
" +@#  $%&*  =@- ",
"  ;:>,<123 4:5  ",
"   6,4     ,<   ",
"       78  9,   ",
"  1   0qqw  er  ",
"  ,t yqqqqu ip  ",
"  ,a sqqqqd f<  ",
"  g1  0qqw   h  ",
"  j,   kl       ",
"   ,<     z,x   ",
"  c:  v%bp,nmM  ",
" NB   VCZA  SDF ",
"GH           JKL",
"                "
};

// This file is part of BOINC.
// http://boinc.berkeley.edu
// Copyright (C) 2013 University of California
//
// BOINC is free software; you can redistribute it and/or modify it
// under the terms of the GNU Lesser General Public License
// as published by the Free Software Foundation,
// either version 3 of the License, or (at your option) any later version.
//
// BOINC is distributed in the hope that it will be useful,
// but WITHOUT ANY WARRANTY; without even the implied warranty of
// MERCHANTABILITY or FITNESS FOR A PARTICULAR PURPOSE.
// See the GNU Lesser General Public License for more details.
//
// You should have received a copy of the GNU Lesser General Public License
// along with BOINC.  If not, see <http://www.gnu.org/licenses/>.
