/* XPM */
static const char *boincsnooze32_xpm[] = {
/* columns rows colors chars-per-pixel */
"32 32 148 2",
"&  c #134D85",
"w. c #FFCF3F",
"f. c #567EA6",
"^  c #6C85A6",
"N. c #335683",
"i. c #8599B5",
"(  c #4C6A92",
"4  c #5B769B",
".  c #14548C",
"n. c #19588F",
"{  c #1D4375",
"+  c #86A3BF",
"x. c #CFAF1C",
",  c #144B83",
"f  c #7791AF",
"F  c #163F74",
"1  c #14487D",
"t. c #6D86A6",
"d  c #778EAC",
"=. c #FECD36",
"y. c #5C7DA2",
"*. c #3E5F89",
"@. c #FECD38",
"R  c #43638D",
"Y  c #FED350",
"/  c #486791",
"q. c #FED969",
")  c #FED96A",
"C  c #577399",
"A  c #5C779C",
"!  c #FFC802",
"H  c #194074",
":. c #1E4476",
"%. c #375883",
"_  c #FFC501",
"q  c #15497F",
"X  c #13528B",
"d. c #7D93B0",
"k  c #15467C",
"8  c #8297B3",
"%  c #134F87",
"N  c #154378",
"g  c #154379",
"-. c #718284",
"w  c #517CA5",
":  c #658CB0",
"9  c #809AB7",
"7  c #5D789C",
"b  c #627C9F",
"p. c #6780A2",
"D  c #6C84A5",
".. c #24497A",
"v  c #294D7D",
"G  c #607FA3",
"P  c #183E72",
"p  c #8398B3",
"2  c #6383A7",
"-  c #144D84",
"   c None",
"v. c #144D85",
"r. c #5E7CA0",
"7. c #A7972E",
"g. c #144A80",
"r  c #144A81",
"z. c #84813F",
"*  c #144A82",
"h  c #577EA5",
"#. c #F7CE26",
"s  c #163E72",
"0. c #1B4274",
"X. c #163E73",
"0  c #14477D",
"a  c #254A7A",
"Z  c #7289A9",
"B  c #5C7FA4",
"9. c #2A4E7E",
"1. c #2F5280",
"l. c #395A86",
"e. c #FECF41",
"8. c #E1BB13",
"J  c #48668F",
"o. c #FED866",
"j  c #849FBB",
"2. c #FED55D",
"`  c #FFCA04",
"M. c #1A588E",
"O. c #FFC702",
"<. c #41628C",
"#  c #5D89B0",
"k. c #537EA7",
"K  c #647EA0",
" . c #647EA1",
"t  c #15487E",
"j. c #738AA9",
"V  c #264B7B",
"$  c #13518A",
"&. c #305381",
"y  c #15457B",
">  c #134E85",
"O  c #134E86",
"}  c #3A5B87",
"M  c #154276",
"c  c #3F5F8A",
"z  c #154277",
">. c #1A4070",
"3  c #8096B2",
";  c #4F7EA8",
"s. c #597DA3",
"a. c #315482",
"m. c #144F86",
"b. c #40608B",
"$. c #818873",
"6  c #4A6890",
"5  c #4A6891",
"W  c #FEC202",
"6. c #FEC203",
"m  c #164074",
"x  c #164075",
"~  c #FEC206",
"<  c #144980",
"|  c #FEC207",
",. c #25466B",
"I  c #204577",
"c. c #5A87AE",
"i  c #527399",
"e  c #7595B6",
"T  c #FED453",
"5. c #FED760",
"+. c #FFCC05",
"'  c #FFCC06",
";. c #FED762",
"3. c #918938",
"U  c #FEDD7A",
"E  c #FEDA71",
"]  c #FFC903",
"L  c #6680A3",
"n  c #7088A8",
"h. c #849BB7",
"u. c #758CAB",
"S  c #7A90AE",
"Q  c #FFC601",
"=  c #7392B3",
"4. c #DAB616",
"[  c #FFC300",
"@  c #135088",
"o  c #135089",
"u  c #154479",
"l  c #15447A",
/* pixels */
"                                                                ",
"    .                                                     X     ",
"  . o O +                                               O @ X   ",
"# $ % & * =                                           * - O @ ; ",
"  : > , < 1 2             3 4 5 6 7 8             9 0 q * - w   ",
"    e r t y u i     p a s s s s s s s s d       f g y 0 q h     ",
"      j k l z x c v s s s s s s s s s b       n m M N y B       ",
"          z x s s s s s s V C Z Z A S       D s s F M G         ",
"            H s s s s J                   K s s s s L           ",
"              H s P                         P s s s             ",
"                I           U Y T             s s s R           ",
"                        E W Q ! ! Q ~         ^ s s s           ",
"        / (           ) _ ` ' ' ' ' ] [         { s s b         ",
"        s s }         [ ` ' ' ' ' ' ' ] |        .s s ..        ",
"        X.s s       o.O.' ' ' ' ' ' ' +._         s s s         ",
"        s s s       @.] ' ' ' ' ' ' ' #.$.%.&.&.&.&.&.&.&.*.    ",
"        s s s       =.] ' ' ' ' ' ' ' -.s s s s s s s s s s s   ",
"        X.s s       ;.O.' ' ' ' ' ' ' :.s s s s s s s s s s s J ",
"        X.s s 8       [ ` ' ' ' ' ' ' s s s >.,.s s s >.,.s s c ",
"        <.s s 1.      2._ ` ' ' ' ' ` s s s 3.4.s s s 3.4.s s c ",
"          s s s         5.[ O.] ] Q 6.s s s 7.8.s s s 7.8.s s c ",
"          9.s s 0.          q.w.e.E   s s s 7.8.s s s 7.8.s s c ",
"            s s s I                   s s s 7.8.s s s 7.8.s s c ",
"          r.X.s s s t.                s s s 7.8.s s s 7.8.s s c ",
"        y.z x s s u.      i.D 3 3 p.a.s s s 7.8.s s s 7.8.s s c ",
"      s.k u M m d.      p.s s s s s s s s s 7.8.s s s 7.8.s s c ",
"    f.g.t y u h.      j.s s s s s s s s s s 7.8.s s s 7.8.s s c ",
"  k.& , < 1               n 5 } l.( Z s s s z.x.s s s z.x.s s c ",
"c.o O v.*                             s s s s s s s s s s s s b.",
"  n.o m.                              } s s s s s s s s s s s   ",
"    M.                                  ..s s s s s s s s s N.  ",
"                                                                "
};

// This file is part of BOINC.
// http://boinc.berkeley.edu
// Copyright (C) 2013 University of California
//
// BOINC is free software; you can redistribute it and/or modify it
// under the terms of the GNU Lesser General Public License
// as published by the Free Software Foundation,
// either version 3 of the License, or (at your option) any later version.
//
// BOINC is distributed in the hope that it will be useful,
// but WITHOUT ANY WARRANTY; without even the implied warranty of
// MERCHANTABILITY or FITNESS FOR A PARTICULAR PURPOSE.
// See the GNU Lesser General Public License for more details.
//
// You should have received a copy of the GNU Lesser General Public License
// along with BOINC.  If not, see <http://www.gnu.org/licenses/>.
