/* XPM */
static const char *boinc_xpm[] = {
/* columns rows colors chars-per-pixel */
"16 16 57 1",
"d c #153B73",
"j c #16457A",
"e c #183C73",
"f c #163F72",
"7 c #0F4173",
"k c #163C71",
"g c #143F72",
"N c #10518D",
"u c #FFC802",
"5 c #174074",
"& c #15497E",
"v c #15497F",
"h c #174078",
"i c #FFBF00",
"- c #173D71",
"> c #154378",
"* c #154379",
"% c #134C82",
"z c #15437A",
"o c #11528B",
"8 c #153D70",
"@ c #134983",
". c #11528C",
"3 c #153D71",
"n c #144D83",
"  c None",
"2 c #164175",
"l c #164176",
"< c #144A82",
"B c #12538C",
"s c #163E71",
"c c #163E72",
", c #14477D",
"1 c #14447A",
": c #144170",
"y c #FFCD06",
"t c #FFCA03",
"q c #FFC400",
"b c #154B82",
"r c #FFC100",
"$ c #135189",
"# c #134E86",
"O c #134E88",
"+ c #134B82",
"x c #134B83",
"M c #11548D",
"X c #145289",
"4 c #163D6F",
"; c #163D70",
"9 c #163D71",
"w c #163D72",
"a c #FFC300",
"0 c #FFC000",
"= c #173E72",
"p c #173E73",
"m c #135088",
"6 c #154479",
/* pixels */
" .            X ",
"oO+          @#$",
" %&*  =--;: >,< ",
"  123=;=-4 -56  ",
"  7==8    9==   ",
"    = 0qq0 w=8  ",
"   e rtyyui ==  ",
"  p; qyyyya ==  ",
"  p3 qyyyya 3=  ",
"  s3 rtyyui d   ",
"  f=8 0qq0 e    ",
"   ==g    ;=3h  ",
"  j2= 9-k-==lz  ",
" x&> d;==;c zvx ",
"o#b          nmM",
" N            B "
};

// This file is part of BOINC.
// http://boinc.berkeley.edu
// Copyright (C) 2013-2014 University of California
//
// BOINC is free software; you can redistribute it and/or modify it
// under the terms of the GNU Lesser General Public License
// as published by the Free Software Foundation,
// either version 3 of the License, or (at your option) any later version.
//
// BOINC is distributed in the hope that it will be useful,
// but WITHOUT ANY WARRANTY; without even the implied warranty of
// MERCHANTABILITY or FITNESS FOR A PARTICULAR PURPOSE.
// See the GNU Lesser General Public License for more details.
//
// You should have received a copy of the GNU Lesser General Public License
// along with BOINC.  If not, see <http://www.gnu.org/licenses/>.
