/* XPM */
static const char *boincsnooze_macmenubar_dark_xpm[] = {
/* columns rows colors chars-per-pixel */
"64 64 127 2 ",
"   c None",
".  c #001F5B",
"X  c #00235E",
"o  c #002360",
"O  c #022C65",
"+  c #022D68",
"@  c #07316A",
"#  c #0D356B",
"$  c #0F386C",
"%  c #123A6F",
"&  c #002F7D",
"*  c #0A3677",
"=  c #0E3876",
"-  c #04327C",
";  c #093579",
":  c #163E72",
">  c #183F72",
",  c #113879",
"<  c #1E426F",
"1  c #1A4174",
"2  c #2F4B67",
"3  c #20436F",
"4  c #2B4A69",
"5  c #334F65",
"6  c #355163",
"7  c #3A5263",
"8  c #224778",
"9  c #244979",
"0  c #284A7B",
"q  c #43585E",
"w  c #4A5C5B",
"e  c #566654",
"r  c #5A6654",
"t  c #586853",
"y  c #646C4F",
"u  c #767747",
"i  c #767846",
"p  c #727548",
"a  c #405660",
"s  c #817D41",
"d  c #84843E",
"f  c #998C36",
"g  c #959035",
"h  c #989333",
"j  c #A39A2F",
"k  c #AB9C2D",
"l  c #A19033",
"z  c #BCA723",
"x  c #BEA922",
"c  c #C8AF1E",
"v  c #CCB11D",
"b  c #CEBA19",
"n  c #D3B918",
"m  c #C4AC20",
"M  c #DEC413",
"N  c #E5C50F",
"B  c #E8C90E",
"V  c #F5CD08",
"C  c #FDD602",
"Z  c #F7DD04",
"A  c #FEDC01",
"S  c #E1C211",
"D  c #FDE302",
"F  c #838240",
"G  c #2F5280",
"H  c #345583",
"J  c #375986",
"K  c #3A5B87",
"L  c #3D5E89",
"P  c #3F608B",
"I  c #47658F",
"U  c #4D6B93",
"Y  c #4C6B9B",
"T  c #547197",
"R  c #597496",
"E  c #5A7599",
"W  c #5F789A",
"Q  c #627B9D",
"!  c #657EA1",
"~  c #7D8F9F",
"^  c #6680A3",
"/  c #6A83A4",
"(  c #7288A6",
")  c #768DAC",
"_  c #8296B2",
"`  c #8599B5",
"'  c #8C9FB9",
"]  c #94A5BA",
"[  c #9CAABE",
"{  c #A9B1B1",
"}  c #A3B0BF",
"|  c #BABCB1",
" . c #E2DDBE",
".. c #9FADC0",
"X. c #A0AEC0",
"o. c #A5B2C3",
"O. c #AAB6C6",
"+. c #B6C0CD",
"@. c #B6C3D3",
"#. c #BBC4D0",
"$. c #CACBC3",
"%. c #D4D9DF",
"&. c #DCDDD8",
"*. c #EAE5D5",
"=. c #D0D6E1",
"-. c #DEE2E5",
";. c #E2E3E1",
":. c #E2E3E2",
">. c #E3E3E2",
",. c gray89",
"<. c #E1E2E1",
"1. c #E7E6E3",
"2. c #E2E3E4",
"3. c #E1E3E6",
"4. c #E3E4E4",
"5. c #E1E4E6",
"6. c #E2E4E7",
"7. c #E2E5E7",
"8. c #E6E7E7",
"9. c #E2E4E7",
"0. c #E8E7E3",
"q. c #E9E8E4",
"w. c #E8E8E7",
"e. c gray91",
"r. c #E8E9E9",
"t. c gray91",
"y. c #F4F4F4",
/* pixels */
"        e.e.                                                                                                        e.e.        ",
"      e.e.e.e.                                                                                                    e.e.e.e.      ",
"    e.e.e.e.e.e.                                                                                                e.e.e.e.e.e.    ",
"  e.e.e.e.e.e.e.e.                                                                                            e.e.e.e.e.e.e.e.  ",
"e.e.e.e.e.e.e.e.e.e.                                                                                        e.e.e.e.e.e.e.e.e.e.",
"e.e.e.e.e.e.e.e.e.e.e.                                                                                    e.e.e.e.e.e.e.e.e.e.e.",
"e.e.e.e.e.e.e.e.e.e.e.e.                                                                                e.e.e.e.e.e.e.e.e.e.e.e.",
"  e.e.e.e.e.e.e.e.e.e.e.e.                            e.e.e.e.e.e.e.e.e.e.                            e.e.e.e.e.e.e.e.e.e.e.e.  ",
"    e.e.e.e.e.e.e.e.e.e.e.e.                  e.e.e.e.e.e.e.e.e.e.e.e.e.e.e.e.e.                    e.e.e.e.e.e.e.e.e.e.e.e.    ",
"      e.e.e.e.e.e.e.e.e.e.e.e.            e.e.e.e.e.e.e.e.e.e.e.e.e.e.e.e.e.e.e.e.e.              e.e.e.e.e.e.e.e.e.e.e.e.      ",
"        e.e.e.e.e.e.e.e.e.e.e.e.      e.e.e.e.e.e.e.e.e.e.e.e.e.e.e.e.e.e.e.e.e.e.e.            e.e.e.e.e.e.e.e.e.e.e.e.        ",
"          e.e.e.e.e.e.e.e.e.e.e.e.e.e.e.e.e.e.e.e.e.e.e.e.e.e.e.e.e.e.e.e.e.e.e.e.            e.e.e.e.e.e.e.e.e.e.e.e.          ",
"            e.e.e.e.e.e.e.e.e.e.e.e.e.e.e.e.e.e.e.e.e.e.e.e.e.e.e.e.e.e.e.e.e.e.            e.e.e.e.e.e.e.e.e.e.e.e.            ",
"              e.e.e.e.e.e.e.e.e.e.e.e.e.e.e.e.e.e.e.e.e.e.e.e.e.e.e.e.e.e.e.e.            e.e.e.e.e.e.e.e.e.e.e.e.              ",
"                e.e.e.e.e.e.e.e.e.e.e.e.e.e.e.e.e.e.e.e.e.e.e.e.e.e.e.e.e.e.            e.e.e.e.e.e.e.e.e.e.e.e.                ",
"                  e.e.e.e.e.e.e.e.e.e.e.e.e.e.e.e.e.e.e.                              e.e.e.e.e.e.e.e.e.e.e.e.                  ",
"                      e.e.e.e.e.e.e.e.e.e.e.e.e.e.                                  e.e.e.e.e.e.e.e.e.e.e.e.                    ",
"                        e.e.e.e.e.e.e.e.e.e.e.                                    e.e.e.e.e.e.e.e.e.e.e.e.                      ",
"                          e.e.e.e.e.e.e.e.e.                                        e.e.e.e.e.e.e.e.e.e.e.                      ",
"                            e.e.e.e.e.e.                                                e.e.e.e.e.e.e.e.e.e.                    ",
"                              e.e.e.e.                    e.e.e.e.e.                      e.e.e.e.e.e.e.e.e.                    ",
"                                e.e.                  e.e.e.e.e.e.e.e.8.*.                @.o...o.o.o.o.[ O.#.                  ",
"                  y.              e.              e.e.e.e.e.e.e.e.w.&.$.| } ' ^ ! ^ ^ / / U W Q Q ! ! ! Q / _ / / / )           ",
"                e.e.e.                          e.e.e.e.e.e.e.e.w. .{ Y - + + + + + + + + # : 1 > > > > 1 : # + + + + # T       ",
"                e.e.e.e.                      e.e.e.e.e.e.e.e.e.&.~ 9 * : : : % : : : : : : : : : : : : : : : : : : % # % 9 )   ",
"                e.e.e.e.e.                  e.e.e.e.e.e.e.e.e.w.o., @ # : : > > : : : : : : : : : : : : : : : > > > > : # + 0 ` ",
"              e.e.e.e.e.e.e.                e.e.e.e.e.e.e.e.e.=.Y o : 1 : : : : : : : : : : : : : : : : : : : : : : : > > : . I ",
"              e.e.e.e.e.e.e.e.            e.e.e.e.e.e.e.e.e.e.[ 8 # : > : : : : : : : : : : : : : : : : : : : : : : : : > : + G ",
"              e.e.e.e.e.e.e.e.            e.e.e.e.e.w.w.e.e.8.( # % : : : : : : : > : : : : : : : : : : : : > : : : : : : : # 9 ",
"              e.e.e.e.e.e.e.e.            e.e.e.e.w.8.e.e.e.8.W @ : : : : : : : : : : : : : : : : : : : : : : : : : : : : : # 9 ",
"              e.e.e.e.e.e.e.e.          e.e.e.e.e.e.e.e.e.e.8.W @ : : : : : : : : : : : : : : : : : : : : : : : : : : : : : # 9 ",
"              e.e.e.e.e.e.e.e.          e.e.e.e.e.e.e.e.e.e.8.R @ : : : : : > : = > : = : > : : : : : : = : 1 = : > : : : : # 9 ",
"              e.e.e.e.e.e.e.e.          e.e.e.e.e.e.e.e.t.w.8.R @ % : : > : = 3 e g p 4 : : > : : : : = a F h t 3 = : > : : # 9 ",
"              e.e.e.e.e.e.e.e.          e.e.e.e.e.e.e.e.t.t.8.R @ % : : > : - 7 k A n r * = > : : : = = s V A k 7 - : > : : # 9 ",
"              e.e.e.e.e.e.e.e.            e.e.e.e.e.e.e.t.t.8.E @ : : : > : & w c A S u * = > : : : = : f C A z w & : > : : # 9 ",
"              e.e.e.e.e.e.e.e.            e.e.e.e.e.e.e.e.e.8.Q @ % : : > : & w v A N i * = > : : : = : f C A m w & : > : : # 9 ",
"              e.e.e.e.e.e.e.e.            e.e.e.e.e.e.e.e.e.8.Q @ : : : > : & w m A S p * = > : : : = : f C C z w & : > : : # 9 ",
"              e.e.e.e.e.e.e.e.            e.e.e.e.e.e.e.e.e.8.E @ : : : > : & w m A S p * = > : : : = : f C C z w & : > : : # 9 ",
"                e.e.e.e.e.e.e.e.            e.e.e.e.e.e.e.e.8.E @ : : : > : & w m A S p * = > : : : = : f C C z w & : > : : # 9 ",
"                e.e.e.e.e.e.e.e.              e.e.e.e.e.e.e.8.E @ : : : > : & w m A S p * = > : : : = : f C C z w & : > : : # 9 ",
"                e.e.e.e.e.e.e.e.e.            e.e.e.t.t.e.e.8.E @ : : : > : & w m A S p * = > : : : = : f C C z w & : > : : # 9 ",
"                  e.e.e.e.e.e.e.e.                e.e.t.e.e.8.E @ : : : > : & w m A S p * = > : : : = : f C C z w & : > : : # 9 ",
"                  e.e.e.e.e.e.e.e.e.                t.e.e.e.8.E @ : : : > : & w m A S p * = > : : : = : f C C z w & : > : : # 9 ",
"                  e.e.e.e.e.e.e.e.e.e.                  t.e.8.E @ : : : > : & w m A S p * = > : : : = : f C C z w & : > : : # 9 ",
"                    e.e.e.e.e.e.e.e.e.e.                      I # : : : > : & w m A S p * = > : : : = : f C C z w & : > : : # 9 ",
"                      e.e.e.e.e.e.e.e.e.e.                    K : % : : > : & w m A S p * = > : : : = : f C C z w & : > : : # 9 ",
"                      e.e.e.e.e.e.e.e.e.e.e.                  J 1 % : : > : & w m A S p * = > : : : = : f C C z w & : > : : # 9 ",
"                    e.e.e.e.e.e.e.e.e.e.e.e.                  J 1 % : : > : & w m A S p * = > : : : = : f C C z w & : > : : # 9 ",
"                  e.e.e.e.e.e.e.e.e.e.e.e.                    J 1 % : : > : & w m A S p * = > : : : = : f C C z w & : > : : # 9 ",
"                e.e.e.e.e.e.e.e.e.e.e.e.              e.e.e.] P 1 % : : > : & w m A S p * = > : : : = : f C C z w & : > : : # 9 ",
"              e.e.e.e.e.e.e.e.e.e.e.e.              e.e.e.e.o.I 1 % : : > : & w m A S p * = > : : : = : f C C z w & : > : : # 9 ",
"            e.e.e.e.e.e.e.e.e.e.e.e.              e.e.e.e.e.o.I 1 % : : > : & w m A S p * = > : : : = : f C C z w & : > : : # 9 ",
"          e.e.e.e.e.e.e.e.e.e.e.e.              e.e.e.e.e.e.X.I 1 % > > > : & w m A S p * = > : : : = : f C C z w & : > : : # 9 ",
"        e.e.e.e.e.e.e.e.e.e.e.e.              e.e.e.e.e.e.e.+.U 1 % : : > : & w v D B u * * > : : : = : l A A m w & : > : : # 9 ",
"      e.e.e.e.e.e.e.e.e.e.e.e.              e.e.e.e.e.e.e.e.%.T $ % : : > : & w m D M p * * > : : : = : f C Z z w & : > : : # 9 ",
"    e.e.e.e.e.e.e.e.e.e.e.e.                e.e.e.e.e.e.e.e.8.E # : : : : : - 4 d b j q = : > : : > : = y z b d 2 - : > : : # 9 ",
"  e.e.e.e.e.e.e.e.e.e.e.e.                        e.e.e.e.e.8.E + : : : : : : > 5 e q < : : > : : > : : 4 w e 6 > : : > : : # 9 ",
"e.e.e.e.e.e.e.e.e.e.e.e.                                    -.U @ : : : : : > : * & - : > > : : : : : > * & & * : > : : : : # 9 ",
"e.e.e.e.e.e.e.e.e.e.e.                                        I # % : : : : : : : : : : : : : : : : : : : : : : : : : : : : # 0 ",
"e.e.e.e.e.e.e.e.e.e.                                          Q % @ > > : : : : > > > : : : : : : : : : : > > > : : : : > > + H ",
"  e.e.e.e.e.e.e.e.                                              L + % > > : : : : : : : : : : : : : : : : : : : : : : > : % + Q ",
"    e.e.e.e.e.e.                                                _ $ $ % > : : : : : : : : : : : : : : : : : : : : : : > % # 9   ",
"      e.e.e.e.                                                    / + X @ # # # # # # # # # # # # # # # # # # # # # # + + 9 '   ",
"        e.e.                                                        / L 9 8 8 8 8 8 8 8 8 8 8 8 8 8 8 8 8 8 8 8 8 9 9 H /       "
};
