/* XPM */
static const char *boincsnooze32_xpm[] = {
/* columns rows colors chars-per-pixel */
"32 32 146 2",
"@. c #FFCC33",
"-  c Black",
".. c #1C3965",
"#. c #FFC930",
"#  c #1D4F7B",
"f  c #1D4C76",
"k. c #1D4C77",
"[  c #FFC62E",
";  c #1D4972",
"$. c #FFC32C",
"=  c #1D4976",
"g. c #1D466F",
"$  c #1B4F7B",
"5. c #566057",
"H  c #1D436B",
"d. c #1D436C",
":. c #183C61",
"   c None",
"c. c #1D436D",
"P  c #1D406A",
"3. c #183C6D",
"v  c #1D3D64",
"U  c #1D3D65",
"N  c #2A557F",
"p  c #1D3A62",
"X. c #1D3A65",
"z. c #1E507C",
"K  c #005555",
"1  c #1E4D78",
"h  c #1E4A74",
"8  c #1E4A75",
"d  c #1E4771",
"0  c #1E4772",
"k  c #1E446D",
"C  c #1E4169",
"f. c #1E416A",
"y. c #FEC126",
"L  c #1E3E66",
"X  c #1A5078",
"D  c #1E3E67",
"w. c #FEC12A",
"(  c #FEC12B",
"Y  c #1E3B63",
"u  c #1E3B64",
"%. c #FEBE28",
"*. c #FEBB28",
"I  c #1C3E67",
"s. c #00007F",
",  c #1D517C",
"_  c #1C3863",
"{  c #FFC82F",
"2. c #FFC830",
"4. c #8A814C",
"x  c #1F3F5F",
",. c #FFC52D",
"i. c #1F3F64",
"|  c #FFC52E",
"e  c #1C3871",
"6  c #1D456F",
"/  c #FFBF28",
"7. c #565F56",
"'  c #FFFF00",
"a  c #1D426D",
"g  c #1F3F7F",
"t  c #1D3C63",
"i  c #1D3C64",
"&. c #1D3C65",
"+  c #1E4F78",
"<  c #1E4F7A",
"8. c #8B824C",
"O  c #1E4F7B",
"e. c #545C56",
"b. c #1E4F7D",
":  c #1E4C76",
"*  c #1E4C77",
"W  c #1B3C65",
"T  c #17455C",
"9. c #E5BB38",
"7  c #1E4973",
"3  c #1E4974",
"v. c #1E4975",
"q  c #1E466F",
"4  c #1E4670",
"x. c #1E4671",
"6. c #6B6D53",
"E  c #203A62",
"l. c #1E436C",
"w  c #1E436D",
"F  c #1E4068",
"z  c #1E4069",
"=. c #FEC32B",
"p. c #3F3F7F",
"`  c #1E3D64",
"J  c #1E3D65",
"a. c #1E3D66",
" . c #FEC028",
"^  c #FEC029",
"o. c #FEC02A",
"m. c #245479",
"r. c #AA9545",
"<. c #193366",
"9  c #0000FF",
"+. c #FFCA31",
"%  c #1D507B",
".  c #1F4A7F",
"S  c #24486D",
"}  c #FFC72F",
"r  c #1F3E62",
"O. c #FFC42D",
")  c #1F3E63",
"j. c #2A2A55",
"0. c #1F3E65",
"B  c #1D4770",
"Q  c #FFBB25",
"5  c #003F7F",
"b  c #1D3B63",
"y  c #1D3B64",
"n. c #1E4E78",
">  c #1E4E79",
"&  c #1E4E7A",
"2  c #1E4B76",
"@  c #1E4B79",
"j  c #1E4872",
"o  c #1C517B",
"u. c #254061",
"t. c #FECB33",
"M  c #1E4873",
"G  c #1E456D",
"h. c #1E456E",
"s  c #1E456F",
"l  c #1E426B",
"V  c #1E426C",
"Z  c #1E3F67",
"m  c #1E3F68",
"-. c #FEC22A",
"]  c #FEC22B",
"R  c #1E3C62",
"A  c #1E3C63",
"n  c #1E3C64",
"q. c #1E3C65",
"~  c #FEBF28",
"!  c #FEBF29",
"c  c #333366",
";. c #FEBC25",
"1. c #1C3F68",
">. c #1C3C65",
/* pixels */
"    .                                                     X     ",
"  o O +                                                 @ # $   ",
"o % & * = -                                           ; : > O $ ",
", < 1 2 3 4 5                                       6 7 8 * > & ",
"9 1 2 3 0 q w e       - r t y u u i i p 9         a s d 7 8 f g ",
"    h j 4 k l z x c v b n n n n n n n n n     - m l w s d M N   ",
"      B k V C Z n A n n n n n n n n n y S   9 A D F l w G c     ",
"        H C Z J n n n n n y i n u n n x   K t n n L F P 5       ",
"          I U n n n n Y v T             5 t n n n n L K         ",
"            R Y n n b S                 5 n n n n A E           ",
"              W n u       Q ! ~ ^ / (       A n n n u           ",
"        ) _     ` -   ' ~ ] [ { } | (  .      t n n n ..        ",
"        L i X.        o.O.+.@.@.@.@.#.$.%.    ` u n n Y         ",
"        &.n i p     *.=.+.@.@.@.@.@.@.#.-.;.    i n n u         ",
"      :.J n n >.    ^ [ @.@.@.@.@.@.@.@.,.!     ` n n A <.      ",
"      1.J n n b     o.2.@.@.@.@.@.@.@.@.n n n n n n n n n n n   ",
"      1.J n n J     o.2.@.@.@.@.@.@.@.n n n n n n n n n n n n n ",
"      3.J n n u     ^ [ @.@.@.@.@.@.4.n n n n n n n n n n n n n ",
"        &.n n b     *.=.+.@.@.@.@.@.5.n n n n 6.n n n 6.n n n n ",
"        J n n b J     %.O.+.@.@.@.@.7.n n n 8.9.6.n 6.9.6.n n n ",
"        0.q.n n y     ' ~ w.[ { } | e.n n n r.@.6.n r.t.6.n n n ",
"          n n n n >.      y.! ~ ^ / u.n n n r.@.6.n r.t.6.n n n ",
"          i.n n n n Y K             n n n n r.@.6.n r.t.6.n n n ",
"        p.m a.n n n b s.            y n n n r.@.6.n r.t.6.n n n ",
"      c d.f.Z J n y -   S t n n u y n n n n r.@.6.n r.t.6.n n n ",
"    N g.h.V C Z q.    j.n n n n n n n n n n r.@.6.n r.t.6.n n n ",
"  N 7 j 4 k l z       t n n n n n n n n n n r.@.6.n r.t.6.n n n ",
"S k.2 3 0 q l.        - n i t Y Y t Y n n n 6.9.6.n 8.9.6.n n n ",
"z.< 1 2 7 x.                        n n n n n 6.n n n 6.n n n c.",
"% z.& : v.                          n n n n n n n n n n n n i o ",
"  b.O n.                              n n n n n n n n n n n o   ",
"    X                                                     m.    "
};

// This file is part of BOINC.
// http://boinc.berkeley.edu
// Copyright (C) 2013-2014 University of California
//
// BOINC is free software; you can redistribute it and/or modify it
// under the terms of the GNU Lesser General Public License
// as published by the Free Software Foundation,
// either version 3 of the License, or (at your option) any later version.
//
// BOINC is distributed in the hope that it will be useful,
// but WITHOUT ANY WARRANTY; without even the implied warranty of
// MERCHANTABILITY or FITNESS FOR A PARTICULAR PURPOSE.
// See the GNU Lesser General Public License for more details.
//
// You should have received a copy of the GNU Lesser General Public License
// along with BOINC.  If not, see <http://www.gnu.org/licenses/>.
