/* XPM */
static const char *boincdisconnect_macmenubar_dark_xpm[] = {
/* columns rows colors chars-per-pixel */
"64 64 225 2 ",
"   c None",
".  c black",
"X  c #010000",
"o  c #020000",
"O  c #000202",
"+  c #050000",
"@  c #060000",
"#  c #050202",
"$  c #030404",
"%  c gray2",
"&  c #040707",
"*  c #080000",
"=  c #080101",
"-  c #0A0000",
";  c #0B0000",
":  c #0C0000",
">  c #0E0000",
",  c #0F0000",
"<  c #080404",
"1  c #0C0707",
"2  c #06060A",
"3  c #030808",
"4  c #010A0A",
"5  c #050909",
"6  c #06090B",
"7  c #070B0B",
"8  c #020C0C",
"9  c #090B0B",
"0  c #0C0F0F",
"q  c #110000",
"w  c #120000",
"e  c #130000",
"r  c #150000",
"t  c #160000",
"y  c #100505",
"u  c #180000",
"i  c #1C0000",
"p  c #1F0000",
"a  c #000A12",
"s  c #000D13",
"d  c #051212",
"f  c #0F1111",
"g  c #0A1414",
"h  c #0D1717",
"j  c #00111F",
"k  c #0F1719",
"l  c #0A1818",
"z  c #0D1A1A",
"x  c #0B1D1E",
"c  c #111717",
"v  c #121A1A",
"b  c #121B1B",
"n  c #131D1D",
"m  c #151D1D",
"M  c #1A1E1E",
"N  c #200000",
"B  c #210000",
"V  c #230000",
"C  c #280000",
"Z  c #290000",
"A  c #2B0000",
"S  c #2E0000",
"D  c #310000",
"F  c #320000",
"G  c #360000",
"H  c #370000",
"J  c #390000",
"K  c #3A0000",
"L  c #3D0000",
"P  c #001221",
"I  c #001325",
"U  c #001526",
"Y  c #011A30",
"T  c #132020",
"R  c #172020",
"E  c #132028",
"W  c #1A2828",
"Q  c #23272E",
"!  c #202929",
"~  c #222C2B",
"^  c #202830",
"/  c #293030",
"(  c #283131",
")  c #2B3434",
"_  c #333E3E",
"`  c #3B3D3D",
"'  c #393E3E",
"]  c #393F3F",
"[  c #3A3F3F",
"{  c #460000",
"}  c #470000",
"|  c #480000",
" . c #490000",
".. c #4B0000",
"X. c #4E0000",
"o. c #4F0000",
"O. c #540000",
"+. c #560000",
"@. c #570000",
"#. c #5C0000",
"$. c #5F0000",
"%. c #600000",
"&. c #640000",
"*. c #690000",
"=. c #6B0000",
"-. c #6C0000",
";. c #710000",
":. c #720000",
">. c #750000",
",. c #770000",
"<. c #780000",
"1. c #7F0000",
"2. c #082B49",
"3. c #293743",
"4. c #2B3A4D",
"5. c #3B4544",
"6. c #3E4646",
"7. c #404848",
"8. c #4B4F4E",
"9. c #4C5050",
"0. c #4E5656",
"q. c #545858",
"w. c #566876",
"e. c #586B7A",
"r. c #5C6A79",
"t. c #697070",
"y. c #6F7373",
"u. c #747878",
"i. c #747A7A",
"p. c #7A7F7F",
"a. c #810000",
"s. c #820000",
"d. c #830000",
"f. c #850000",
"g. c #8B0000",
"h. c #8E0000",
"j. c #920000",
"k. c #9D0000",
"l. c #9E0000",
"z. c #A50000",
"x. c #A60000",
"c. c #A80000",
"v. c #A90000",
"b. c #AA0000",
"n. c #AB0000",
"m. c #AD0000",
"M. c #B00000",
"N. c #B10000",
"B. c #B30000",
"V. c #B50000",
"C. c #B80000",
"Z. c #BB0000",
"A. c #BE0000",
"S. c #C70000",
"D. c #C80000",
"F. c #CA0000",
"G. c #CF0000",
"H. c #D10000",
"J. c #D40000",
"K. c #D50000",
"L. c #D60000",
"P. c #D90000",
"I. c #DC0000",
"U. c #DD0000",
"Y. c #E10000",
"T. c #E40000",
"R. c #E50000",
"E. c #E80000",
"W. c #E90000",
"Q. c #EB0000",
"!. c #EC0000",
"~. c #EE0000",
"^. c #EF0000",
"/. c #F00000",
"(. c #F20000",
"). c #F30000",
"_. c #F40000",
"`. c #F50000",
"'. c #F60000",
"]. c #F70000",
"[. c #F80000",
"{. c #F90000",
"}. c #FA0000",
"|. c #FB0000",
" X c #FC0000",
".X c red",
"XX c #75818D",
"oX c #758696",
"OX c #768796",
"+X c #7C8793",
"@X c #8D9091",
"#X c #89939D",
"$X c #929696",
"%X c #9B9E9E",
"&X c #949BA0",
"*X c #9CA0A0",
"=X c #9DADBB",
"-X c #A4A7A7",
";X c #A6A7A7",
":X c #ACAEAE",
">X c #BCBDBD",
",X c #ACB4C0",
"<X c #B4BCC5",
"1X c #BBBFC6",
"2X c #BCC3CA",
"3X c #C2C3C3",
"4X c #CBCBCB",
"5X c #D0D0D0",
"6X c #D5D5D5",
"7X c #D7D7D7",
"8X c #D3D5D8",
"9X c #DADBDB",
"0X c gray86",
"qX c gray87",
"wX c #D8DDE1",
"eX c #DADCE0",
"rX c #E1E1E2",
"tX c gray89",
"yX c #E4E5E6",
"uX c #E5E5E6",
"iX c #E6E6E6",
"pX c #E6E7E7",
"aX c #E7E7E7",
"sX c gray91",
"dX c #F4F4F4",
/* pixels */
"        sXsX                                                                                                        sXsX        ",
"      sXsXsXsX                                                                                                    sXsXsXsX      ",
"    sXsXsXsXsXsX                                                                                                sXsXsXsXsXsX    ",
"  sXsXsXsXsXsXsXsX                                                                                            sXsXsXsXsXsXsXsX  ",
"sXsXsXsXsXsXsXsXsXsX                                                                                        sXsXsXsXsXsXsXsXsXsX",
"sXsXsXsXsXsXsXsXsXsXsX                                                                                    sXsXsXsXsXsXsXsXsXsXsX",
"sXsXsXsXsXsXsXsXsXsXsXsX                                                                                sXsXsXsXsXsXsXsXsXsXsXsX",
"  sXsXsXsXsXsXsXsXsXsXsXsX                            sXsXsXsXsXsXsXsXsXsX                            sXsXsXsXsXsXsXsXsXsXsXsX  ",
"    sXsXsXsXsXsXsXsXsXsXsXsX                  sXsXsXsXsXsXsXsXsXsXsXsXsXsXsXsXsX                    sXsXsXsXsXsXsXsXsXsXsXsX    ",
"      sXsXsXsXsXsXsXsXsXsXsXsX            sXsXsXsXsXsXsXsXsXsXsXsXsXsXsXsXsXsXsXsXsX              sXsXsXsXsXsXsXsXsXsXsXsX      ",
"        sXsXsXsXsXsXsXsXsXsXsXsX      sXsXsXsXsXsXsXsXsXsXsXsXsXsXsXsXsXsXsXsXsXsXsX            sXsXsXsXsXsXsXsXsXsXsXsX        ",
"          sXsXsXsXsXsXsXsXsXsXsXsXsXsXsXsXsXsXsXsXsXsXsXsXsXsXsXsXsXsXsXsXsXsXsXsX            sXsXsXsXsXsXsXsXsXsXsXsX          ",
"            sXsXsXsXsXsXsXsXsXsXsXsXsXsXsXsXsXsXsXsXsXsXsXsXsXsXsXsXsXsXsXsXsXsX            sXsXsXsXsXsXsXsXsXsXsXsX            ",
"              sXsXsXsXsXsXsXsXsXsXsXsXsXsXsXsXsXsXsXsXsXsXsXsXsXsXsXsXsXsXsXsX            sXsXsXsXsXsXsXsXsXsXsXsX              ",
"                sXsXsXsXsXsXsXsXsXsXsXsXsXsXsXsXsXsXsXsXsXsXsXsXsXsXsXsXsXsX            sXsXsXsXsXsXsXsXsXsXsXsX                ",
"                  sXsXsXsXsXsXsXsXsXsXsXsXsXsXsXsXsXsXsX                              sXsXsXsXsXsXsXsXsXsXsXsX                  ",
"                      sXsXsXsXsXsXsXsXsXsXsXsXsXsX                                  sXsXsXsXsXsXsXsXsXsXsXsX                    ",
"                        sXsXsXsXsXsXsXsXsXsXsX                                    sXsXsXsXsXsXsXsXsXsXsXsX                      ",
"                          sXsXsXsXsXsXsXsXsX                                        sXsXsXsXsXsXsXsXsXsXsX                      ",
"                            sXsXsXsXsXsX                                                sXsXsXsXsXsXsXsXsXsX                    ",
"                              sXsXsXsX                    sXsXsXsXsX                      sXsXsXsXsXsXsXsXsX                    ",
"                                sXsX                  sXsXsXsXsXsXsXsXsXsX                  sXsXsXsXsXsXsXsXsX                  ",
"                  dX              sX              sXsXsXsXsXsXsXsXsXsXsXsXsXsX              sXsXsXsXsXsXsXsXsX                  ",
"                sXsXsX                          sXsXsXsXsXsXsXsXsXsXsXsXsXsXsXsX              sXsXsXsXsXsXsXsXsX                ",
"                sXsXsXsX                      sXsXsXsXsXsXsXsXsXsXsXsXsXsXsXsXsXsX            sXsXsXsXsXsXsXsXsX                ",
"                sXsXsXsXsX                  sXsXsXsXsXsXsXsXsXsXsXsXsXsXsXsXsXsXsXsX            sXsXsXsXsXsXsXsX                ",
"              sXsXsXsXsXsXsX                sXsXsXsXsXsXsXsXsXsXsXsXsXsXsXsXsXsXsXsX            sXsXsXsXsXsXsXsX                ",
"              sXsXsXsXsXsXsXsX            sXsXsXsXsXsXsXsXsXsXsXsXsXsXsXsXsXsXsX9X4X-Xf l W l s 3.+X,X8XsXsXsXsXsX              ",
"              sXsXsXsXsXsXsXsX            sXsXsXsXsXsXsXsXsXsXsXsXsXsXsXsXsX4X$X7.$ q F | | | { F q $ ^ e.1XsXsXsX              ",
"              sXsXsXsXsXsXsXsX            sXsXsXsXsXsXsXsXsXsXsXsXsXsXsX6Xy.M q -.N.U.W..X.X.X).W.U.n.&.q k @X6XsX              ",
"              sXsXsXsXsXsXsXsX          sXsXsXsXsXsXsXsXsXsXsXsXsXsXrX-Xc Z j.W..X.X.X.X.X.X.X.X.X.X.X.XR.f.p / >X              ",
"              sXsXsXsXsXsXsXsX          sXsXsXsXsXsXsXsXsXsXsXsXsXrXp.$ :.W..X.X.X.X.X.X.X.X.X.X.X.X.X.X.X.XU.$.3 0.            ",
"              sXsXsXsXsXsXsXsX          sXsXsXsXsXsXsXsXsXsXsXsX9Xq.q n..X.X.X.X.X.X.X.X.X.X.X.X.X.X.X.X.X.X.X.Xh.$ '           ",
"              sXsXsXsXsXsXsXsX          sXsXsXsXsXsXsXsXsXsXsXrX0.p G..X.X.X.X.X.X.X.X.X.X.X.X.X.X.X.X.X.X.X.X.X.Xn.$ '         ",
"              sXsXsXsXsXsXsXsX            sXsXsXsXsXsXsXsXsXsXi., G..X.X.X.X.X.X.X.X.X.X.X.X.X.X.X.X.X.X.X.X.X.X.X.Xx.$         ",
"              sXsXsXsXsXsXsXsX            sXsXsXsXsXsXsXsXsX:X$ x..X.X.X.X.X.X.X.X.X.X.X.X.X.X.X.X.X.X.X.X.X.X.X.X.X.Xf.$       ",
"              sXsXsXsXsXsXsXsX            sXsXsXsXsXsXsXsX6Xf :..X.X.X.X.X.X.X.X.X.X.X.X.X.X.X.X.X.X.X.X.X.X.X.X.X.X.X.X| b     ",
"              sXsXsXsXsXsXsXsX            sXsXsXsXsXsXsXsXi.V W..X.X.X.X.X.X.X.X.X.X.X.X.X.X.X.X.X.X.X.X.X.X.X.X.X.X.X.XK.,     ",
"                sXsXsXsXsXsXsXsX            sXsXsXsXsXsX6Xb h..X.X.X.X.X.X.X.X.X.X.X.X.X.X.X.X.X.X.X.X.X.X.X.X.X.X.X.X.X.X-.d   ",
"                sXsXsXsXsXsXsXsX              sXsXsXsXsX%Xq W..X.X.X.X.X.X.X.X.X.X.X.X.X.X.X.X.X.X.X.X.X.X.X.X.X.X.X.X.X.XG.$   ",
"                sXsXsXsXsXsXsXsXsX            sXsXsXsXrX6.&..X.X.X.X.X.X.X.X.X.X.X.X.X.X.X.X.X.X.X.X.X.X.X.X.X.X.X.X.X.X.X.XK _ ",
"                  sXsXsXsXsXsXsXsX                sXsX9X$ n..X.X.X.X.X.X.X.X.X.X.X.X.X.X.X.X.X.X.X.X.X.X.X.X.X.X.X.X.X.X.X.Xf.b ",
"                  sXsXsXsXsXsXsXsXsX                sX#Xq K..X.X.X.X.X.X.X.X.X.X.X.X.X.X.X.X.X.X.X.X.X.X.X.X.X.X.X.X.X.X.X.XN.3 ",
"                  sXsXsXsXsXsXsXsXsXsX                4.Z W..X.X.X.X.X.X.X.X.X.X.X.X.X.X.X.X.X.X.X.X.X.X.X.X.X.X.X.X.X.X.X.XU., ",
"                    sXsXsXsXsXsXsXsXsXsX              I K )..X.X.X.X.X.X.X.X.X.X.X.X.X.X.X.X.X.X.X.X.X.X.X.X.X.X.X.X.X.X.X.XW.q ",
"                      sXsXsXsXsXsXsXsXsXsX            j | .X.X.X.X.X.X.X.X.X.X.X.X.X.X.X.X.X.X.X.X.X.X.X.X.X.X.X.X.X.X.X.X.X).V ",
"                      sXsXsXsXsXsXsXsXsXsXsX          I { .X.X.X.X.X.X.X.X.X.X.X.X.X.X.X.X.X.X.X.X.X.X.X.X.X.X.X.X.X.X.X.X.X).V ",
"                    sXsXsXsXsXsXsXsXsXsXsXsX          I K )..X.X.X.X.X.X.X.X.X.X.X.X.X.X.X.X.X.X.X.X.X.X.X.X.X.X.X.X.X.X.X.XW., ",
"                  sXsXsXsXsXsXsXsXsXsXsXsX            Y Z R..X.X.X.X.X.X.X.X.X.X.X.X.X.X.X.X.X.X.X.X.X.X.X.X.X.X.X.X.X.X.X.XK.$ ",
"                sXsXsXsXsXsXsXsXsXsXsXsX              XXq G..X.X.X.X.X.X.X.X.X.X.X.X.X.X.X.X.X.X.X.X.X.X.X.X.X.X.X.X.X.X.X.Xn.9 ",
"              sXsXsXsXsXsXsXsXsXsXsXsX              sX<X$ l..X.X.X.X.X.X.X.X.X.X.X.X.X.X.X.X.X.X.X.X.X.X.X.X.X.X.X.X.X.X.X.X:.b ",
"            sXsXsXsXsXsXsXsXsXsXsXsX              sXsXeXQ O..X.X.X.X.X.X.X.X.X.X.X.X.X.X.X.X.X.X.X.X.X.X.X.X.X.X.X.X.X.X.X).Z 6.",
"          sXsXsXsXsXsXsXsXsXsXsXsX              sXsXsXsX&X, U..X.X.X.X.X.X.X.X.X.X.X.X.X.X.X.X.X.X.X.X.X.X.X.X.X.X.X.X.X.XA.,   ",
"        sXsXsXsXsXsXsXsXsXsXsXsX              sXsXsXsXsXrX~ :..X.X.X.X.X.X.X.X.X.X.X.X.X.X.X.X.X.X.X.X.X.X.X.X.X.X.X.X.X.XO.s   ",
"      sXsXsXsXsXsXsXsXsXsXsXsX              sXsXsXsXsXsXsX*X, K..X.X.X.X.X.X.X.X.X.X.X.X.X.X.X.X.X.X.X.X.X.X.X.X.X.X.X.XA.$ 2.  ",
"    sXsXsXsXsXsXsXsXsXsXsXsX                sXsXsXsXsXsXsXrX/ O..X.X.X.X.X.X.X.X.X.X.X.X.X.X.X.X.X.X.X.X.X.X.X.X.X.X.X).F E     ",
"  sXsXsXsXsXsXsXsXsXsXsXsX                        sXsXsXsXsX3X9 1..X.X.X.X.X.X.X.X.X.X.X.X.X.X.X.X.X.X.X.X.X.X.X.X.X.X$.3 =XdX  ",
"sXsXsXsXsXsXsXsXsXsXsXsX                                      y.$ x..X.X.X.X.X.X.X.X.X.X.X.X.X.X.X.X.X.X.X.X.X.X.X.Xf.$ OXrXsXsX",
"sXsXsXsXsXsXsXsXsXsXsX                                          ' $ l..X.X.X.X.X.X.X.X.X.X.X.X.X.X.X.X.X.X.X.X.X.Xf.$ e.rXsXsXsX",
"sXsXsXsXsXsXsXsXsXsX                                              ' $ :..X.X.X.X.X.X.X.X.X.X.X.X.X.X.X.X.X.X.XW.$.$ w.eXsXsXsXsX",
"  sXsXsXsXsXsXsXsX                                                    3 | S..X.X.X.X.X.X.X.X.X.X.X.X.X.X.X.XN.Z 2 OXrXsXsXsXsX  ",
"    sXsXsXsXsXsX                                                        b , $.A..X.X.X.X.X.X.X.X.X.X.X.Xn.| $ 8.2XsXsXsXsXsX    ",
"      sXsXsXsX                                                              l q F 1.N.K.R.W.W.R.K.n.-.Z , R       sXsXsXsXsX    ",
"        sXsX                                                                    / f 3 $ p V V q $ 3 R ~             sXsXsX      "
};
