/* XPM */
static const char *boincsnooze_xpm[] = {
/* columns rows colors chars-per-pixel */
"16 16 39 1",
"4 c #FFCC33",
"o c None",
"7 c #FFC62E",
"8 c #FFC32B",
"w c #FFC32C",
"@ c #1E4D78",
"p c #1E4D79",
"X c #1E4A74",
"# c #1E4A75",
"$ c #1E4770",
"+ c #1E4771",
"r c #1E446D",
"; c #1E446E",
": c #1E4169",
"> c #1E3E66",
"q c #32485E",
"9 c #FFCB32",
"0 c #948649",
"1 c #FFC52D",
"6 c #FFC52E",
"< c #FFC22B",
", c #FFBF28",
". c #1E4C77",
"u c #1E4C78",
"a c #1E4974",
"= c #1E466F",
"O c #1E4670",
"t c #1E436C",
"% c #1E436D",
"i c #8E834B",
"y c #1E4068",
"* c #1E4069",
"- c #1E3D65",
"5 c #1E3D66",
"3 c #FFCA31",
"2 c #FFBE28",
"e c #A99645",
"  c #1E4E79",
"& c #1E3C64",
/* pixels */
" .XoooooooooooO+",
"@#$%oo&&&&ooo*%=",
"#+%*&&&&&&&o&-*%",
"o;:-&&&&&&&&&&-o",
"oo>&&&&ooo&&&&oo",
"o>-&&,<11<2&&&&o",
"o>&&o<3443<o&&&o",
"o5&&26444412&&&o",
"o5&&27444462&&&o",
"o>&&o89440q&&&&&",
"o>&&&,w77q&e&e&&",
"oo-&&&o22&&4&4&&",
"or*-&&&&&&&4&4&&",
"#+ty&&&&&&&4&4&&",
"uXOtoo&&&&&i&i&&",
"p.aoooooo&&&&&&&"
};
// This file is part of BOINC.
// http://boinc.berkeley.edu
// Copyright (C) 2013-2014 University of California
//
// BOINC is free software; you can redistribute it and/or modify it
// under the terms of the GNU Lesser General Public License
// as published by the Free Software Foundation,
// either version 3 of the License, or (at your option) any later version.
//
// BOINC is distributed in the hope that it will be useful,
// but WITHOUT ANY WARRANTY; without even the implied warranty of
// MERCHANTABILITY or FITNESS FOR A PARTICULAR PURPOSE.
// See the GNU Lesser General Public License for more details.
//
// You should have received a copy of the GNU Lesser General Public License
// along with BOINC.  If not, see <http://www.gnu.org/licenses/>.
