/* XPM */
static const char *boincdisconnect_xpm[] = {
/* columns rows colors chars-per-pixel */
"16 16 104 2",
" . c #1F4973",
"x  c #FFCC33",
"$  c Black",
"|  c #430204",
"z  c #FFC930",
"+  c #1D4F7B",
".  c #1D4F7C",
"-  c #1D4973",
"K  c #480000",
"L  c #DC0000",
"f  c #FFC02A",
"X  c None",
"s  c #224466",
"A  c #997319",
"H  c #1D3D64",
"[  c #1D3A65",
"T  c #1B4065",
")  c #2F0F19",
"&. c #1A1B2B",
"%. c #310000",
"=  c #1C4D78",
"4  c #1E416A",
":  c #1E416B",
"g  c #FEC42C",
"Q  c #FA0000",
"r  c #1E3E66",
"D  c #400305",
"l  c #FEC129",
"1  c #1E3B63",
"(  c #1E3B64",
"F  c #320A11",
"7  c #1F4E77",
"/  c #00007F",
"}  c #BF0000",
"O. c #7A0407",
"c  c #FFC830",
"p  c #1C3867",
"b  c #1F3F5F",
"J  c #A57D1A",
"#  c #1D4872",
"{  c #2C131F",
"B  c #1F3F6F",
"I  c #F40000",
"9  c #1D426B",
"8  c #1B486D",
"~  c #1B486E",
"i  c #1D3C63",
"q  c #1D3C64",
"&  c #1E4C77",
"@  c #1E4C78",
"]  c #1E4974",
";  c #1E466F",
"u  c #193F66",
"`  c #6D0000",
"!  c #470000",
"M  c #FEC32C",
"C  c #1E3D64",
"S  c #340000",
"h  c #FEC029",
"Y  c #210000",
"y  c #1C436B",
"P  c #FF0000",
"o. c #EC0000",
"R  c #1C3D64",
"N  c #193366",
"G  c #1F0000",
"'  c #1F4A7A",
"_  c #EA0000",
".. c #430000",
"m  c #FFC42D",
"Z  c #2A2A55",
"V  c #1A375C",
"%  c #1D4773",
"E  c #2E0306",
"U  c #8B0000",
"k  c #1F3B65",
"W  c #C20000",
"t  c #1D416A",
"d  c #24365B",
"a  c #1D3B63",
"j  c #1D3B64",
"$. c #2C0000",
"*  c #1E4E79",
"   c #1C547F",
"@. c #1E4B78",
"6  c #1E4873",
"5  c #1E456F",
"#. c #1C4E7C",
"^  c #1E426B",
"e  c #007F7F",
"X. c #CF0000",
"0  c #1E3F67",
"w  c #1E3C62",
"2  c #1E3C63",
"<  c #1E3C64",
"n  c #1E3C65",
"v  c #FEBF2A",
">  c #333366",
"3  c #1C3F63",
"*. c #154163",
"o  c #1F4F79",
"+. c #202438",
"O  c #1F4F7F",
",  c #1C3C62",
/* pixels */
"  . X X X X X X X X X X X X o O ",
"+ @ # $ X X X X X X X X X % & * ",
"= - ; : > , < 1 1 2 3 X 4 5 6 7 ",
"X 8 9 0 q < 2 < 1 w e 1 r t y X ",
"X X u < < i p X X X a < < < X X ",
"X X s d < X f g g h X j < i X X ",
"X X q k X l z x x c v b < < X X ",
"X b n 2 X m x x x x M X < < N X ",
"X B n q X m x x x x M X V < N X ",
"X X C q Z l z x x c A S D F G $ ",
"X X H < i X f g g J K L P I U Y ",
"X X T < < R X X X E W P P P Q ! ",
"X ~ ^ 0 < / a 1 ( ) _ P P P P ` ",
"' ] ; 4 X [ 2 < < { } P P P Q | ",
"+ &  .X X X X X X $ ..X.P o.O.+.",
"@.#.X X X X X X X X $ $.%.%.&.*."
};

// This file is part of BOINC.
// http://boinc.berkeley.edu
// Copyright (C) 2013-2014 University of California
//
// BOINC is free software; you can redistribute it and/or modify it
// under the terms of the GNU Lesser General Public License
// as published by the Free Software Foundation,
// either version 3 of the License, or (at your option) any later version.
//
// BOINC is distributed in the hope that it will be useful,
// but WITHOUT ANY WARRANTY; without even the implied warranty of
// MERCHANTABILITY or FITNESS FOR A PARTICULAR PURPOSE.
// See the GNU Lesser General Public License for more details.
//
// You should have received a copy of the GNU Lesser General Public License
// along with BOINC.  If not, see <http://www.gnu.org/licenses/>.
