/* XPM */
static char *boincsnooze_xpm[] = {
/* columns rows colors chars-per-pixel */
"16 16 105 2",
"A  c #FFCC33",
"~  c #355075",
"Z  c #FFC931",
"/  c #FFFFF2",
"Y  c #1F3D63",
"R  c #1F3D65",
"!  c #566057",
"L  c #29456C",
"o. c #2E496E",
"s  c #24416D",
"X  c None",
"x  c #BCC5D2",
"d  c #9CAABD",
"M  c #40597A",
"|  c #1E4D79",
"%. c #15557F",
"w  c #203E65",
"y  c #254267",
"t  c #254268",
"P  c #E0E8E8",
"J  c #FEC42E",
"n  c #FEC42F",
":  c #284971",
"q  c #1E3E67",
"$  c #1C4771",
"C  c #FEC435",
"3  c #2D4A6F",
"=. c #2D4A70",
"k  c #1E3B63",
"u  c #3C5678",
"D  c #FEC43D",
"W  c #E3ECEC",
"z  c #B6BFCE",
"}  c #213F66",
"f  c #264369",
"+  c #1D4E75",
"S  c #FFC830",
"+. c #1D4E7B",
">  c #D7DEE4",
" . c #1D4873",
"*  c #1D4874",
"*. c #2E4B6F",
"X. c #8091A9",
")  c #56718F",
"1  c #244068",
"]  c #425B7C",
"9  c #2C5177",
"'  c #1D426B",
"%  c #1D426D",
",  c #4C6384",
"r  c #1D3C63",
"E  c #224067",
"B  c #224068",
"6  c #27446B",
"<  c #2C486D",
"@  c #1E4F7A",
"U  c #817D54",
"4  c #929EB2",
"@. c #1E4C76",
"#  c #1E4C77",
"#. c #1E4971",
"-  c #1E4973",
"&  c #1E4670",
"^  c #3E587B",
"F  c #B8C4D1",
"h  c #9FAABB",
"K  c #FEC32F",
"a  c #1E3D65",
"   c #214D79",
"m  c #FEC63C",
"[  c #324D71",
"$. c #646954",
"g  c #375174",
"N  c #E8EFEF",
"0  c #21446D",
"c  c #506586",
"=  c #1F4A76",
"l  c #7888A0",
"O. c #264268",
".  c #1D507B",
"2  c #244268",
"G  c #8A9BB0",
"T  c #2E4A6E",
"H  c #334E72",
"p  c #314E71",
"_  c #687D98",
"O  c #1E4872",
"V  c #687A97",
"5  c #F6F6F6",
";  c #1E456F",
"j  c #526A87",
"8  c #1E426B",
"7  c #1E3F68",
".. c #325278",
"b  c #FEC536",
"Q  c #1E3C63",
"(  c #FEC538",
"e  c #1E3C64",
"{  c #234068",
"`  c #264D73",
"o  c #FEFEFE",
"I  c #324C71",
"&. c #1F4F78",
"i  c #EDF2F2",
"v  c #FEF2E7",
/* pixels */
"  . X X X X X o X o X X X X O + ",
"@ # $ X o o X o o o o X X % & * ",
"= - ; : > , < 1 2 3 4 5 6 7 8 * ",
"X 9 0 q w e r t y u i p e a s X ",
"X o d f e g h o o o j e k l o X ",
"X o z x c v b n n m o g e M o X ",
"o N B V o C Z A A S D F a t o X ",
"X G e H X J A A A A K o L k P o ",
"X G e I X J A A A U Y e e e e T ",
"o N R E W b Z A A Q e ! e ! e e ",
"X o ~ e ^ / ( n K e e A e A e e ",
"X o ) e e _ o X o e e A e A e e ",
"X ` ' q ] i [ { } e e A e A e e ",
"|  .; ..o X.o.O.f e e A e A e e ",
"+.@.#.X o o X o o e e $.e $.e e ",
"%.&.X X X X o o X *.e e e e e =."
};
// This file is part of BOINC.
// http://boinc.berkeley.edu
// Copyright (C) 2013-2014 University of California
//
// BOINC is free software; you can redistribute it and/or modify it
// under the terms of the GNU Lesser General Public License
// as published by the Free Software Foundation,
// either version 3 of the License, or (at your option) any later version.
//
// BOINC is distributed in the hope that it will be useful,
// but WITHOUT ANY WARRANTY; without even the implied warranty of
// MERCHANTABILITY or FITNESS FOR A PARTICULAR PURPOSE.
// See the GNU Lesser General Public License for more details.
//
// You should have received a copy of the GNU Lesser General Public License
// along with BOINC.  If not, see <http://www.gnu.org/licenses/>.
