/* XPM */
static const char *boincdisconnect_macmenubar_xpm[] = {
/* columns rows colors chars-per-pixel */
"64 64 224 2 ",
"   c None",
".  c black",
"X  c #010000",
"o  c #000101",
"O  c #010101",
"+  c #020000",
"@  c #000202",
"#  c #010303",
"$  c #050000",
"%  c #060000",
"&  c #050202",
"*  c #010105",
"=  c #020505",
"-  c #010406",
";  c #030707",
":  c #080000",
">  c #080101",
",  c #0A0000",
"<  c #0B0000",
"1  c #0C0000",
"2  c #0E0000",
"3  c #0F0000",
"4  c #080404",
"5  c #0C0707",
"6  c #020808",
"7  c #030808",
"8  c #010A0A",
"9  c #050909",
"0  c #020C0C",
"q  c #030D0D",
"w  c #050D0F",
"e  c #0C0F0F",
"r  c #110000",
"t  c #120000",
"y  c #130000",
"u  c #150000",
"i  c #160000",
"p  c #100505",
"a  c #180000",
"s  c #1C0000",
"d  c #1F0000",
"f  c #000A12",
"g  c #050810",
"h  c #000D13",
"j  c #050D15",
"k  c #051212",
"l  c #0C1010",
"z  c #0C1313",
"x  c #0A1413",
"c  c #0A1414",
"v  c #0D1717",
"b  c #0F1717",
"n  c #031018",
"m  c #00111F",
"M  c #0A1818",
"N  c #0D1A1A",
"B  c #0B1D1E",
"V  c #121A1A",
"C  c #131D1D",
"Z  c #141D1D",
"A  c #151D1D",
"S  c #200000",
"D  c #210000",
"F  c #230000",
"G  c #280000",
"H  c #290000",
"J  c #2B0000",
"K  c #2E0000",
"L  c #310000",
"P  c #320000",
"I  c #360000",
"U  c #370000",
"Y  c #390000",
"T  c #3A0000",
"R  c #3D0000",
"E  c #001221",
"W  c #061420",
"Q  c #001325",
"!  c #001526",
"~  c #061628",
"^  c #0E1C2A",
"/  c #131E2B",
"(  c #151F2C",
")  c #011A30",
"_  c #0E202F",
"`  c #0F212F",
"'  c #132020",
"]  c #172020",
"[  c #192121",
"{  c #1F2124",
"}  c #1F2225",
"|  c #1F2626",
" . c #1D242D",
".. c #1A2828",
"X. c #142634",
"o. c #142635",
"O. c #1D2530",
"+. c #1A2A38",
"@. c gray13",
"#. c #212122",
"$. c #212223",
"%. c #222222",
"&. c #232323",
"*. c #202727",
"=. c #252525",
"-. c gray15",
";. c #272727",
":. c #202529",
">. c #202929",
",. c #232828",
"<. c gray16",
"1. c #282E2E",
"2. c #2B2E2E",
"3. c #2C2D2D",
"4. c #2D2D2D",
"5. c #2F2F2F",
"6. c #262A31",
"7. c #212A34",
"8. c #2E3131",
"9. c #2D3232",
"0. c #2F3332",
"q. c #2B3434",
"w. c gray19",
"e. c #333334",
"r. c #343434",
"t. c #373737",
"y. c #353939",
"u. c #363A3A",
"i. c #363B3B",
"p. c #373B3B",
"a. c #32383D",
"s. c #333E3E",
"d. c #393A3A",
"f. c #383B3B",
"g. c #3B3D3D",
"h. c #393E3E",
"j. c #393F3F",
"k. c #3A3F3F",
"l. c #3C3D3D",
"z. c #460000",
"x. c #470000",
"c. c #480000",
"v. c #490000",
"b. c #4B0000",
"n. c #4E0000",
"m. c #4F0000",
"M. c #540000",
"N. c #560000",
"B. c #570000",
"V. c #5C0000",
"C. c #5F0000",
"Z. c #600000",
"A. c #640000",
"S. c #690000",
"D. c #6B0000",
"F. c #6C0000",
"G. c #710000",
"H. c #720000",
"J. c #750000",
"K. c #770000",
"L. c #780000",
"P. c #7F0000",
"I. c #082B49",
"U. c #323940",
"Y. c #3E4141",
"T. c #3B4544",
"R. c gray25",
"E. c #404141",
"W. c #810000",
"Q. c #820000",
"!. c #830000",
"~. c #850000",
"^. c #8B0000",
"/. c #8E0000",
"(. c #920000",
"). c #9D0000",
"_. c #9E0000",
"`. c #A50000",
"'. c #A60000",
"]. c #A80000",
"[. c #A90000",
"{. c #AA0000",
"}. c #AB0000",
"|. c #AD0000",
" X c #B00000",
".X c #B10000",
"XX c #B30000",
"oX c #B50000",
"OX c #B80000",
"+X c #BB0000",
"@X c #BE0000",
"#X c #C70000",
"$X c #C80000",
"%X c #CA0000",
"&X c #CF0000",
"*X c #D10000",
"=X c #D40000",
"-X c #D50000",
";X c #D60000",
":X c #D90000",
">X c #DC0000",
",X c #DD0000",
"<X c #E10000",
"1X c #E40000",
"2X c #E50000",
"3X c #E80000",
"4X c #E90000",
"5X c #EB0000",
"6X c #EC0000",
"7X c #EE0000",
"8X c #EF0000",
"9X c #F00000",
"0X c #F20000",
"qX c #F30000",
"wX c #F40000",
"eX c #F50000",
"rX c #F60000",
"tX c #F70000",
"yX c #F80000",
"uX c #F90000",
"iX c #FA0000",
"pX c #FB0000",
"aX c #FC0000",
"sX c red",
/* pixels */
"        @.@.                                                                                                        @.@.        ",
"      @.@.@.@.                                                                                                    @.@.@.@.      ",
"    @.@.@.@.@.@.                                                                                                @.@.@.@.@.@.    ",
"  @.@.@.@.@.@.@.@.                                                                                            @.@.@.@.@.@.@.@.  ",
"@.@.@.@.@.@.@.@.@.@.                                                                                        @.@.@.@.@.@.@.@.@.@.",
"@.@.@.@.@.@.@.@.@.@.@.                                                                                    @.@.@.@.@.@.@.@.@.@.@.",
"@.@.@.@.@.@.@.@.@.@.@.@.                                                                                @.@.@.@.@.@.@.@.@.@.@.@.",
"  @.@.@.@.@.@.@.@.@.@.@.@.                            @.@.@.@.@.@.@.@.@.@.                            @.@.@.@.@.@.@.@.@.@.@.@.  ",
"    @.@.@.@.@.@.@.@.@.@.@.@.                  @.@.@.@.@.@.@.@.@.@.@.@.@.@.@.@.@.                    @.@.@.@.@.@.@.@.@.@.@.@.    ",
"      @.@.@.@.@.@.@.@.@.@.@.@.            @.@.@.@.@.@.@.@.@.@.@.@.@.@.@.@.@.@.@.@.@.              @.@.@.@.@.@.@.@.@.@.@.@.      ",
"        @.@.@.@.@.@.@.@.@.@.@.@.      @.@.@.@.@.@.@.@.@.@.@.@.@.@.@.@.@.@.@.@.@.@.@.            @.@.@.@.@.@.@.@.@.@.@.@.        ",
"          @.@.@.@.@.@.@.@.@.@.@.@.@.@.@.@.@.@.@.@.@.@.@.@.@.@.@.@.@.@.@.@.@.@.@.@.            @.@.@.@.@.@.@.@.@.@.@.@.          ",
"            @.@.@.@.@.@.@.@.@.@.@.@.@.@.@.@.@.@.@.@.@.@.@.@.@.@.@.@.@.@.@.@.@.@.            @.@.@.@.@.@.@.@.@.@.@.@.            ",
"              @.@.@.@.@.@.@.@.@.@.@.@.@.@.@.@.@.@.@.@.@.@.@.@.@.@.@.@.@.@.@.@.            @.@.@.@.@.@.@.@.@.@.@.@.              ",
"                @.@.@.@.@.@.@.@.@.@.@.@.@.@.@.@.@.@.@.@.@.@.@.@.@.@.@.@.@.@.            @.@.@.@.@.@.@.@.@.@.@.@.                ",
"                  @.@.@.@.@.@.@.@.@.@.@.@.@.@.@.@.@.@.@.                              @.@.@.@.@.@.@.@.@.@.@.@.                  ",
"                      @.@.@.@.@.@.@.@.@.@.@.@.@.@.                                  @.@.@.@.@.@.@.@.@.@.@.@.                    ",
"                        @.@.@.@.@.@.@.@.@.@.@.                                    @.@.@.@.@.@.@.@.@.@.@.@.                      ",
"                          @.@.@.@.@.@.@.@.@.                                        @.@.@.@.@.@.@.@.@.@.@.                      ",
"                            @.@.@.@.@.@.                                                @.@.@.@.@.@.@.@.@.@.                    ",
"                              @.@.@.@.                    @.@.@.@.@.                      @.@.@.@.@.@.@.@.@.                    ",
"                                @.@.                  @.@.@.@.@.@.@.@.@.@.                  @.@.@.@.@.@.@.@.@.                  ",
"                  @.              @.              @.@.@.@.@.@.@.@.@.@.@.@.@.@.              @.@.@.@.@.@.@.@.@.                  ",
"                @.@.@.                          @.@.@.@.@.@.@.@.@.@.@.@.@.@.@.@.              @.@.@.@.@.@.@.@.@.                ",
"                @.@.@.@.                      @.@.@.@.@.@.@.@.@.@.@.@.@.@.@.@.@.@.            @.@.@.@.@.@.@.@.@.                ",
"                @.@.@.@.@.                  @.@.@.@.@.@.@.@.@.@.@.@.@.@.@.@.@.@.@.@.            @.@.@.@.@.@.@.@.                ",
"              @.@.@.@.@.@.@.                @.@.@.@.@.@.@.@.@.@.@.@.@.@.@.@.@.@.@.@.            @.@.@.@.@.@.@.@.                ",
"              @.@.@.@.@.@.@.@.            @.@.@.@.@.@.@.@.@.@.@.@.@.@.@.@.@.@.@.@.4.T.z M ..M g Q / O.} @.@.@.@.@.              ",
"              @.@.@.@.@.@.@.@.            @.@.@.@.@.@.@.@.@.@.@.@.@.@.@.@.@.4.a.} # r P c.c.c.z.P r # g ^ 7.@.@.@.              ",
"              @.@.@.@.@.@.@.@.            @.@.@.@.@.@.@.@.@.@.@.@.@.@.@.4.@.z r F..X,X4XsXsXsXqX4X,X}.A.r q a.@.@.              ",
"              @.@.@.@.@.@.@.@.          @.@.@.@.@.@.@.@.@.@.@.@.@.@.@.f.q H (.4XsXsXsXsXsXsXsXsXsXsXsXsX2X~.d z f.              ",
"              @.@.@.@.@.@.@.@.          @.@.@.@.@.@.@.@.@.@.@.@.@.4.8.# H.4XsXsXsXsXsXsXsXsXsXsXsXsXsXsXsXsX,XC.# a.            ",
"              @.@.@.@.@.@.@.@.          @.@.@.@.@.@.@.@.@.@.@.@.4.,.r }.sXsXsXsXsXsXsXsXsXsXsXsXsXsXsXsXsXsXsXsX/.# f.          ",
"              @.@.@.@.@.@.@.@.          @.@.@.@.@.@.@.@.@.@.@.4.} d &XsXsXsXsXsXsXsXsXsXsXsXsXsXsXsXsXsXsXsXsXsXsX}.# f.        ",
"              @.@.@.@.@.@.@.@.            @.@.@.@.@.@.@.@.@.@.4.3 &XsXsXsXsXsXsXsXsXsXsXsXsXsXsXsXsXsXsXsXsXsXsXsXsX'.#         ",
"              @.@.@.@.@.@.@.@.            @.@.@.@.@.@.@.@.@.R.# '.sXsXsXsXsXsXsXsXsXsXsXsXsXsXsXsXsXsXsXsXsXsXsXsXsXsX~.#       ",
"              @.@.@.@.@.@.@.@.            @.@.@.@.@.@.@.@.t.# H.sXsXsXsXsXsXsXsXsXsXsXsXsXsXsXsXsXsXsXsXsXsXsXsXsXsXsXsXc.Z     ",
"              @.@.@.@.@.@.@.@.            @.@.@.@.@.@.@.@.4.F 4XsXsXsXsXsXsXsXsXsXsXsXsXsXsXsXsXsXsXsXsXsXsXsXsXsXsXsXsX-X3     ",
"                @.@.@.@.@.@.@.@.            @.@.@.@.@.@.t.q /.sXsXsXsXsXsXsXsXsXsXsXsXsXsXsXsXsXsXsXsXsXsXsXsXsXsXsXsXsXsXF.k   ",
"                @.@.@.@.@.@.@.@.              @.@.@.@.@.f.r 4XsXsXsXsXsXsXsXsXsXsXsXsXsXsXsXsXsXsXsXsXsXsXsXsXsXsXsXsXsXsX&X#   ",
"                @.@.@.@.@.@.@.@.@.            @.@.@.@.@.Z A.sXsXsXsXsXsXsXsXsXsXsXsXsXsXsXsXsXsXsXsXsXsXsXsXsXsXsXsXsXsXsXsXT a.",
"                  @.@.@.@.@.@.@.@.                @.@.R.# }.sXsXsXsXsXsXsXsXsXsXsXsXsXsXsXsXsXsXsXsXsXsXsXsXsXsXsXsXsXsXsXsX~.Z ",
"                  @.@.@.@.@.@.@.@.@.                @.7.r -XsXsXsXsXsXsXsXsXsXsXsXsXsXsXsXsXsXsXsXsXsXsXsXsXsXsXsXsXsXsXsXsX.Xq ",
"                  @.@.@.@.@.@.@.@.@.@.                ~ H 4XsXsXsXsXsXsXsXsXsXsXsXsXsXsXsXsXsXsXsXsXsXsXsXsXsXsXsXsXsXsXsXsX,X3 ",
"                    @.@.@.@.@.@.@.@.@.@.              Q T qXsXsXsXsXsXsXsXsXsXsXsXsXsXsXsXsXsXsXsXsXsXsXsXsXsXsXsXsXsXsXsXsX4Xr ",
"                      @.@.@.@.@.@.@.@.@.@.            m c.sXsXsXsXsXsXsXsXsXsXsXsXsXsXsXsXsXsXsXsXsXsXsXsXsXsXsXsXsXsXsXsXsXqXF ",
"                      @.@.@.@.@.@.@.@.@.@.@.          Q z.sXsXsXsXsXsXsXsXsXsXsXsXsXsXsXsXsXsXsXsXsXsXsXsXsXsXsXsXsXsXsXsXsXqXF ",
"                    @.@.@.@.@.@.@.@.@.@.@.@.          Q T qXsXsXsXsXsXsXsXsXsXsXsXsXsXsXsXsXsXsXsXsXsXsXsXsXsXsXsXsXsXsXsXsX4X3 ",
"                  @.@.@.@.@.@.@.@.@.@.@.@.            ) H 2XsXsXsXsXsXsXsXsXsXsXsXsXsXsXsXsXsXsXsXsXsXsXsXsXsXsXsXsXsXsXsXsX-X# ",
"                @.@.@.@.@.@.@.@.@.@.@.@.              / r &XsXsXsXsXsXsXsXsXsXsXsXsXsXsXsXsXsXsXsXsXsXsXsXsXsXsXsXsXsXsXsXsX}.e ",
"              @.@.@.@.@.@.@.@.@.@.@.@.              @. .# _.sXsXsXsXsXsXsXsXsXsXsXsXsXsXsXsXsXsXsXsXsXsXsXsXsXsXsXsXsXsXsXsXH.Z ",
"            @.@.@.@.@.@.@.@.@.@.@.@.              @.@.} g M.sXsXsXsXsXsXsXsXsXsXsXsXsXsXsXsXsXsXsXsXsXsXsXsXsXsXsXsXsXsXsXqXH T.",
"          @.@.@.@.@.@.@.@.@.@.@.@.              @.@.@.@.a.3 ,XsXsXsXsXsXsXsXsXsXsXsXsXsXsXsXsXsXsXsXsXsXsXsXsXsXsXsXsXsXsX@X3   ",
"        @.@.@.@.@.@.@.@.@.@.@.@.              @.@.@.@.@.t.z H.sXsXsXsXsXsXsXsXsXsXsXsXsXsXsXsXsXsXsXsXsXsXsXsXsXsXsXsXsXsXM.g   ",
"      @.@.@.@.@.@.@.@.@.@.@.@.              @.@.@.@.@.@.@.a.3 -XsXsXsXsXsXsXsXsXsXsXsXsXsXsXsXsXsXsXsXsXsXsXsXsXsXsXsXsX@X# I.  ",
"    @.@.@.@.@.@.@.@.@.@.@.@.                @.@.@.@.@.@.@.4.z M.sXsXsXsXsXsXsXsXsXsXsXsXsXsXsXsXsXsXsXsXsXsXsXsXsXsXsXqXP m     ",
"  @.@.@.@.@.@.@.@.@.@.@.@.                        @.@.@.@.@.t.# P.sXsXsXsXsXsXsXsXsXsXsXsXsXsXsXsXsXsXsXsXsXsXsXsXsXsXC.# +.@.  ",
"@.@.@.@.@.@.@.@.@.@.@.@.                                      8.# '.sXsXsXsXsXsXsXsXsXsXsXsXsXsXsXsXsXsXsXsXsXsXsXsX~.# X.@.@.@.",
"@.@.@.@.@.@.@.@.@.@.@.                                          f.# _.sXsXsXsXsXsXsXsXsXsXsXsXsXsXsXsXsXsXsXsXsXsX~.# _ @.@.@.@.",
"@.@.@.@.@.@.@.@.@.@.                                              f.# H.sXsXsXsXsXsXsXsXsXsXsXsXsXsXsXsXsXsXsX4XC.# _ :.@.@.@.@.",
"  @.@.@.@.@.@.@.@.                                                    q c.#XsXsXsXsXsXsXsXsXsXsXsXsXsXsXsXsX.XH # X.@.@.@.@.@.  ",
"    @.@.@.@.@.@.                                                        Z 3 C.@XsXsXsXsXsXsXsXsXsXsXsXsX.Xc.# 8.U.@.@.@.@.@.    ",
"      @.@.@.@.                                                              M r P P..X-X2X4X4X2X-X}.F.H 3 ]       @.@.@.@.@.    ",
"        @.@.                                                                    8.z q # d F F r # q ] ,.            @.@.@.      "
};
