/* XPM */
static const char *boincsnooze_xpm[] = {
/* columns rows colors chars-per-pixel */
"16 16 79 1",
"R c #1F4973",
"x c #FFCC33",
"$ c Black",
"z c #FFC930",
"+ c #1D4F7B",
". c #1D4F7C",
"- c #1D4973",
"f c #FFC02A",
"X c None",
"s c #224466",
"G c #1D3D64",
"Z c #2C496E",
"T c #1D3A65",
"H c #1B4065",
"! c #2A496F",
"D c #2A4361",
"= c #1C4D78",
"4 c #1E416A",
": c #1E416B",
"g c #FEC42C",
"r c #1E3E66",
"l c #FEC129",
"1 c #1E3B63",
"I c #1E3B64",
"7 c #1F4E77",
"P c #00007F",
"c c #FFC830",
"p c #1C3867",
"b c #1F3F5F",
"# c #1D4872",
"B c #1F3F6F",
"9 c #1D426B",
"8 c #1B486D",
"K c #1B486E",
"i c #1D3C63",
"q c #1D3C64",
"& c #1E4C77",
"@ c #1E4C78",
"Y c #1E4974",
"; c #1E466F",
"u c #193F66",
"M c #FEC32C",
"A c #1E3D64",
"C c #284261",
"h c #FEC029",
"y c #1C436B",
"E c #877F4C",
"J c #1C3D64",
"N c #193366",
"U c #1F4A7A",
"m c #FFC42D",
"S c #2A2A55",
"% c #1D4773",
"k c #1F3B65",
"F c #6F6F52",
"t c #1D416A",
"d c #24365B",
"a c #1D3B63",
"j c #1D3B64",
"* c #1E4E79",
"  c #1C547F",
"W c #1E4B78",
"6 c #1E4873",
"5 c #1E456F",
"Q c #1C4E7C",
"L c #1E426B",
"V c #A2924C",
"e c #007F7F",
"0 c #1E3F67",
"w c #1E3C62",
"2 c #1E3C63",
"< c #1E3C64",
"n c #1E3C65",
"v c #FEBF2A",
"> c #333366",
"3 c #1C3F63",
"o c #1F4F79",
"O c #1F4F7F",
", c #1C3C62",
/* pixels */
" .XXXXXXXXXXXXoO",
"+@#$XXXXXXXXX%&*",
"=-;:>,<1123X4567",
"X890q<2<1we1rtyX",
"XXu<<ipXXXa<<<XX",
"XXsd<XfgghXj<iXX",
"XXqkXlzxxcvb<<XX",
"Xbn2XmxxxxMX<<NX",
"XBnqXmxxxVC<<<jZ",
"XXAqSlzxxD<F<F<<",
"XXG<iXfgg2<x<x<<",
"XXH<<JXXX<<x<x<<",
"XKL0<Pa1I<<x<x<<",
"UY;4XT2<<<<x<x<<",
"+&RXXXXXX<<E<E<q",
"WQXXXXXXXZ<<<<<!"
};

// This file is part of BOINC.
// http://boinc.berkeley.edu
// Copyright (C) 2013-2014 University of California
//
// BOINC is free software; you can redistribute it and/or modify it
// under the terms of the GNU Lesser General Public License
// as published by the Free Software Foundation,
// either version 3 of the License, or (at your option) any later version.
//
// BOINC is distributed in the hope that it will be useful,
// but WITHOUT ANY WARRANTY; without even the implied warranty of
// MERCHANTABILITY or FITNESS FOR A PARTICULAR PURPOSE.
// See the GNU Lesser General Public License for more details.
//
// You should have received a copy of the GNU Lesser General Public License
// along with BOINC.  If not, see <http://www.gnu.org/licenses/>.
