/* XPM */
static const char *boinc32_xpm[] = {
/* columns rows colors chars-per-pixel */
"32 32 159 2",
"c. c #7B9AB9",
"&  c #134D85",
"8. c #FFCF3F",
"g. c #567EA6",
"^  c #6C85A6",
"f. c #2E5281",
"u. c #8599B5",
"C. c #638DB3",
"(  c #4C6A92",
"4  c #5B769B",
".  c #14548C",
"Z. c #19588F",
"{  c #1D4375",
"H. c #86A6C2",
"+  c #86A3BF",
",  c #144B83",
"f  c #7791AF",
"F  c #163F74",
"1  c #14487D",
"=. c #FEC104",
"w. c #6D86A6",
"$  c #12518A",
"d  c #778EAC",
"$. c #FECD36",
"t. c #5C7DA2",
"@. c #FECD38",
"R  c #43638D",
"Y  c #FED350",
"J  c #48678F",
"/  c #486791",
"7. c #FED969",
")  c #FED96A",
"C  c #577399",
"A  c #5C779C",
"F. c #15558D",
"M. c #698FB3",
"4. c #FEDC78",
"!  c #FFC802",
"H  c #194074",
"-. c #234879",
"_  c #FFC501",
"q  c #15497F",
"X  c #13528B",
"S. c #7194B5",
"d. c #7D93B0",
"k  c #15467C",
"8  c #8297B3",
"%  c #134F87",
"D. c #134F88",
"N  c #154378",
"g  c #154379",
"w  c #517CA5",
":  c #658CB0",
"9  c #809AB7",
"7  c #5D789C",
"b  c #627C9F",
"i. c #6780A2",
"l. c #1F4577",
"D  c #6C84A5",
"v  c #294D7D",
"G  c #607FA3",
"P  c #183E72",
"p  c #8398B3",
"2  c #6383A7",
"   c None",
"B. c #144D85",
"q. c #5E7CA0",
"p. c #164176",
"h. c #144A80",
"r  c #144A81",
"*  c #144A82",
"h  c #577EA5",
"s  c #163E72",
"6. c #1B4274",
"X. c #163E73",
"r. c #1B4275",
"0  c #14477D",
"a  c #254A7A",
"Z  c #7289A9",
"B  c #5C7FA4",
"5. c #2A4E7E",
":. c #2F5280",
"b. c #395A86",
"9. c #FECF41",
"o. c #FED866",
"j  c #849FBB",
">. c #FED55D",
"*. c #FFCA03",
"`  c #FFCA04",
"G. c #1A588E",
"V. c #5F83A9",
"O. c #FFC702",
";. c #41628C",
"#  c #5D89B0",
",. c #FFC400",
"v. c #537EA7",
"J. c #13548D",
"K  c #647EA0",
" . c #647EA1",
"t  c #15487E",
"k. c #738AA9",
"V  c #264B7B",
"y  c #15457B",
">  c #134E85",
"O  c #134E86",
"}  c #3A5B87",
"M  c #154276",
"c  c #3F5F8A",
"z  c #154277",
"%. c #FFD355",
"0. c #1A4073",
"3  c #8096B2",
";  c #4F7EA8",
"s. c #597DA3",
"1. c #315482",
"A. c #144F86",
"m. c #144C83",
"6  c #4A6890",
"-  c #144C84",
"5  c #4A6891",
"W  c #FEC202",
"3. c #FEC203",
"m  c #164074",
"x  c #164075",
"~  c #FEC206",
"<  c #144980",
"|  c #FEC207",
"x. c #3E638E",
"I  c #204577",
".. c #25497A",
"N. c #5A87AE",
"i  c #527399",
"e  c #7595B6",
"T  c #FED453",
"2. c #FED760",
"+. c #FFCC05",
"#. c #FED457",
"'  c #FFCC06",
"&. c #FED762",
"U  c #FEDD7A",
"E  c #FEDA71",
"<. c #FEDD7C",
"]  c #FFC903",
"L  c #6680A3",
"n  c #7088A8",
"z. c #758CAA",
"j. c #849BB7",
"y. c #758CAB",
"S  c #7A90AE",
"Q  c #FFC601",
"a. c #174478",
"=  c #7392B3",
"[  c #FFC300",
"e. c #557197",
"n. c #4E739C",
"@  c #135088",
"o  c #135089",
"u  c #154479",
"l  c #15447A",
/* pixels */
"                                                                ",
"    .                                                     X     ",
"  . o O +                                               O @ X   ",
"# $ % & * =                                           * - O @ ; ",
"  : > , < 1 2             3 4 5 6 7 8             9 0 q * - w   ",
"    e r t y u i     p a s s s s s s s s d       f g y 0 q h     ",
"      j k l z x c v s s s s s s s s s b       n m M N y B       ",
"          z x s s s s s s V C Z Z A S       D s s F M G         ",
"            H s s s s J                   K s s s s L           ",
"              H s P                         P s s s             ",
"                I           U Y T             s s s R           ",
"                        E W Q ! ! Q ~         ^ s s s           ",
"        / (           ) _ ` ' ' ' ' ] [         { s s b         ",
"        s s }         [ ` ' ' ' ' ' ' ] |        .s s ..        ",
"        X.s s       o.O.' ' ' ' ' ' ' +._         s s s         ",
"        s s s       @.] ' ' ' ' ' ' ' ' O.#.      s s s         ",
"        s s s       $.] ' ' ' ' ' ' ' ' O.%.      s s s         ",
"        X.s s       &.O.' ' ' ' ' ' ' +._         s s s         ",
"        X.s s 8       [ ` ' ' ' ' ' ' *.=.        V s -.        ",
"        ;.s s :.      >._ ` ' ' ' ' ` ,.<.          1.7         ",
"          s s s         2.[ O.] ] Q 3.4.                        ",
"          5.s s 6.          7.8.9.E           V                 ",
"            s s s I                         0.s I               ",
"          q.X.s s s w.                  e.s s s s r.            ",
"        t.z x s s y.      u.D 3 3 i.1.s s s s s X.p.a.          ",
"      s.k u M m d.      i.s s s s s s s s s -.f.p.z l k         ",
"    g.h.t y u j.      k.s s s s s s s s l.z.    x.y k t r c.    ",
"  v.& , < 1               n 5 } b.( Z             n.q r m.O M.  ",
"N.o O B.*                                           V.- O % $ C.",
"  Z.o A.                                              S.D.$ F.  ",
"    G.                                                  H.J.    ",
"                                                                "
};

// This file is part of BOINC.
// http://boinc.berkeley.edu
// Copyright (C) 2013 University of California
//
// BOINC is free software; you can redistribute it and/or modify it
// under the terms of the GNU Lesser General Public License
// as published by the Free Software Foundation,
// either version 3 of the License, or (at your option) any later version.
//
// BOINC is distributed in the hope that it will be useful,
// but WITHOUT ANY WARRANTY; without even the implied warranty of
// MERCHANTABILITY or FITNESS FOR A PARTICULAR PURPOSE.
// See the GNU Lesser General Public License for more details.
//
// You should have received a copy of the GNU Lesser General Public License
// along with BOINC.  If not, see <http://www.gnu.org/licenses/>.
