/* XPM */
static const char *boincsnooze_xpm[] = {
/* columns rows colors chars-per-pixel */
"16 16 58 1",
"b c #153B73",
"s c #9F9339",
"d c #22446C",
"x c #16457A",
"e c #183C73",
"k c #163F72",
"7 c #0F4173",
"f c #254B7B",
"c c #163C71",
"z c #143F72",
"V c #234B7C",
"N c #10518D",
"h c #23456B",
"u c #FFC802",
"5 c #174074",
"& c #15497E",
"i c #FFBF00",
"- c #173D71",
"> c #154378",
"* c #154379",
"% c #134C82",
"o c #11528B",
"8 c #153D70",
"@ c #134983",
". c #11528C",
"3 c #153D71",
"  c None",
"2 c #164175",
"m c #84813F",
"< c #144A82",
"g c #163E71",
"B c #163E72",
"M c #163E73",
", c #14477D",
"1 c #14447A",
": c #144170",
"y c #FFCD06",
"t c #FFCA03",
"q c #FFC400",
"n c #154B82",
"r c #FFC100",
"$ c #135189",
"# c #134E86",
"O c #134E88",
"+ c #134B82",
"v c #134B83",
"j c #6A714B",
"X c #145289",
"4 c #163D6F",
"; c #163D70",
"9 c #163D71",
"w c #163D72",
"a c #FFC300",
"l c #173E71",
"0 c #FFC000",
"= c #173E72",
"p c #173E73",
"6 c #154479",
/* pixels */
" .            X ",
"oO+          @#$",
" %&*  =--;: >,< ",
"  123=;=-4 -56  ",
"  7==8    9==   ",
"    = 0qq0 w=8  ",
"   e rtyyui ==  ",
"  p; qyyyya ==  ",
"  p3 qyyysd===wf",
"  g3 rtyyh=j=j==",
"  k=8 0qql=y=y==",
"   ==z   ==y=y==",
"  x2= 9-c==y=y==",
" v&> b;====y=y==",
"o#n      ==m=m=M",
" N       f====BV"
};

// This file is part of BOINC.
// http://boinc.berkeley.edu
// Copyright (C) 2013-2014 University of California
//
// BOINC is free software; you can redistribute it and/or modify it
// under the terms of the GNU Lesser General Public License
// as published by the Free Software Foundation,
// either version 3 of the License, or (at your option) any later version.
//
// BOINC is distributed in the hope that it will be useful,
// but WITHOUT ANY WARRANTY; without even the implied warranty of
// MERCHANTABILITY or FITNESS FOR A PARTICULAR PURPOSE.
// See the GNU Lesser General Public License for more details.
//
// You should have received a copy of the GNU Lesser General Public License
// along with BOINC.  If not, see <http://www.gnu.org/licenses/>.
