/* XPM */
static const char *boincsnooze32_xpm[] = {
/* columns rows colors chars-per-pixel */
"32 32 111 2",
"+  c #11538B",
"Z  c #FFBA00",
"I  c #153B73",
"/  c #134176",
"C  c #133E73",
"_  c #86823D",
"u  c #16457A",
"i  c #164277",
";. c #CFAF1C",
"p  c #163F72",
"N  c #163F73",
"z  c #163F74",
",  c #14487E",
"~  c #0F3E6E",
"0  c #163C70",
"#. c #14457A",
"8  c #163C71",
"&  c #124E85",
"m  c #144278",
")  c #0F3E7E",
"Y  c #FFCB04",
"K  c #FFC801",
"(  c #FFC802",
"P  c #FFC500",
"b  c #17406A",
"H  c #FFC200",
"n  c #174074",
"3  c #15497E",
">  c #15497F",
">. c #154981",
"A  c #FFBF00",
"B  c #173D71",
"y  c #15467B",
"$. c #154378",
"%  c #134C81",
"h  c #15437A",
"$  c #134C87",
"O  c #11528B",
"6  c #153D70",
"9  c #153D71",
"`  c #516156",
"Q  c #153D73",
"O. c #1F426D",
" . c #4F5E56",
"t  c #144D83",
"   c None",
"1  c #144D85",
".. c #A7972E",
"k  c #164175",
"d  c #164176",
"2  c #144A81",
"-. c #84813F",
"f  c #144A82",
":. c #12538C",
"G  c #163E71",
"v  c #163E72",
"&. c #14477C",
"@. c #163E74",
"w  c #14477D",
"q  c #14447C",
"X. c #E1BB13",
"T  c #FFCD06",
"R  c #FFCA03",
"J  c #FFC701",
"L  c #FFC702",
"U  c #FFC400",
"o. c #FFC100",
"}  c #173F72",
"x  c #15487C",
"<. c #135188",
"*  c #135189",
"@  c #13518A",
"=. c #15457B",
"4  c #15457C",
"#  c #134E86",
"j  c #154276",
"o  c #134E8A",
"!  c #FFBB00",
":  c #134B83",
"=  c #11548C",
",. c #134B84",
"%. c #13487E",
"'  c #1A4070",
"c  c #134579",
"F  c #153971",
"5  c #18406F",
"D  c #184070",
"<  c #144C83",
"X  c #125287",
"e  c #144980",
"-  c #12528A",
"V  c #163D6F",
".  c #12528B",
"l  c #163D70",
"a  c #163D71",
"]  c #25466B",
"7  c #163D72",
"r  c #124F86",
"*. c #124F87",
"M  c #144075",
"g  c #12497E",
"[  c #918938",
"^  c #143D72",
"+. c #174171",
"{  c #DAB616",
"E  c #FFC300",
"S  c #FFC000",
"s  c #173E72",
"|  c #173E73",
";  c #135088",
"W  c #FFBD00",
/* pixels */
"                                                                ",
"    . X                                                 o O     ",
"  + @ # $                                             % & * .   ",
"= - ; # : >                                         , < 1 # * @ ",
"  ; # : 2 3 4           5 6 7 8 8 9 9 0           q w e < 1 r   ",
"    t 2 > y u i     p a s s s s s s s s s       d u 4 w e f     ",
"      g y h j k s l s s s s s s s s s 7       l z j u 4 x       ",
"        c j k v s s s s s 7 9 s 8 s s b     6 s s n j m         ",
"          M N s s s s B p                 6 s s s s n           ",
"            V B s s a                     s s s s l             ",
"              C s 8       Z A A S A S       l s s s             ",
"        D F     G       A H J K L P S A       6 s s s           ",
"        n 9 I         S U Y T T T T R E W     G 8 s s B         ",
"        Q s 9 0     Z E Y T T T T T T R H !     9 s s 8         ",
"      ~ v s s ^     S J T T T T T T T T P A     G s s l         ",
"      / v s s a     S ( T T T T T T T T s s s s s s s s s s s   ",
"      / v s s v     S ( T T T T T T T s s s s s s s s s s s s s ",
"      ) v s s 8     S J T T T T T T _ s s s s s s s s s s s s s ",
"        Q s s a     Z E Y T T T T T ` s s s ' ] s s s ' ] s s s ",
"        v s s a v     W U Y T T T T ` s s s [ { s s s [ { s s s ",
"        } | s s 7       A S J K L P  .s s s ..X.s s s ..X.s s s ",
"          s s s s ^       o.A A S A O.s s s ..X.s s s ..X.s s s ",
"          +.s s s s B               s s s s ..X.s s s ..X.s s s ",
"          d @.s s s a               7 s s s ..X.s s s ..X.s s s ",
"        #.$.k v s 7       6 s s 8 7 s s s s ..X.s s s ..X.s s s ",
"      %.&.h j k |       s s s s s s s s s s ..X.s s s ..X.s s s ",
"    < 2 > y u i       6 s s s s s s s s s s ..X.s s s ..X.s s s ",
"  *.# : 2 3 =.          s 9 6 B B 6 B s s s -.;.s s s -.;.s s s ",
":.- ; # < >.                        s s s s s s s s s s s s v s ",
"  :.@ & ,.                          s s s s s s s s s s s s v s ",
"    . <.                              s s s s s s s s s s v v   ",
"                                                                "
};

// This file is part of BOINC.
// http://boinc.berkeley.edu
// Copyright (C) 2013-2014 University of California
//
// BOINC is free software; you can redistribute it and/or modify it
// under the terms of the GNU Lesser General Public License
// as published by the Free Software Foundation,
// either version 3 of the License, or (at your option) any later version.
//
// BOINC is distributed in the hope that it will be useful,
// but WITHOUT ANY WARRANTY; without even the implied warranty of
// MERCHANTABILITY or FITNESS FOR A PARTICULAR PURPOSE.
// See the GNU Lesser General Public License for more details.
//
// You should have received a copy of the GNU Lesser General Public License
// along with BOINC.  If not, see <http://www.gnu.org/licenses/>.
