/* XPM */
static const char *boincdisconnect32_xpm[] = {
/* columns rows colors chars-per-pixel */
"32 32 109 2",
"f  c #FFCC33",
"   c None",
"_  c #000001",
"v  c #FFC930",
"p  c #FFC931",
"s  c #FFC62E",
"W  c #0F0601",
"D  c #EF0000",
"R  c #FFC32C",
"C  c #FFC029",
"r  c #FFC02A",
"!  c #49360B",
"-. c #0B1827",
"[  c #200000",
"O  c #1E4D78",
".  c #1E4D79",
"B  c #09121F",
"@  c #1E4A74",
":  c #1E4A75",
"/  c #680000",
"%  c #1E4771",
"$. c #11263E",
"P  c #9F0000",
"-  c #1E446D",
"7  c #1E446E",
"O. c #100102",
")  c #1E4169",
"9  c #1E416A",
"J  c #090305",
"q  c #1E3E66",
"6  c #1E3E67",
"M  c #400000",
"d  c #FFCB32",
"*. c #BF0000",
"&. c #180000",
"o. c #172E4E",
"i  c #FFC82F",
"k  c #FFC830",
"j  c #FFC52D",
"l  c #FFC22B",
"`  c #600000",
"y  c #FFBF28",
"e  c #FFBF29",
" . c #010306",
"b  c #E7B82E",
"+. c #DF0000",
";  c #1E4C77",
":. c #1E4C78",
"3  c #1E4973",
">. c #1E4974",
"c  c #1B365B",
"5  c #1E466F",
"(  c #800000",
"$  c #1E4670",
"n  c #685113",
"X. c #1E436C",
">  c #1E436D",
"@. c #EE0000",
"{  c #1E4068",
"1  c #1E4069",
"4  c #1E3D65",
"h  c #1E3D66",
"A  c #201906",
"m  c #070501",
";. c #0F2237",
"F  c #FF0000",
".. c #0A1523",
"H  c #8F0000",
"%. c #0A1524",
"}  c #050B12",
"x  c #2D2207",
"z  c #FFCA31",
"g  c #FFCA32",
"=. c #D70000",
"a  c #FFC72F",
"#. c #300000",
"u  c #FFC42D",
"Z  c #DFB22C",
"t  c #FFC12A",
"L  c #FFC12B",
"]  c #1A3457",
"w  c #FFBE28",
"S  c #780000",
"|  c #AF0000",
"N  c #080000",
"U  c #080001",
"Y  c #604B12",
"K  c #132742",
"G  c #F70000",
"o  c #1E4E79",
"&  c #1E4E7A",
"~  c #500000",
"+  c #1E4B76",
"X  c #1E4872",
"*  c #1E4873",
"2  c #1E456E",
"#  c #1E456F",
"=  c #1E426B",
"8  c #1E426C",
"I  c #CF0000",
"<  c #1E3F67",
"0  c #1E3F68",
"Q  c #280000",
"E  c #EFB629",
",  c #1E3C64",
"'  c #1E3C65",
"V  c #193254",
"^  c #700000",
"T  c #A70000",
/* pixels */
"    .                                                     X     ",
"  o O + @                                               # $ %   ",
"& O + @ * $                                           = - # $ $ ",
". ; : * $ # >           , , , , , , , ,             < 1 = > 2 $ ",
"; : 3 % # > = 1     , , , , , , , , , , , ,     , , 4 < 1 = > # ",
"  3 % 5 - = 1 6 , , , , , , , , , , , , ,     , , , , 4 6 1 =   ",
"    5 7 8 1 < 4 , , , , , , , , , , , ,     , , , , , , 4 <     ",
"      8 9 < 4 , , , , , , , , , , , ,     , , , , , , , ,       ",
"        0 q , , , , , , ,                 , , , , , , ,         ",
"            , , , , ,                     , , , , , , ,         ",
"              , , ,     w e r t t r e w     , , , , , ,         ",
"      q 4       ,     y t u i p p a u r w     , , , , , ,       ",
"      q , , ,       w t s d f f f f g s r w     , , , , ,       ",
"      h , , ,       e j d f f f f f f d u e     , , , , ,       ",
"      h , , ,       t k f f f f f f f f k r       , , , ,       ",
"    < h , , ,     w l z f f f f f f f f z l w     , , , , ,     ",
"    < h , , ,     w l z f f f f f f f f z l x     c , , , ,     ",
"      h , , ,     w t v f f f f f f f b n m M M M N B V ,       ",
"      h , , , ,     C s d f f f f f Z A S D F F F G H J K       ",
"      q , , , ,     w L a d f f f b A P F F F F F F F I U       ",
"      q 4 , , , ,     y L s p g g Y S F F F F F F F F F T       ",
"        4 , , , ,       w C L R E W G F F F F F F F F F F Q     ",
"        h , , , , , ,       w w ! ~ F F F F F F F F F F F ^     ",
"        0 h , , , , ,             / F F F F F F F F F F F (     ",
"      8 ) < 4 , , , ,     , , , _ ` F F F F F F F F F F F S     ",
"    5 - = 1 6 ' , ,     , , , , ] [ F F F F F F F F F F F M     ",
"  3 % # > 9 { q ,     , , , , , , } | F F F F F F F F F I  ...  ",
"; : * $ 2 X.9 {     , , , , , , , o.O.+.F F F F F F F @.#.$.X.2 ",
"O + @ X $ 2 X.          , , , , , , %.&.*.F F F F F =.#.-.X.2 $ ",
"o O + @ X $                               M ( ( ( ~   ;.> 2 $ $ ",
"  . :.+ >.                                            > # $ $   ",
"    O O                                                 $ %     "
};
// This file is part of BOINC.
// http://boinc.berkeley.edu
// Copyright (C) 2013-2014 University of California
//
// BOINC is free software; you can redistribute it and/or modify it
// under the terms of the GNU Lesser General Public License
// as published by the Free Software Foundation,
// either version 3 of the License, or (at your option) any later version.
//
// BOINC is distributed in the hope that it will be useful,
// but WITHOUT ANY WARRANTY; without even the implied warranty of
// MERCHANTABILITY or FITNESS FOR A PARTICULAR PURPOSE.
// See the GNU Lesser General Public License for more details.
//
// You should have received a copy of the GNU Lesser General Public License
// along with BOINC.  If not, see <http://www.gnu.org/licenses/>.
