/* XPM */
static const char *boinc_macmenubar_dark_xpm[] = {
/* columns rows colors chars-per-pixel */
"64 64 4 1 ",
"  c None",
". c gray91",
"X c #F4F4F4",
"o c white",
/* pixels */
"    ..                                                    ..    ",
"   ....                                                  ....   ",
"  ......                                                ......  ",
" ........                                              ........ ",
"..........                                            ..........",
"...........                                          ...........",
"............                                        ............",
" ............              ..........              ............ ",
"  ............         .................          ............  ",
"   ............      .....................       ............   ",
"    ............   .......................      ............    ",
"     ....................................      ............     ",
"      ..................................      ............      ",
"       ................................      ............       ",
"        ..............................      ............        ",
"         ...................               ............         ",
"           ..............                 ............          ",
"            ...........                  ............           ",
"             .........                    ...........           ",
"              ......                        ..........          ",
"               ....          .....           .........          ",
"                ..         ..........         .........         ",
"         X       .       ..............       .........         ",
"        ...             ................       .........        ",
"        ....           ..................      .........        ",
"        .....         ....................      ........        ",
"       .......        ....................      ........        ",
"       ........      ......................      ........       ",
"       ........      ......................      ........       ",
"       ........      ......................      ........       ",
"       ........     .......................      ........       ",
"       ........     ........................     ........       ",
"       ........     ........................     ........       ",
"       ........     .......................      ........       ",
"       ........      ......................      ........       ",
"       ........      ......................      ........       ",
"       ........      ......................      ........       ",
"       ........      .....................        .......       ",
"        ........      ....................         .....        ",
"        ........       ..................           ....        ",
"        .........      .................             ...        ",
"         ........        ..............               .         ",
"         .........        ............        ..                ",
"         ..........         ........         ....               ",
"          ..........                        ......              ",
"           ..........                      ........             ",
"           ...........                    ..........            ",
"          ............                  .............           ",
"         ............                 ................          ",
"        ............       ....  ......................         ",
"       ............       ..............................        ",
"      ............       ................................       ",
"     ............       ..................................      ",
"    ............       ......................  ............     ",
"   ............       ......................    ............    ",
"  ............        ....................       ............o  ",
" ............            ..............           ............X ",
"............                                       .............",
"...........                                         ............",
"..........                                           ...........",
" ........                                              ........ ",
"  ......                                                ......  ",
"   ....                                                  .....  ",
"    ..                                                    ...   "
};
