/* XPM */
static const char *boincsnooze32_xpm[] = {
/* columns rows colors chars-per-pixel */
"32 32 231 2",
"i. c #FFCC33",
"-  c Black",
"gX c #1F4976",
"U  c #355074",
"V. c #F7F7F7",
"p. c #FFC930",
"+  c #1D4F79",
"hX c #1D4F7A",
"S. c #FFC931",
"O  c #1D4F7B",
".. c #586F8B",
"6. c #FFC62E",
"rX c #6C7F99",
"8  c #1D4974",
"5. c #FFC32C",
"R. c #1F3D65",
"2X c #1D466F",
"[. c #244168",
"D  c #29456A",
"a  c #29456B",
"%X c #657E98",
"K. c #FFC02D",
"   c None",
"t  c #E1E1E7",
"~. c #C1CCD7",
"(. c #FFF0D2",
"l. c #FFDB8C",
"g  c #F0F0F7",
"5  c #1D406A",
"W. c #1D3D64",
"Z. c #798BA2",
"e. c #27456B",
"i  c #2C496E",
"1X c #224477",
"L. c #CEA839",
"Y  c #F8F8F8",
"iX c #455D7E",
"H. c #59708D",
"jX c #1E4D77",
"f  c #687C95",
"1  c #1E4A75",
",X c #254268",
"r. c #254269",
"q  c #1E4771",
"v  c #1E4772",
"q. c #2A466C",
"s  c #2F4A6E",
"uX c #344E72",
"n  c #1E446D",
"z  c #1E446E",
"&. c #4D6585",
"eX c #284C75",
"*X c #1E4169",
"{. c #526988",
"l  c #1E416A",
"8X c #1E416B",
"W  c #325479",
"OX c #576D8D",
"3X c #1E3E66",
"L  c #1E3E67",
"!. c #28466C",
"G. c #C2C7D2",
"9. c #FEC12A",
"Q. c #FECA49",
";X c #2D4A6F",
"0. c #FEC437",
">. c #FED369",
"*. c #FECA4B",
";. c #FEC12E",
"o. c #1E3B64",
" X c #FEC12F",
"D. c #FEC131",
",. c #3C5679",
"$X c #A7B3C4",
"XX c #FED67F",
"m. c #FFCB32",
"C. c #58718C",
"7. c #FFC830",
"S  c #E3E3EA",
"V  c #3A5377",
"(  c #F2F2F8",
"1. c #6C8199",
"y. c #FFC52D",
"{  c #5D728E",
"8. c #FFC52E",
"aX c #1D4872",
".  c #1B517F",
"wX c #1D456E",
"9X c #425E82",
":X c #29446B",
"H  c #1D426B",
"y  c #5B728E",
"I. c #6F859D",
"<X c #1D3C63",
"f. c #224067",
"`  c #27446B",
"R  c #2C486C",
">X c #2C486D",
"o  c #1E527E",
"F. c #455F81",
"t. c #A1ADBC",
"u  c #3B5477",
"]. c #E4E4EB",
"&  c #1E4F7B",
"-X c #BFC8D1",
"kX c #336666",
"=  c #1E4C77",
"qX c #1E4C78",
"c. c #6D829D",
">  c #1E4973",
"!  c #2A486D",
"$  c #1E4974",
"C  c #203D64",
"b  c #1E466F",
":  c #1E4670",
"P. c #435C7D",
"O. c #435C7E",
"6  c #1E436C",
"oX c #93874A",
"k  c #1E4068",
"K  c #1E4069",
"4  c #5555A9",
"+X c #B8BECB",
"E  c #1E3D65",
"F  c #1E3D66",
"0X c #1C4671",
"h. c #FEC946",
"[  c #28456A",
"lX c #1A4F7B",
"<. c #2D496E",
"A. c #FEC02D",
"E. c #C5D0D6",
"4. c #FEC02E",
" . c #375174",
"Y. c #FEC030",
"a. c #FEC33A",
"/  c #3C5578",
"N  c #C5D0DC",
"tX c #41597C",
"s. c #788BA2",
"$. c #91A2B2",
"x  c #0000FF",
"X  c #1F4A74",
"g. c #CACED8",
"x. c #264268",
"'. c #44545B",
"u. c #FFCA31",
"J  c #1F4771",
"j. c #FFCA32",
"_  c #2B466C",
"A  c #3F597A",
",  c #1D507C",
"=X c #445D7E",
"n. c #FFC72F",
"2. c #A0ABBF",
"v. c #6C8099",
"U. c #586D8D",
"M. c #FFC42D",
"%  c #1D4A76",
"P  c #244268",
"2  c #1D4771",
"k. c #FFC12A",
"p  c #29466C",
"~  c #334E72",
"'  c #476181",
"@. c #385275",
"B. c #385276",
"}  c #E9F0F0",
"9  c #003F7F",
"X. c #1D3B63",
"^  c #314E71",
"/. c #4A6583",
"6X c #274369",
"z. c #27436A",
"#X c #405A7B",
"w. c #7E8DA7",
"4X c #455E7E",
"*  c #1E4E79",
"B  c #BAC3CD",
"<  c #1E4E7A",
"|  c #C9D2DC",
"pX c #1E4B75",
"0  c #1E4B76",
"fX c #1E4B77",
"`. c #DBB53A",
"I  c #203F65",
"j  c #203F66",
"3  c #55A9A9",
"T  c #DDE2E8",
"#  c #1E4872",
"c  c #1E4873",
";  c #1E456D",
"7  c #1E456E",
"+. c #F6F6F6",
"w  c #1E456F",
"d  c #3E577A",
"r  c #C9C9D3",
"d. c #BDC7D2",
"3. c #FEF2C1",
"m  c #1E426B",
"%. c #667A94",
"Q  c #1E3F67",
"G  c #1E3F68",
"J. c #7A8DA4",
"_. c #FEC22B",
"5X c #C7CCD5",
"M  c #28476E",
"#. c #1E3C63",
"-. c #FEC22E",
"Z  c #1E3C64",
"b. c #FEC22F",
"]  c #1E3C65",
")  c #D6DBE5",
"^. c #FEC230",
"=. c #FEC231",
"sX c #1C4571",
"). c #FEC232",
"|. c #FEC233",
":. c #FEC234",
"yX c #2D486E",
".X c #FEC236",
"@  c #FEFEFE",
"&X c #21466E",
"N. c #FEC239",
"e  c #21466F",
"T. c #787550",
"dX c #1F4F7A",
"}. c #FECB5B",
"@X c #26476C",
"7X c #1F4F7F",
"h  c #D2E1E1",
/* pixels */
"    .                                                     X     ",
"  o O +                 @ @ @ @ @     @                 # $ %   ",
"o & * = $           @     @   @ @ @ @ @ @ @ @       - ; : # > % ",
", < = 1 > 2 3   @ @   @ @ @ @ @ @ @   @ @ @ @     4 5 6 7 : # 8 ",
"9 = 0 > q w e r @ @ @ t y u i p a s d f g   @ @ h j k l 6 z :   ",
"  x c v b n m M N B V C Z Z Z Z Z Z Z Z A @ @ S D Z F G l H     ",
"      J n m K L P I Z Z Z Z Z Z Z Z Z U Y @ T R Z Z Z E L       ",
"      @ W K Q E Z Z Z Z Z C ! ~ ^ ! / ( @ ) _ Z Z Z Z `         ",
"      @   ' ] Z Z Z Z [ { } @ @ @ @ @ @ | p Z Z Z Z  .          ",
"    @ @ @ @ ..X.Z o.O.+.@   @ @ @ @   @ S @.Z Z Z #.$.@ @ @     ",
"    @ @ @ @ @ %.E &.@   @ *.=.-.;.:.>.@ @ @ ,.Z Z Z <.@ @       ",
"  @ @ @ 1.| @ @ 2.@ @ 3.4.5.6.7.7.8.9.0.@ @ +.q.Z Z #.w.@ @     ",
"    @   e.r.t.@   @ @ ;.y.u.i.i.i.i.p.5.a.@ @ s.Z Z Z @.@ @     ",
"  @ @ d.] Z f.g.@   h.5.j.i.i.i.i.i.i.7.k.l.@ @ z.Z Z x.@ @     ",
"  @ @ c.E Z Z v.@ @ b.n.i.i.i.i.i.i.i.m.M.N.@   B.Z Z #.V.@     ",
"@ @ @ C.] Z Z Z.@ @ A.S.i.i.i.i.i.i.i.i.6.D.@ @ F.Z Z Z G.@     ",
"@ @ @ H.] Z Z J.  @ K.p.i.i.i.i.i.i.i.i.L.Z Z Z Z Z Z Z Z Z P.  ",
"  @ @ I.E Z Z U.@ @ Y.n.i.i.i.i.i.i.i.T.Z Z Z Z Z Z Z Z Z Z Z R.",
"  @ @ E.W.Z Z @.  @ Q.5.u.i.i.i.i.i.i.Z Z Z Z Z Z Z Z Z Z Z Z Z ",
"    @   !.Z Z C ~.@ @ ^.y.u.i.i.i.m.7.Z Z Z Z Z Z Z Z Z Z Z Z Z ",
"  @ @ @ /.Z Z Z B.@   (.)._.6.n.n.y.k.Z Z Z Z `.'.Z Z `.'.Z Z Z ",
"    @ @ ].[.Z Z #.{.@     }.|. X X.XXXZ Z Z Z i.oXZ Z i.oXZ Z Z ",
"    @ @ @ OXZ Z Z X.P.@ @ @ @ @ @ @ @ Z Z Z Z i.oXZ Z i.oXZ Z Z ",
"      @ +X@XE Z Z Z #X@   @ @ @ @ @ $XZ Z Z Z i.oXZ Z i.oXZ Z Z ",
"      %X&X*XQ E Z =X@ @ -X;X:X>Xi ,X<XZ Z Z Z i.oXZ Z i.oXZ Z Z ",
"    1X2Xz m K 3X4X@ @ 5X6XZ Z Z Z Z Z Z Z Z Z i.oXZ Z i.oXZ Z Z ",
"  7X$ # b n 8X9X      s Z Z Z Z Z Z Z Z Z Z Z i.oXZ Z i.oXZ Z Z ",
"0XqX0 $ q wXeX@ @ @ @ ( rXtX^ yXi uXiXZ Z Z Z i.oXZ Z i.oXZ Z Z ",
", < = pXaXsX    @ @   @ @ @ @ @ @ @   Z Z Z Z '.Z Z Z '.Z Z Z Z ",
"dX& * fXgX          @     @   @ @ @ @ Z Z Z Z Z Z Z Z Z Z Z Z Z ",
"  dXhXjX                @ @ @ @ @     @ Z Z Z Z Z Z Z Z Z Z Z   ",
"    kX                                                    lX    "
};
// This file is part of BOINC.
// http://boinc.berkeley.edu
// Copyright (C) 2013-2014 University of California
//
// BOINC is free software; you can redistribute it and/or modify it
// under the terms of the GNU Lesser General Public License
// as published by the Free Software Foundation,
// either version 3 of the License, or (at your option) any later version.
//
// BOINC is distributed in the hope that it will be useful,
// but WITHOUT ANY WARRANTY; without even the implied warranty of
// MERCHANTABILITY or FITNESS FOR A PARTICULAR PURPOSE.
// See the GNU Lesser General Public License for more details.
//
// You should have received a copy of the GNU Lesser General Public License
// along with BOINC.  If not, see <http://www.gnu.org/licenses/>.
