/* XPM */
static const char *boinc32_xpm[] = {
/* columns rows colors chars-per-pixel */
"32 32 92 1",
"E c #FCF2D4",
"x c #FCC234",
"  c None",
"= c #043E7C",
"J c #FCDA8C",
"D c #FCC23C",
"W c #8C9AB4",
"b c #6C829C",
"$ c #54AAAC",
"' c #B4BACC",
"k c #94A2B4",
"7 c #243E64",
"Q c #9CAABC",
"1 c #2C466C",
": c #E4E2EC",
"R c #C4CAD4",
"_ c #A4B2C4",
"+ c #040204",
"u c #344E74",
"O c #1C4A74",
"h c #CCD2DC",
"N c #FCCA34",
"j c #5C6E8C",
"s c #3C5674",
", c #3C567C",
"[ c #F4F2F4",
"r c #1C3E64",
"5 c #F4F2FC",
"8 c #1C3E6C",
"z c #FCCA4C",
"d c #D4DAE4",
"/ c #445E7C",
"^ c #FCD67C",
"P c #445E84",
"i c #FCFAFC",
"- c #24466C",
"4 c #6C7E94",
"X c #244674",
"p c #DCE2EC",
"L c #6C7E9C",
"T c #FCD694",
"l c #4C6684",
"] c #2C4E74",
"K c #7486A4",
") c #BCBECC",
"{ c #9CA6BC",
"g c #ECF2F4",
"U c #7C8EA4",
". c #1C527C",
"I c #C4C6D4",
"A c #A4AEBC",
"@ c #1C466C",
"6 c #D4E2E4",
"2 c #344A74",
"9 c #1C4674",
"M c #FCC62C",
"` c #647E9C",
"H c #CCCEDC",
"B c #FCC634",
"e c #3C5274",
"V c #FCC63C",
"Y c #6C869C",
"t c #1C3A64",
"v c #FCD26C",
"! c #94A6B4",
"y c #445A7C",
"G c #244264",
"* c #24426C",
"% c #5456AC",
"w c #BCC6D4",
"f c #4C6284",
"< c #2C4A6C",
"q c #C4CED4",
"} c #64669C",
"~ c #546A8C",
"0 c #0402FC",
"a c #345274",
"# c #1C4E74",
"F c #7C8AA4",
"o c #1C4E7C",
"S c #FCCE34",
"> c #5C728C",
"3 c #3C5A7C",
"C c #F4F6F4",
"n c #A4AABC",
"& c #1C426C",
"Z c #8492AC",
"m c #FCF2C4",
"( c #647A94",
"; c #CCCAD4",
"| c #346664",
"c c #FCC22C",
/* pixels */
"  .                          X  ",
" .o.                        OOO ",
".ooXO                     +@XOXo",
".oo#OX$                  %&*@@OO",
"=X#XO@-;   :>,<112345   678&&*9 ",
" 0X9X@&1qwe7rt7rtrtty  :1rr7&&  ",
"   O&*88*7rtt7tt7trui p<tt7r8   ",
"    a&r7rrt7tr<uu1s5 d1t7rt1    ",
"     ftrt7t->g      h1rtrte     ",
"      jtttyi        :a7t7rk     ",
"       4rl   zxxcxv   ,trt<     ",
"    bh  n  mxcMNBMcV  C1t7tZ    ",
"    1*A    ccNSNSNNcD  Frtre    ",
"   wrtGH  zcNSNSNSNNcJ  1t7*    ",
"   KrtrL  xMSNSNSNSNMx  etrti   ",
"   >t7rF  cNSNSNSNSNMx  Pt7tI   ",
"   jrttU  cMNSNSNSNSMc  ftrtq   ",
"   Yt7rj  xMSNSNSNSNcD  yrt7    ",
"   hrtte  zcNNSNSNSMcT  Ztr*    ",
"    -7r8R  cMMSNSMNcV    U7,    ",
"    ltt7a  ExcMMMMcx  gW  Q!    ",
"    :*rt7~   zxccx^   u7K       ",
"     jtttt/         R2rt7(      ",
"    )-7r7ry       _/*t7rtt~     ",
"   `-&rrt/  R<11<1trtrtt7tt2    ",
"  X9@&87P  R1rt7rtt7t7*Gtrtr*   ",
" .XO-&*3   2tt7tt7rt*fg'Gt78&*  ",
"XoOO99]    [L3u1<u/U    {rr*&@90",
".oX#9@                   }&&@X9O",
"o.ooX                     0&-OOO",
" oo#                        O9X ",
"  |                          .  "
};
// This file is part of BOINC.
// http://boinc.berkeley.edu
// Copyright (C) 2013-2014 University of California
//
// BOINC is free software; you can redistribute it and/or modify it
// under the terms of the GNU Lesser General Public License
// as published by the Free Software Foundation,
// either version 3 of the License, or (at your option) any later version.
//
// BOINC is distributed in the hope that it will be useful,
// but WITHOUT ANY WARRANTY; without even the implied warranty of
// MERCHANTABILITY or FITNESS FOR A PARTICULAR PURPOSE.
// See the GNU Lesser General Public License for more details.
//
// You should have received a copy of the GNU Lesser General Public License
// along with BOINC.  If not, see <http://www.gnu.org/licenses/>.
