/* XPM */
static const char *boincdisconnect_xpm[] = {
/* columns rows colors chars-per-pixel */
"16 16 80 1",
"l c Black",
"P c #430204",
"J c #153B73",
"c c #480000",
"v c #DC0000",
"s c #133868",
"A c #16457A",
"e c #183C73",
"z c #163F72",
"7 c #0F4173",
"! c #310000",
"S c #163C71",
"N c #143F72",
"D c #2D0F1C",
"W c #10518D",
"u c #FFC802",
"C c #FA0000",
"h c #400306",
"E c #1B253F",
"5 c #174074",
"& c #15497E",
"i c #FFBF00",
"- c #173D71",
"> c #154378",
"* c #154379",
"% c #134C82",
"L c #BF0000",
"o c #11528B",
"8 c #153D70",
"@ c #134983",
". c #11528C",
"3 c #153D71",
"B c #2E0407",
"n c #F40000",
"  c None",
"~ c #151C30",
"2 c #164175",
"< c #144A82",
"d c #163E71",
", c #14477D",
"f c #9A7300",
"1 c #14447A",
": c #144170",
"y c #FFCD06",
"G c #6D0000",
"t c #FFCA03",
"Z c #470000",
"g c #340000",
"q c #FFC400",
"M c #210000",
"b c #FF0000",
"I c #154B82",
"T c #EC0000",
"r c #FFC100",
"$ c #135189",
"k c #1F0000",
"# c #134E86",
"O c #134E88",
"+ c #134B82",
"H c #134B83",
"F c #EA0000",
"U c #430000",
"m c #8B0000",
"V c #C20000",
"X c #145289",
"x c #A67D00",
"j c #310A13",
"Q c #2C0000",
"4 c #163D6F",
"; c #163D70",
"9 c #163D71",
"w c #163D72",
"R c #790408",
"Y c #CF0000",
"a c #FFC300",
"0 c #FFC000",
"= c #173E72",
"p c #173E73",
"K c #291324",
"6 c #154479",
/* pixels */
" .            X ",
"oO+          @#$",
" %&*  =--;: >,< ",
"  123=;=-4 -56  ",
"  7==8    9==   ",
"    = 0qq0 w=8  ",
"   e rtyyui ==  ",
"  p; qyyyya ==  ",
"  p3 qyyyya s=  ",
"  d3 rtyyufghjkl",
"  z=8 0qqxcvbnmM",
"   ==N   BVbbbCZ",
"  A2= 9-SDFbbbbG",
" H&> J;==KLbbbCP",
"o#I      lUYbTRE",
" W        lQ!!~ "
};

// This file is part of BOINC.
// http://boinc.berkeley.edu
// Copyright (C) 2013-2014 University of California
//
// BOINC is free software; you can redistribute it and/or modify it
// under the terms of the GNU Lesser General Public License
// as published by the Free Software Foundation,
// either version 3 of the License, or (at your option) any later version.
//
// BOINC is distributed in the hope that it will be useful,
// but WITHOUT ANY WARRANTY; without even the implied warranty of
// MERCHANTABILITY or FITNESS FOR A PARTICULAR PURPOSE.
// See the GNU Lesser General Public License for more details.
//
// You should have received a copy of the GNU Lesser General Public License
// along with BOINC.  If not, see <http://www.gnu.org/licenses/>.
