/* XPM */
static const char *boincdisconnect32_xpm[] = {
/* columns rows colors chars-per-pixel */
"32 32 124 2",
"`  c #FCF2D4",
"l  c #FCC234",
"   c None",
"=  c #043E7C",
"Q  c #D4A234",
"G  c #FCDA8C",
"A  c #FCC23C",
"-. c #C40204",
"c  c #6C829C",
"@. c #6C0604",
"$  c #54AAAC",
"{  c #1C1E1C",
"j  c #94A2B4",
"8  c #243E64",
"&. c #9C0204",
"3  c #2C466C",
",  c #E4E2EC",
"+  c #040204",
"4  c #344E74",
"0. c #4C0E1C",
"O  c #1C4A74",
"X. c #BC0204",
"g  c #CCD2DC",
"m  c #FCCA34",
"h  c #5C6E8C",
"w. c #4C0204",
"a  c #3C5674",
"3. c #04021C",
"P  c #ECC68C",
"1  c #3C567C",
"T  c #3C121C",
"W  c #F4F2F4",
"r  c #1C3E64",
"6  c #F4F2FC",
"9  c #1C3E6C",
"4. c #848284",
"k  c #FCCA4C",
"s  c #D4DAE4",
"~  c #940204",
"O. c #445E7C",
".. c #FCD67C",
"J  c #445E84",
" . c #FCCA5C",
"u  c #FCFAFC",
":  c #24466C",
"5  c #6C7E94",
"1. c #DC0204",
"X  c #244674",
"i  c #DCE2EC",
"=. c #1C263C",
"H  c #6C7E9C",
"D  c #BCCAD4",
"#. c #6C0204",
"d  c #4C6684",
"I  c #3C3234",
"%. c #44464C",
"#  c #2C4E74",
"$. c #BCBECC",
"'  c #E4AE34",
"[  c #FC0204",
"V  c #7C8EA4",
".  c #1C527C",
"U  c #541E1C",
"8. c #442E2C",
"K  c #C4C6D4",
"C  c #A4AEBC",
";. c #1C0204",
"@  c #1C466C",
"7  c #D4E2E4",
"(  c #D40204",
";  c #1C4674",
"+. c #5C5E5C",
"n  c #FCC62C",
"F  c #CCCEDC",
")  c #541214",
"M  c #FCC634",
"e  c #3C5274",
"N  c #FCC63C",
"2. c #3C0E1C",
"L  c #6C869C",
"t  c #1C3A64",
"x  c #FCD26C",
">. c #AC0204",
"R  c #2C1E34",
"]  c #540604",
"E  c #1C2E4C",
"y  c #445A7C",
"}  c #244264",
"/  c #F40204",
"*  c #24426C",
"_  c #6C6E6C",
"<. c #840204",
"%  c #5456AC",
"w  c #BCC6D4",
"!  c #440A0C",
"2  c #2C4A6C",
"^  c #CC0204",
"q  c #C4CED4",
"9. c #5C0204",
"Y  c #4C1214",
"|  c #546A8C",
"0  c #0402FC",
"p  c #345274",
"f  c #ECEEEC",
"7. c #143A5C",
"-  c #1C4E74",
"S  c #7C8AA4",
"o  c #1C4E7C",
"*. c #A40204",
"Z  c #FCCE34",
"<  c #5C728C",
"q. c #0C0E0C",
"o. c #340204",
":. c #142E4C",
"6. c #640A14",
"B  c #F4F6F4",
"v  c #A4AABC",
"5. c #EC0204",
"&  c #1C426C",
"b  c #FCF2C4",
">  c #CCCAD4",
"e. c #346664",
"z  c #FCC22C",
",. c #1C3654",
/* pixels */
"    .                                                     X     ",
"  . o .                                                 O O O   ",
". o o X O                                           + @ X O X o ",
". o o # O X $                                     % & * @ @ O O ",
"= X - ; O @ : >       , < 1 2 3 3 4 1 5 6       7 8 9 & & * ;   ",
"  0 O ; ; @ & 3 q w e 8 r t 8 r t t r t y     , 3 r r 8 & &     ",
"      X @ * 9 9 * 8 r t t 8 t t 8 t r 4 u   i 2 t t 8 r 9       ",
"        p & r 8 r r t 8 t r 2 4 4 3 a 6   s 3 t 8 r t 3         ",
"          d t r t 8 t : < f             g 3 r t r t e           ",
"            h t t t y u                 , p 8 t 8 r j           ",
"              5 r d       k l l z l x       1 t r t 2           ",
"        c g     v     b l z n m M n z N     B 3 8 t 8 V         ",
"        3 * C         z z m Z m Z m m z A     S t r t e         ",
"      D t r 8 F     k z m Z m Z m Z m m z G     * t 8 *         ",
"      c 8 t r H     l n Z m Z m Z m Z m n l     e r r t u       ",
"      < r t r S     z m Z m Z m Z m Z m n l     J t 8 r K       ",
"      < t 8 t V     z n m Z m Z m Z m Z n z     J 8 t t q       ",
"      L 9 t r h     l n Z m Z m Z m Z m z A     y r t 8         ",
"      F r 8 t e     k z m m Z m Z m Z n z P I U Y T R E W       ",
"        3 t r 9 K     z n n Z m Z n m z Q ! ~ ^ / / ( ~ ) _     ",
"        d r 8 t a     ` l z n n n n z ' ] ^ [ [ [ [ [ [ ( ] {   ",
"        , } t r t |        .z z z l ..! X.[ [ [ [ [ [ [ [ X.o.  ",
"          h t 8 t t O.              +.@.[ [ [ [ [ [ [ [ [ [ #.+ ",
"        $.: r t 8 r y               %.&.[ [ [ [ [ [ [ [ [ [ *.+ ",
"      H @ * 9 r t O.    K # 3 3 2 3 =.-.[ [ [ [ [ [ [ [ [ [ -.;.",
"    X ; @ & & 8 J     q 3 t t 8 t t :.*.[ [ [ [ [ [ [ [ [ [ >.+ ",
"  . X O : & & J       4 t r 8 t r 8 ,.@.[ [ [ [ [ [ [ [ [ [ <.+ ",
"X o O O ; @ #         6 5 1 4 2 3 4 y Y 1.[ [ [ [ [ [ [ [ 1.2.3.",
". o X - ; ;                           4.#.5.[ [ [ [ [ [ / 6.7.O ",
"o . o o X                               8.9.-.[ [ [ [ ^ 0.,.O O ",
"  o o #                                   q.o.w.#.#.w.o.7.X -   ",
"    e.                                          + +       .     "
};
// This file is part of BOINC.
// http://boinc.berkeley.edu
// Copyright (C) 2013-2014 University of California
//
// BOINC is free software; you can redistribute it and/or modify it
// under the terms of the GNU Lesser General Public License
// as published by the Free Software Foundation,
// either version 3 of the License, or (at your option) any later version.
//
// BOINC is distributed in the hope that it will be useful,
// but WITHOUT ANY WARRANTY; without even the implied warranty of
// MERCHANTABILITY or FITNESS FOR A PARTICULAR PURPOSE.
// See the GNU Lesser General Public License for more details.
//
// You should have received a copy of the GNU Lesser General Public License
// along with BOINC.  If not, see <http://www.gnu.org/licenses/>.
