/* XPM */
static const char *boinc32_xpm[] = {
/* columns rows colors chars-per-pixel */
"32 32 119 2",
"+  c #11538B",
"Z  c #FFBA00",
"o. c #FFB700",
"I  c #153B73",
"/  c #134176",
"C  c #133E73",
"u  c #16457A",
"O. c #183C73",
"i  c #164277",
"p  c #163F72",
"N  c #163F73",
"1. c #14487D",
"z  c #163F74",
",  c #14487E",
"~  c #0F3E6E",
"0  c #163C70",
"%. c #14457A",
"8  c #163C71",
"&  c #124E85",
"m  c #144278",
"`  c #0F3E7E",
"Y  c #FFCB04",
"K  c #FFC801",
"(  c #FFC802",
"P  c #FFC500",
"b  c #17406A",
"_  c #193A6F",
"H  c #FFC200",
"n  c #174074",
"3  c #15497E",
">  c #15497F",
"4. c #154981",
"A  c #FFBF00",
"B  c #173D71",
"y  c #15467B",
"&. c #154378",
"%  c #134C81",
"'  c #FFBC00",
"h  c #15437A",
"$  c #134C87",
"O  c #11528B",
"6  c #153D70",
"9  c #153D71",
"Q  c #153D73",
".. c #1A3B6F",
")  c #184175",
"t  c #144D83",
"   c None",
"1  c #144D85",
"6. c #144D86",
"k  c #164175",
"d  c #164176",
"2  c #144A81",
"f  c #144A82",
"3. c #12538C",
"G  c #163E71",
"v  c #163E72",
"=. c #14477C",
"#. c #163E74",
"w  c #14477D",
"2. c #125087",
"q  c #14447C",
"$. c #144175",
"T  c #FFCD06",
"@. c #143E6F",
"R  c #FFCA03",
"J  c #FFC701",
"L  c #FFC702",
"U  c #FFC400",
"X. c #FFC100",
"{  c #173F72",
"x  c #15487C",
"7. c #135188",
"*  c #135189",
"]  c #173C6E",
"@  c #13518A",
",. c #173C70",
"-. c #15457B",
"4  c #15457C",
"#  c #134E86",
"j  c #154276",
"o  c #134E8A",
"!  c #FFBB00",
":  c #134B83",
"=  c #11548C",
"5. c #11548D",
":. c #134B84",
"*. c #13487E",
"8. c #11518A",
"c  c #134579",
" . c #1C3A77",
"F  c #153971",
"5  c #18406F",
"D  c #184070",
"<  c #144C83",
"X  c #125287",
"[  c #163D6D",
"e  c #144980",
"-  c #12528A",
"V  c #163D6F",
".  c #12528B",
"l  c #163D70",
"a  c #163D71",
"7  c #163D72",
";. c #163D73",
"r  c #124F86",
">. c #124F87",
"|  c #163D77",
"M  c #144075",
"g  c #12497E",
"^  c #143D72",
"<. c #143A73",
"+. c #174171",
"E  c #FFC300",
"S  c #FFC000",
"s  c #173E72",
"}  c #173E73",
";  c #135088",
"W  c #FFBD00",
/* pixels */
"                                                                ",
"    . X                                                 o O     ",
"  + @ # $                                             % & * .   ",
"= - ; # : >                                         , < 1 # * @ ",
"  ; # : 2 3 4           5 6 7 8 8 9 9 0           q w e < 1 r   ",
"    t 2 > y u i     p a s s s s s s s s s       d u 4 w e f     ",
"      g y h j k s l s s s s s s s s s 7       l z j u 4 x       ",
"        c j k v s s s s s 7 9 s 8 s s b     6 s s n j m         ",
"          M N s s s s B p                 6 s s s s n           ",
"            V B s s a                     s s s s l             ",
"              C s 8       Z A A S A S       l s s s             ",
"        D F     G       A H J K L P S A       6 s s s           ",
"        n 9 I         S U Y T T T T R E W     G 8 s s B         ",
"        Q s 9 0     Z E Y T T T T T T R H !     9 s s 8         ",
"      ~ v s s ^     S J T T T T T T T T P A     G s s l         ",
"      / v s s a     S ( T T T T T T T T L A     7 s s s )       ",
"      / v s s v     S ( T T T T T T T T L A     7 s s s _       ",
"      ` v s s 8     S J T T T T T T T T P '     ] s s l         ",
"        Q s s a     Z E Y T T T T T T R S !     G s s 8         ",
"        v s s a v     W U Y T T T T R E A         [ a 6         ",
"        { } s s 7       A S J K L P H W       |      ...        ",
"          s s s s ^       X.A A S A o.      l 9 O.              ",
"          +.s s s s B                     s s s 7 @.            ",
"          d #.s s s a                 l l s s s s v $.          ",
"        %.&.k v s 7       6 s s 8 7 s s s s s s n d j c         ",
"      *.=.h j k }       s s s s s s s s s s s #.j &.-.=.w       ",
"    < 2 > y u i       6 s s s s s s s s 7 ;.b | i -.=.> 2 :.    ",
"  >.# : 2 3 -.          s 9 6 B B 6 ,.<.          1.> f t # 2.  ",
"3.- ; # < 4.                                        2 1 # ; . 5.",
"  3.@ & :.                                            6.; . 5.  ",
"    . 7.                                                8.3.    ",
"                                                                "
};

// This file is part of BOINC.
// http://boinc.berkeley.edu
// Copyright (C) 2013-2014 University of California
//
// BOINC is free software; you can redistribute it and/or modify it
// under the terms of the GNU Lesser General Public License
// as published by the Free Software Foundation,
// either version 3 of the License, or (at your option) any later version.
//
// BOINC is distributed in the hope that it will be useful,
// but WITHOUT ANY WARRANTY; without even the implied warranty of
// MERCHANTABILITY or FITNESS FOR A PARTICULAR PURPOSE.
// See the GNU Lesser General Public License for more details.
//
// You should have received a copy of the GNU Lesser General Public License
// along with BOINC.  If not, see <http://www.gnu.org/licenses/>.
