/* XPM */
static const char *boinc_logo_xpm[] = {
/* columns rows colors chars-per-pixel */
"164 73 64 1",
"@ c #598EB0",
"C c #FFC317",
"M c #FFE495",
"V c #FFF0C5",
"> c #4A7398",
"  c #FFFFFF",
"4 c #1B4977",
"b c #EEF0F3",
"t c #A1AEBF",
"x c #27426B",
"& c #BAC5D2",
"* c #7597B3",
"8 c #FBFCFD",
", c #155282",
"D c #FFD12B",
"q c #264F7A",
"h c #8998AF",
"c c #7D93AD",
"2 c #D4DAE3",
"z c #73859F",
"< c #F7F9FA",
"B c #FFCE40",
"$ c #D7E4EC",
"N c #FFD763",
"7 c #476B8F",
"a c #3F577B",
"O c #2D739E",
"- c #0D588B",
"p c #4C6385",
"1 c #C6CFDA",
". c #0069A1",
"= c #2B6490",
"% c #F1F3F6",
"5 c #B3BDCC",
"; c #005D91",
"0 c #719CB9",
"# c #91AEC5",
"u c #7A8BA4",
"9 c #305982",
"i c #5F7492",
"A c #FFC71E",
"k c #697C98",
"6 c #E8ECF0",
"f c #213E69",
"g c #2B466E",
"s c #445D80",
"+ c #4F7EA2",
"o c #046BA3",
"m c #FFFAE9",
"Z c #FFFDF6",
"3 c #6388A8",
": c #F3F5F8",
"w c #ABB7C7",
"d c #546A8A",
"r c #E2E6EC",
"j c #203C66",
"X c #006298",
"l c #395378",
"e c #1E426E",
"y c #98A5B9",
"S c #FFCC24",
"n c #324C73",
"v c #5A6F8E",
"~ c None",
/* pixels */
"~~~~~~~~~~~~~~~~~~~~~~~~~~~~~~~~~~~~~~~~~~~~~~~~~~~~~~~~~~~~~~~~~~~~~~~~~~~~~~~~~~~~~~~~~~~~~~~~~~~~~~~~~~~~~~~~~~~~~~~~~~~~~~~~~~~~~~~~~~~~~~~~~~~~~~~~~~~~~~~~~~~~",
"~~~~~~~~~~~~~~~~~~~~~~~~~~~~~~~~~~~~~~~~~~~~~~~~~~~~~~~~~~~~~~~~~~~~~~~~~~~~~~~~~~~~~~~~~~~~~~~~~~~~~~~~~~~~~~~~~~~~~~~~~~~~~~~~~~~~~~~~~~~~~~~~~~~~~~~~~~~~~~~~~~~~",
"~~~~~~~~~~~~~~~~~~~~~~~~~~~~~~~~~~~~~~~~~~~~~~~~~~~~~~~~~~~~~~~~~~~~~~~~~~~~~~~~~~~~~~~~~~~~~~~~~~~~~~~~~~~~~~~~~~~~~~~~~~~~~~~~~~~~~~~~~~~~~~~~~~~~~~~~~~~~~~~~~~~~",
"~~~~~~~~~~~~~~~~~~~~~~~~~~~~~~~~~~~~~~~~~~~~~~~~~~~~~~~~~~~~~~~~~~~~~~~~~~~~~~~~~~~~~~~~~~~~~~~~~~~~~~~~~~~~~~~~~~~~~~~~~~~~~~~~~~~~~~~~~~~~~~~~~~~~~~~~~~~~~~~~~~~~",
"~~~~.............XXXXXXoO+@#$~~~~~~~~~~~~~~~~~~~~~~~~~~~~~~~~~~~~~~~~~~~~~~~~~~~~~~~~~~~~~~%&*+O=-----;;;XXXXXXX................................................~~~~",
"~~~~.............XXXXXX;;;;--O#:~~~~~~~~~~~~~~~~~~~~~~~~~~~~~~~~~~~~~~~~~~~~~~~~~~~~~~~~~&>,,,,,------;;;;XXXXXX................................................~~~~",
"~~~~............XXXXXX;;;;-----=#<~~~~~~~~~~~~~~~~~~~~~~~~~~~~~~~~~~~~~~~~~~~~~~~~~~~~~1>,,,,,,,,------;;;;XXXXXX...............................................~~~~",
"~~~~...........XXXXXX;;;;------,,=2~~~~~~~~~~~~~~~~~~~~~~~~~~~~~~~~~~~~~~~~~~~~~~~~~~<344,,,,,,,,,------;;;;XXXXXX..............................................~~~~",
"~~~~...........XXXXXX;;;-------,,,,5~~~~~~~~~~~~~~~~~~~~~~~~~~~~~~~~~~~~~~~~~~~~~~~~674444,,,,,,,,-------;;;XXXXXX..............................................~~~~",
"~~~~..........XXXXXX;;;;------,,,,,,*8~~~~~~~~~~~~~~~~~~~~~~~~~~~~~~~~~~~~~~~~~~~~~19444444,,,,,,,,------;;;;XXXXXX.............................................~~~~",
"~~~~~~~~~~~~~~~~~~~~~~~1&0O--,,,,,,,,3<~~~~~~~~~~~~~~~~~~~~~~~~~~~~~~~~~~~~~~~~~~~1q44444444,93w12~~~~~~~~~~~~~~~~~~~~~~~~~~~~~~~~~~~~~~~~~~~~~~~~~~~~~~~~~~~~~~~~~~",
"~~~~~~~~~~~~~~~~~~~~~~~~~~~2@-,,,,,,44>%~~~~~~~~~~~~~~~~~~~~~~~~~~~~~~~~~~~~~~~~~&444444444=w8~~~~~~~~~~~~~~~~~~~~~~~~~~~~~~~~~~~~~~~~~~~~~~~~~~~~~~~~~~~~~~~~~~~~~~",
"~~~~~~~~~~~~~~~~~~~~~~~~~~~~~2=,,,,444476~~~~~~~~~~~~~~~~~~~~~~~~~~~~~~~~~~~~~~~54ee444444#8~~~~~~~~~~~~~~~~~~~~~~~~~~~~~~~~~~~~~~~~~~~~~~~~~~~~~~~~~~~~~~~~~~~~~~~~",
"~~~~~~~~~~~~~~~~~~~~~~~~~~~~~~:3,,4444449r~~~~~~~~~~~~~~~~~~~~~~~~~~~~~~~~~~~~~weeeee44491~~~~~~~~~~~~~~~~~~~~~~~~~~~~~~~~~~~~~~~~~~~~~~~~~~~~~~~~~~~~~~~~~~~~~~~~~~",
"~~~~~~~~~~~~~~~~~~~~~~~~~~~~~~~~*,444444492~~~~~~~~~~~~~~~~~~~~~~~~~~~~~~~~~~~teeeeeee49$~~~~~~~~~~~~~~~~~~~~~~~~~~~~~~~~~~~~~~~~~~~~~~~~~~~~~~~~~~~~~~~~~~~~~~~~~~~",
"~~~~~~~~~~~~~~~~~~~~~~~~~~~~~~~~~y44444444q1~~~~~~~~~~rwyuipasduy18~~~~~~~~~~tfffeeeee9$~~~~~~~~~~~~~~~~~~~~~~~~~~~~~~~~~~~~~~~~~~~~~~~~~~~~~~~~~~~~~~~~~~~~~~~~~~~~",
"~~~~~~~~~~~~~~~~~~~~~~~~~~~~~~~~~~#444444eeg&~~~~~~rhajjjjjjjjjjjjgk&8~~~~~~yjfffffeel$~~~~~~~~~~~~~~~~~~~~~~~~~~~~~~~~~~~~~~~~~~~~~~~~~~~~~~~~~~~~~~~~~~~~~~~~~~~~~",
"~~~~~~~~~~~~~~~~~~~~~~~~~~~~~~~~~~~w4444eeeeew~~~rkjjjjjjjjjjjjjjjjjz8~~~~~hjjjffffflr~~~~~~~~~~~~~~~~~~~~~~~~~~~~~~~~~~~~~~~~~~~~~~~~~~~~~~~~~~~~~~~~~~~~~~~~~~~~~~",
"~~~~~~~~~~~~~~~~~~~~~~~~~~~~~~~~~~~~&44eeeeefey:hxjjjjjjjjjjjjjjjjjk8~~~~~hjjjjjffflr~~~~~~~~~~~~~~~~~~~~~~~~~~~~~~~~~~~~~~~~~~~~~~~~~~~~~~~~~~~~~~~~~~~~~~~~~~~~~~~",
"~~~~~~~~~~~~~~~~~~~~~~~~~~~~~~~~~~~~~1qeeeeefffgjjjjjjjjjjjjjjjjjjk8~~~~~ujjjjjjjflr~~~~~~~~~~~~~~~~~~~~~~~~~~~~~~~~~~~~~~~~~~~~~~~~~~~~~~~~~~~~~~~~~~~~~~~~~~~~~~~~",
"~~~~~~~~~~~~~~~~~~~~~~~~~~~~~~~~~~~~~~1qeeeffffjjjjjjjjjjjjjjjjjjk8~~~~8zjjjjjjjjlr~~~~~~~~~~~~~~~~~~~~~~~~~~~~~~~~~~~~~~~~~~~~~~~~~~~~~~~~~~~~~~~~~~~~~~~~~~~~~~~~~",
"~~~~lllllllllllllllllllpiuh18~~~~~~~~~~2leffffjjjjjjjjjxicy51&thw~~~~~8zjjjjjjjjar~~~~~~~~~~~~~~~~~~~~~~~~~65yhhhhhhhhhhht&:~~~~~~~~~~~~~~~~~86$2222222222222222~~~~",
"~~~~jjjjjjjjjjjjjjjjjjjjjjjjl5~~~~~~~~~~rlfffjjjjjjjjvw%~~~~~~~~~~~~~8kjjjjjjjjar~~~~~~~~uuuuuuuu~~~~~~~~&pjjjjjjjjjjjjjjjjfk2~~~~~~~~~~~~<tvxjjjjjjjjjjjjjjjjjj~~~~",
"~~~~jjjjjjjjjjjjjjjjjjjjjjjjjjh~~~~~~~~~~rsfjjjjjjjd1~~~~~~~~~~~~~~~~kjjjjjjjja6~~~~~~~~~jjjjjjju~~~~~~<ujjjjjjjjjjjjjjjjjjjjfy~~~~~~~~~~1ljjjjjjjjjjjjjjjjjjjjj~~~~",
"~~~~jjjjjjjjjjjjjjjjjjjjjjjjjjj1~~~~~~~~~~bpjjjjjjc8~~~~~~~~~~~~~~~~~1ljjjjjjjc~~~~~~~~~~jjjjjjju~~~~~~zjjjjjjjjjjjjjjjjjjjjjjjy~~~~~~~~&xjjjjjjjjjjjjjjjjjjjjjj~~~~",
"~~~~jjjjjjjjjjjjjjjjjjjjjjjjjjji~~~~~~~~~~~%djjjx5~~~~~~~~~~~~~~~~~~~~6djjjjjjf2~~~~~~~~~jjjjjjju~~~~~5jjjjjjjjjjjjjjjjjjjjjjjjj1~~~~~~rgjjjjjjjjjjjjjjjjjjjjjjj~~~~",
"~~~~jjjjjjjiiiiiiiiiiipnjjjjjjjg~~~~~~~~~~~~<ijjw~~~~~~~mMNBBNMV~~~~~~~%sjjjjjjd~~~~~~~~~jjjjjjju~~~~8sjjjjjjjjjjjjjjjjjjjjjjjjjs8~~~~~ujjjjjjjjjjjjjjjjjjjjjjjj~~~~",
"~~~~jjjjjjj~~~~~~~~~~~~85fjjjjjj:~~~~~~~~~~~~8kh~~~~~~VNCCCCCCCCBV~~~~~~rnjjjjjj&~~~~~~~~jjjjjjju~~~~2jjjjjjjnvzzzzzzzzvnjjjjjjjj&~~~~:xjjjjjjjjflaaaaaaaaaaaaaa~~~~",
"~~~~jjjjjjj~~~~~~~~~~~~~~kjjjjjjb~~~~~~5b~~~~~8~~~~~~MCCCCCCCCCCCCNZ~~~~~5jjjjjji~~~~~~~~jjjjjjju~~~~tjjjjjjk%~~~~~~~~~~:zjjjjjjju~~~~&jjjjjjjg58~~~~~~~~~~~~~~~~~~~",
"~~~~jjjjjjj~~~~~~~~~~~~~~hjjjjjjb~~~~~~la$~~~~~~~~~~MCCAAAAAAAAACCCN~~~~~~pjjjjjjr~~~~~~~jjjjjjju~~~~hjjjjjxb~~~~~~~~~~~~:njjjjjjv~~~~tjjjjjjjt~~~~~~~~~~~~~~~~~~~~~",
"~~~~jjjjjjj~~~~~~~~~~~~~~ujjjjjj:~~~~~2ffg1~~~~~~~~VCCAASSSSSSSAACCCN~~~~~1jjjjjjy~~~~~~~jjjjjjju~~~~ujjjjjs~~~~~~~~~~~~~~vjjjjjjs~~~~hjjjjjjj6~~~~~~~~~~~~~~~~~~~~~",
"~~~~jjjjjjj~~~~~~~~~~~~~:ljjjjja~~~~~~yffjx1~~~~~~ZSCASSDDDDDDDSSACCCV~~~~~ajjjjjv~~~~~~~jjjjjjju~~~~zjjjjjv~~~~~~~~~~~~~~zjjjjjja~~~~hjjjjjjx~~~~~~~~~~~~~~~~~~~~~~",
"~~~~jjjjjjj&&&&&&&&&&&wyajjjjjjh~~~~~~iffjjg:~~~~~MCASSDDDDDDDDDSSACCN~~~~~cjjjjjg8~~~~~~jjjjjjju~~~~zjjjjjv~~~~~~~~~~~~~~zjjjjjja~~~~hjjjjjjg~~~~~~~~~~~~~~~~~~~~~~",
"~~~~jjjjjjjjjjjjjjjjjjjjjjjjjjd<~~~~~~lffjjj1~~~~~BAASDDDDDDDDDDDSAACCZ~~~~1jjjjjj2~~~~~~jjjjjjju~~~~ujjjjjv~~~~~~~~~~~~~~zjjjjjja~~~~hjjjjjjg~~~~~~~~~~~~~~~~~~~~~~",
"~~~~jjjjjjjjjjjjjjjjjjjjjjjjny<~~~~~~~xffjjj&~~~~mCASDDDDDDDDDDDDDSACCV~~~~rjjjjjj1~~~~~~jjjjjjju~~~~ujjjjjv~~~~~~~~~~~~~~zjjjjjja~~~~hjjjjjjg~~~~~~~~~~~~~~~~~~~~~~",
"~~~~jjjjjjjjjjjjjjjjjjjjjjsh2~~~~~~~~%fffjjj1~~~~VCASDDDDDDDDDDDDDSACCM~~~~8jjjjjj5~~~~~~jjjjjjju~~~~ujjjjjv~~~~~~~~~~~~~~zjjjjjja~~~~hjjjjjjg~~~~~~~~~~~~~~~~~~~~~~",
"~~~~jjjjjjjjjjjjjjjjjjjjjjjjjd2~~~~~~rffjjjj2~~~~VCASDDDDDDDDDDDDDSACCM~~~~~njjjjjt~~~~~~jjjjjjju~~~~ujjjjjv~~~~~~~~~~~~~~zjjjjjja~~~~hjjjjjjg~~~~~~~~~~~~~~~~~~~~~~",
"~~~~jjjjjjjjjjjjjjjjjjjjjjjjjjf1~~~~~bfffjjj2~~~~VASDDDDDDDDDDDDDDDSACM~~~~~gjjjjjw~~~~~~jjjjjjju~~~~ujjjjjv~~~~~~~~~~~~~~zjjjjjja~~~~hjjjjjjg~~~~~~~~~~~~~~~~~~~~~~",
"~~~~jjjjjjjyyyyyyyyyyyyunjjjjjja~~~~~8effjjj5~~~~mCASDDDDDDDDDDDDDSACCM~~~~<jjjjjj&~~~~~~jjjjjjju~~~~ujjjjjv~~~~~~~~~~~~~~zjjjjjja~~~~hjjjjjjg~~~~~~~~~~~~~~~~~~~~~~",
"~~~~jjjjjjj~~~~~~~~~~~~~<djjjjjjr~~~~~nffjjjh~~~~~BASDDDDDDDDDDDDDSACCm~~~~<fjjjjj2~~~~~~jjjjjjju~~~~ujjjjjv~~~~~~~~~~~~~~zjjjjjja~~~~hjjjjjjg~~~~~~~~~~~~~~~~~~~~~~",
"~~~~jjjjjjj~~~~~~~~~~~~~~&jjjjjj&~~~~~vffjjji~~~~~MASDDDDDDDDDDDDDSACB~~~~~~pjjjjx<~~~~~~jjjjjjju~~~~ujjjjjv~~~~~~~~~~~~~~zjjjjjjl~~~~hjjjjjjg~~~~~~~~~~~~~~~~~~~~~~",
"~~~~jjjjjjj~~~~~~~~~~~~~~$jjjjjjw~~~~~hffjjjfb~~~~mSASDDDDDDDDDDDSAACV~~~~~~2gjjjp~~~~~~~jjjjjjju~~~~ujjjjjv~~~~~~~~~~~~~~zjjjjjjl~~~~hjjjjjjx~~~~~~~~~~~~~~~~~~~~~~",
"~~~~jjjjjjj~~~~~~~~~~~~~~2jjjjjjw~~~~~1ffjjjjt~~~~~MASSDDDDDDDDDSSACN~~~~~~~~1njjh~~~~~~~jjjjjjju~~~~ujjjjjv~~~~~~~~~~~~~~zjjjjjjl~~~~hjjjjjjjb~~~~~~~~~~~~~~~~~~~~~",
"~~~~jjjjjjj~~~~~~~~~~~~~~yjjjjjjw~~~~~<nffjjjl<~~~~~NASSDDDDDDDSSACBZ~~~~~~~~~raj2~~~~~~~jjjjjjju~~~~ujjjjjd~~~~~~~~~~~~~~zjjjjjjl~~~~tjjjjjjjw~~~~~~~~~~~~~~~~~~~~~",
"~~~~jjjjjjj~~~~~~~~~~~~<wgjjjjjjw~~~~~~hffjjjjh~~~~~~NAASSSSSSSAACBm~~~~~~~~~~~bu~~~~~~~~jjjjjjju~~~~ujjjjjd~~~~~~~~~~~~~~ujjjjjjl~~~~&jjjjjjjn58~~~~~~~~~~~~~~~~~~~",
"~~~~jjjjjjjaaaaaaaaaaanjjjjjjjjj&~~~~~~rffjjjjx2~~~~~~MBAAAAAAAAAMZ~~~~~%k6~~~~~~~~~~~~~~jjjjjjju~~~~ujjjjjd~~~~~~~~~~~~~~ujjjjjjl~~~~%fjjjjjjjjflaaaaaaaaaaaaaa~~~~",
"~~~~jjjjjjjjjjjjjjjjjjjjjjjjjjjj$~~~~~~~zffjjjjl6~~~~~~ZMNBACSNMm~~~~~~8vjar~~~~~~~~~~~~~jjjjjjju~~~~ujjjjjd~~~~~~~~~~~~~~ujjjjjjl~~~~~kjjjjjjjjjjjjjjjjjjjjjjjj~~~~",
"~~~~jjjjjjjjjjjjjjjjjjjjjjjjjjjp~~~~~~~~bnfjjjjjp6~~~~~~~~~~~~~~~~~~~~8zjjjl2~~~~~~~~~~~~jjjjjjju~~~~ujjjjjd~~~~~~~~~~~~~~ujjjjjjl~~~~~2xjjjjjjjjjjjjjjjjjjjjjjj~~~~",
"~~~~jjjjjjjjjjjjjjjjjjjjjjjjjjx1~~~~~~~~~wffjjjjjn1~~~~~~~~~~~~~~~~~~6djjjjjn2~~~~~~~~~~~jjjjjjju~~~~ujjjjjd~~~~~~~~~~~~~~ujjjjjjl~~~~~~tjjjjjjjjjjjjjjjjjjjjjjj~~~~",
"~~~~jjjjjjjjjjjjjjjjjjjjjjjjjn&~~~~~~~~~~hffjjjjjjnb~~~~~~~~~~~~~~~~5njjjjjjjg1~~~~~~~~~~jjjjjjju~~~~ujjjjjd~~~~~~~~~~~~~~ujjjjjjl~~~~~~~wxjjjjjjjjjjjjjjjjjjjjj~~~~",
"~~~~jjjjjjjjjjjjjjjjjjjjjjfpy%~~~~~~~~~~hffffjjjjn2~~~~~~~~~~~~~~%tpjjjjjjjjjjx&~~~~~~~~~jjjjjjju~~~~ujjjjjd~~~~~~~~~~~~~~ujjjjjjl~~~~~~~~rcnjjjjjjjjjjjjjjjjjjj~~~~",
"~~~~wwwwwwwwwwwwwwwwwww&268~~~~~~~~~~~~heeffffjjn2~~~~~b&126%r&ykxjjjjjjjjjjjjjfw~~~~~~~~~~~~~~~~~~~~~~~~~~~~~~~~~~~~~~~~~~~~~~~~~~~~~~~~~~~8$&5wwwwwwwwwwwwwwww~~~~",
"~~~~~~~~~~~~~~~~~~~~~~~~~~~~~~~~~~~~~~heeeeffffn2~~~~~2njjjjjjjjjjjjjjjjjjjjjjjjjt~~~~~~~~~~~~~~~~~~~~~~~~~~~~~~~~~~~~~~~~~~~~~~~~~~~~~~~~~~~~~~~~~~~~~~~~~~~~~~~~~~",
"~~~~~~~~~~~~~~~~~~~~~~~~~~~~~~~~~~~~~c4eeeeefflr~~~~~2njjjjjjjjjjjjjjjjjjjjjjjjjjfy~~~~~~~~~~~~~~~~~~~~~~~~~~~~~~~~~~~~~~~~~~~~~~~~~~~~~~~~~~~~~~~~~~~~~~~~~~~~~~~~~",
"~~~~~~~~~~~~~~~~~~~~~~~~~~~~~~~~~~~~c44eeeeefar~~~~~2njjjjjjjjjjjjjjjjjnt&gjjjjjfffc~~~~~~~~~~~~~~~~~~~~~~~~~~~~~~~~~~~~~~~~~~~~~~~~~~~~~~~~~~~~~~~~~~~~~~~~~~~~~~~~",
"~~~~~~~~~~~~~~~~~~~~~~~~~~~~~~~~~~~c4444eeees6~~~~~$njjjjjjjjjjjjjjjjxh%~~2njjjfffffu8~~~~~~~~~~~~~~~~~~~~~~~~~~~~~~~~~~~~~~~~~~~~~~~~~~~~~~~~~~~~~~~~~~~~~~~~~~~~~~",
"~~~~~~~~~~~~~~~~~~~~~~~~~~~~~~~~~~*444444ees6~~~~~~1kgjjjjjjjjjjjjjdy6~~~~~$ljfffffeek8~~~~~~~~~~~~~~~~~~~~~~~~~~~~~~~~~~~~~~~~~~~~~~~~~~~~~~~~~~~~~~~~~~~~~~~~~~~~~",
"~~~~~~~~~~~~~~~~~~~~~~~~~~~~~~~~~*444444447b~~~~~~~~~81cipnfjjgpztr~~~~~~~~~6sfffeeeeei<~~~~~~~~~~~~~~~~~~~~~~~~~~~~~~~~~~~~~~~~~~~~~~~~~~~~~~~~~~~~~~~~~~~~~~~~~~~~",
"~~~~~~~~~~~~~~~~~~~~~~~~~~~~~~~~*,44444447%~~~~~~~~~~~~~~~~8%~~~~~~~~~~~~~~~~%dfeeeeee4>%~~~~~~~~~~~~~~~~~~~~~~~~~~~~~~~~~~~~~~~~~~~~~~~~~~~~~~~~~~~~~~~~~~~~~~~~~~~",
"~~~~~~~~~~~~~~~~~~~~~~~~~~~~~~<3,,444444>:~~~~~~~~~~~~~~~~~~~~~~~~~~~~~~~~~~~~<ieeeee4447r~~~~~~~~~~~~~~~~~~~~~~~~~~~~~~~~~~~~~~~~~~~~~~~~~~~~~~~~~~~~~~~~~~~~~~~~~~",
"~~~~~~~~~~~~~~~~~~~~~~~~~~~~~$>,,,,4444+<~~~~~~~~~~~~~~~~~~~~~~~~~~~~~~~~~~~~~~8zeee44444q&~~~~~~~~~~~~~~~~~~~~~~~~~~~~~~~~~~~~~~~~~~~~~~~~~~~~~~~~~~~~~~~~~~~~~~~~~",
"~~~~~~~~~~~~~~~~~~~~~~~~~~~60-,,,,,,44+<~~~~~~~~~~~~~~~~~~~~~~~~~~~~~~~~~~~~~~~~~ce44444444+2~~~~~~~~~~~~~~~~~~~~~~~~~~~~~~~~~~~~~~~~~~~~~~~~~~~~~~~~~~~~~~~~~~~~~~~",
"~~~~~~~~~~~~~~~~~~~~~~~%$w@--,,,,,,,,38~~~~~~~~~~~~~~~~~~~~~~~~~~~~~~~~~~~~~~~~~~~y444444444,>#268~~~~~~~~~~~~~~~~~~~~~~~~~~~~~~~~~~~~~~~~~~~~~~~~~~~~~~~~~~~~~~~~~~",
"~~~~ooooooooo..XXXXXX;;;------,,,,,,*8~~~~~~~~~~~~~~~~~~~~~~~~~~~~~~~~~~~~~~~~~~~~~wq444444,,,,,,,-------;;;XXXXXX..oooooooooooooooooooooooooooooooooooooooooooo~~~~",
"~~~~...........XXXXXX;;;-------,,,,#~~~~~~~~~~~~~~~~~~~~~~~~~~~~~~~~~~~~~~~~~~~~~~~~294444,,,,,,,,-------;;;XXXXXX..............................................~~~~",
"~~~~...........XXXXXX;;;;------,,=1~~~~~~~~~~~~~~~~~~~~~~~~~~~~~~~~~~~~~~~~~~~~~~~~~~6>44,,,,,,,,,------;;;;XXXXXX..............................................~~~~",
"~~~~............XXXXXX;;;;------06~~~~~~~~~~~~~~~~~~~~~~~~~~~~~~~~~~~~~~~~~~~~~~~~~~~~8w=,,,,,,,,------;;;;XXXXXX...............................................~~~~",
"~~~~.............XXXXXX;;;;---@$~~~~~~~~~~~~~~~~~~~~~~~~~~~~~~~~~~~~~~~~~~~~~~~~~~~~~~~~<#=,,,,,------;;;;XXXXXX................................................~~~~",
"~~~~.............XXXXXXX;XO0&:~~~~~~~~~~~~~~~~~~~~~~~~~~~~~~~~~~~~~~~~~~~~~~~~~~~~~~~~~~~~~2#+=-------;;;XXXXXXX................................................~~~~",
"~~~~~~~~~~~~~~~~~~~~~~~~~~~~~~~~~~~~~~~~~~~~~~~~~~~~~~~~~~~~~~~~~~~~~~~~~~~~~~~~~~~~~~~~~~~~~~~~~~~~~~~~~~~~~~~~~~~~~~~~~~~~~~~~~~~~~~~~~~~~~~~~~~~~~~~~~~~~~~~~~~~~",
"~~~~~~~~~~~~~~~~~~~~~~~~~~~~~~~~~~~~~~~~~~~~~~~~~~~~~~~~~~~~~~~~~~~~~~~~~~~~~~~~~~~~~~~~~~~~~~~~~~~~~~~~~~~~~~~~~~~~~~~~~~~~~~~~~~~~~~~~~~~~~~~~~~~~~~~~~~~~~~~~~~~~",
"~~~~~~~~~~~~~~~~~~~~~~~~~~~~~~~~~~~~~~~~~~~~~~~~~~~~~~~~~~~~~~~~~~~~~~~~~~~~~~~~~~~~~~~~~~~~~~~~~~~~~~~~~~~~~~~~~~~~~~~~~~~~~~~~~~~~~~~~~~~~~~~~~~~~~~~~~~~~~~~~~~~~",
"~~~~~~~~~~~~~~~~~~~~~~~~~~~~~~~~~~~~~~~~~~~~~~~~~~~~~~~~~~~~~~~~~~~~~~~~~~~~~~~~~~~~~~~~~~~~~~~~~~~~~~~~~~~~~~~~~~~~~~~~~~~~~~~~~~~~~~~~~~~~~~~~~~~~~~~~~~~~~~~~~~~~"
};
// This file is part of BOINC.
// http://boinc.berkeley.edu
// Copyright (C) 2013 University of California
//
// BOINC is free software; you can redistribute it and/or modify it
// under the terms of the GNU Lesser General Public License
// as published by the Free Software Foundation,
// either version 3 of the License, or (at your option) any later version.
//
// BOINC is distributed in the hope that it will be useful,
// but WITHOUT ANY WARRANTY; without even the implied warranty of
// MERCHANTABILITY or FITNESS FOR A PARTICULAR PURPOSE.
// See the GNU Lesser General Public License for more details.
//
// You should have received a copy of the GNU Lesser General Public License
// along with BOINC.  If not, see <http://www.gnu.org/licenses/>.
