/* XPM */
static const char *boincsnooze_macmenubar_xpm[] = {
/* columns rows colors chars-per-pixel */
"64 64 131 2 ",
"   c None",
".  c #212121",
"X  c #282723",
"o  c #2A2926",
"O  c #29292A",
"+  c gray20",
"@  c #3C3D3C",
"#  c #484333",
"$  c #565133",
"%  c #001F5B",
"&  c #00235E",
"*  c #2D3C4F",
"=  c #2F3E50",
"-  c #323F51",
";  c #002360",
":  c #022C65",
">  c #022D68",
",  c #07316A",
"<  c #0D356B",
"1  c #0F386C",
"2  c #123A6F",
"3  c #002F7D",
"4  c #0A3677",
"5  c #0E3876",
"6  c #04327C",
"7  c #093579",
"8  c #163E72",
"9  c #183F72",
"0  c #354151",
"q  c #3F4957",
"w  c #394759",
"e  c #3E4B5C",
"r  c #1E426F",
"t  c #1B4174",
"y  c #2C4667",
"u  c #2F4B67",
"i  c #20436F",
"p  c #2D4768",
"a  c #2B4A69",
"s  c #334F65",
"d  c #31496B",
"f  c #355163",
"g  c #3A5263",
"h  c #234676",
"j  c #284976",
"k  c #224778",
"l  c #244979",
"z  c #2B4A7A",
"x  c #395375",
"c  c #35547D",
"v  c #395579",
"b  c #424342",
"n  c #474847",
"m  c #4B4C4B",
"M  c #51524A",
"N  c #474C51",
"B  c #4C4E50",
"V  c #43585E",
"C  c #4A5C5B",
"Z  c #5D5E54",
"A  c #566654",
"S  c #5A6654",
"D  c #586853",
"F  c #646C4F",
"G  c #767747",
"H  c #767846",
"J  c #727548",
"K  c #405660",
"L  c #4A5360",
"P  c #46566C",
"I  c #4C5E6E",
"U  c #525863",
"Y  c #525E6F",
"T  c #415673",
"R  c #4D5D72",
"E  c #445D7E",
"W  c #525F70",
"Q  c #53606F",
"!  c #666F6F",
"~  c #6C6F73",
"^  c #817D41",
"/  c #84843E",
"(  c #998C36",
")  c #959035",
"_  c #989333",
"`  c #A39A2F",
"'  c #AB9C2D",
"]  c #A19033",
"[  c #BCA723",
"{  c #BEA922",
"}  c #C8AF1E",
"|  c #CCB11D",
" . c #CEBA19",
".. c #D3B918",
"X. c #C4AC20",
"o. c #DEC413",
"O. c #E5C50F",
"+. c #E8C90E",
"@. c #F5CD08",
"#. c #FDD602",
"$. c #F7DD04",
"%. c #FEDC01",
"&. c #E1C211",
"*. c #FDE302",
"=. c #838240",
"-. c #2F5280",
";. c #365681",
":. c #375986",
">. c #3C5B84",
",. c #37588A",
"<. c #3D5E89",
"1. c #47658F",
"2. c #47668F",
"3. c #4B6689",
"4. c #556881",
"5. c #4D6B93",
"6. c #537097",
"7. c #607899",
"8. c #617B9E",
"9. c #647FA3",
"0. c #667FA2",
"q. c #6680A2",
"w. c #6882A3",
"e. c #6B84A5",
"r. c #6D85A6",
"t. c #6983A4",
"y. c #758CAB",
"u. c #778EAC",
"i. c #8297B3",
"p. c #8599B5",
"a. c #8B9FB9",
/* pixels */
"        . .                                                                                                         . .         ",
"      . . . .                                                                                                     . . . .       ",
"    . . . . . .                                                                                                 . . . . . .     ",
"  . . . . . . . .                                                                                             . . . . . . . .   ",
". . . . . . . . . .                                                                                         . . . . . . . . . . ",
". . . . . . . . . . .                                                                                     . . . . . . . . . . . ",
". . . . . . . . . . . .                                                                                 . . . . . . . . . . . . ",
"  . . . . . . . . . . . .                             . . . . . . . . . .                             . . . . . . . . . . . .   ",
"    . . . . . . . . . . . .                   . . . . . . . . . . . . . . . . .                     . . . . . . . . . . . .     ",
"      . . . . . . . . . . . .             . . . . . . . . . . . . . . . . . . . . .               . . . . . . . . . . . .       ",
"        . . . . . . . . . . . .       . . . . . . . . . . . . . . . . . . . . . . .             . . . . . . . . . . . .         ",
"          . . . . . . . . . . . . . . . . . . . . . . . . . . . . . . . . . . . .             . . . . . . . . . . . .           ",
"            . . . . . . . . . . . . . . . . . . . . . . . . . . . . . . . . . .             . . . . . . . . . . . .             ",
"              . . . . . . . . . . . . . . . . . . . . . . . . . . . . . . . .             . . . . . . . . . . . .               ",
"                . . . . . . . . . . . . . . . . . . . . . . . . . . . . . .             . . . . . . . . . . . .                 ",
"                  . . . . . . . . . . . . . . . . . . .                               . . . . . . . . . . . .                   ",
"                      . . . . . . . . . . . . . .                                   . . . . . . . . . . . .                     ",
"                        . . . . . . . . . . .                                     . . . . . . . . . . . .                       ",
"                          . . . . . . . . .                                         . . . . . . . . . . .                       ",
"                            . . . . . .                                                 . . . . . . . . . .                     ",
"                              . . . .                     . . . . .                       . . . . . . . . .                     ",
"                                . .                   . . . . . . . . o #                 Y - = - - - - * 0 L                   ",
"                  .               .               . . . . . . . . X @ M Z Q 4.9.9.q.q.t.t.5.d p d d d d y d T 8.t.t.y.          ",
"                . . .                           . . . . . . . . o $ ! ,.6 > > > > > > > > < 8 t 9 9 9 9 t 8 < > > > > < 6.      ",
"                . . . .                       . . . . . . . . . M I 9 4 8 8 2 2 8 8 8 8 8 8 8 8 8 8 8 8 8 8 8 8 8 8 2 < 2 l y.  ",
"                . . . . .                   . . . . . . . . . + W 4 , < 8 8 9 9 8 8 8 8 8 8 8 8 8 8 8 8 8 8 8 9 9 9 9 8 < > z p.",
"              . . . . . . .                 . . . . . . . . O U z ; 8 t 8 8 8 8 8 8 8 8 8 8 8 8 8 8 8 8 8 8 8 8 8 8 8 9 9 8 % 2.",
"              . . . . . . . .             . . . . . . . . . + R 2 < 8 9 8 8 8 8 8 8 8 8 8 8 8 8 8 8 8 8 8 8 8 8 8 8 8 8 9 8 > -.",
"              . . . . . . . .             . . . . . . . . . @ T < 2 8 8 8 8 8 8 8 9 8 8 8 8 8 8 8 8 8 8 8 8 9 8 8 8 8 8 8 8 < l ",
"              . . . . . . . .             . . . . . . . . . b x , 8 8 8 8 8 8 8 8 8 8 8 8 8 8 8 8 8 8 8 8 8 8 8 8 8 8 8 8 8 < l ",
"              . . . . . . . .           . . . . . . . . . . b x , 8 8 8 8 8 8 8 8 8 8 8 8 8 8 8 8 8 8 8 8 8 8 8 8 8 8 8 8 8 < l ",
"              . . . . . . . .           . . . . . . . . . . n x , 8 8 8 8 8 9 8 5 9 8 5 8 9 8 8 8 8 8 8 5 8 t 5 8 9 8 8 8 8 < l ",
"              . . . . . . . .           . . . . . . . . . . n x , 8 8 8 9 8 5 i A ) J a 8 8 9 8 8 8 8 5 K =._ D i 5 8 9 8 8 < l ",
"              . . . . . . . .           . . . . . . . . . . n x , 8 8 8 9 8 6 g ' %...S 4 5 9 8 8 8 5 5 ^ @.%.' g 6 8 9 8 8 < l ",
"              . . . . . . . .             . . . . . . . . . n x , 8 8 8 9 8 3 C } %.&.G 4 5 9 8 8 8 5 8 ( #.%.[ C 3 8 9 8 8 < l ",
"              . . . . . . . .             . . . . . . . . . b x , 8 9 8 9 8 3 C | %.O.H 4 5 9 8 8 8 5 8 ( #.%.X.C 3 8 9 8 8 < l ",
"              . . . . . . . .             . . . . . . . . . b x , 8 8 8 9 8 3 C X.%.&.J 4 5 9 8 8 8 5 8 ( #.#.[ C 3 8 9 8 8 < l ",
"              . . . . . . . .             . . . . . . . . . n x , 8 8 8 9 8 3 C X.%.&.J 4 5 9 8 8 8 5 8 ( #.#.[ C 3 8 9 8 8 < l ",
"                . . . . . . . .             . . . . . . . . B v , 8 8 8 9 8 3 C X.%.&.J 4 5 9 8 8 8 5 8 ( #.#.[ C 3 8 9 8 8 < l ",
"                . . . . . . . .               . . . . . . . B v , 8 8 8 9 8 3 C X.%.&.J 4 5 9 8 8 8 5 8 ( #.#.[ C 3 8 9 8 8 < l ",
"                . . . . . . . . .             . . . . . . . B v , 8 8 8 9 8 3 C X.%.&.J 4 5 9 8 8 8 5 8 ( #.#.[ C 3 8 9 8 8 < l ",
"                  . . . . . . . .                 . . . . . B v , 8 8 8 9 8 3 C X.%.&.J 4 5 9 8 8 8 5 8 ( #.#.[ C 3 8 9 8 8 < l ",
"                  . . . . . . . . .                 . . . . B v , 8 8 8 9 8 3 C X.%.&.J 4 5 9 8 8 8 5 8 ( #.#.[ C 3 8 9 8 8 < l ",
"                  . . . . . . . . . .                   . . B v , 8 8 8 9 8 3 C X.%.&.J 4 5 9 8 8 8 5 8 ( #.#.[ C 3 8 9 8 8 < l ",
"                    . . . . . . . . . .                       >.< 8 8 8 9 8 3 C X.%.&.J 4 5 9 8 8 8 5 8 ( #.#.[ C 3 8 9 8 8 < l ",
"                      . . . . . . . . . .                     >.8 2 8 8 9 8 3 C X.%.&.J 4 5 9 8 8 8 5 8 ( #.#.[ C 3 8 9 8 8 < l ",
"                      . . . . . . . . . . .                   :.t 2 8 8 9 8 3 C X.%.&.J 4 5 9 8 8 8 5 8 ( #.#.[ C 3 8 9 8 8 < l ",
"                    . . . . . . . . . . . .                   :.t 2 8 8 9 8 3 C X.%.&.J 4 5 9 8 8 8 5 8 ( #.#.[ C 3 8 9 8 8 < l ",
"                  . . . . . . . . . . . .                     :.t 2 8 8 9 8 3 C X.%.&.J 4 5 9 8 8 8 5 8 ( #.#.[ C 3 8 9 8 8 < l ",
"                . . . . . . . . . . . .               . . . P ;.t 2 8 8 9 8 3 C X.%.&.J 4 5 9 8 8 8 5 8 ( #.#.[ C 3 8 9 8 8 < l ",
"              . . . . . . . . . . . .               . . . . e c t 2 8 8 9 8 3 C X.%.&.J 4 5 9 8 8 8 5 8 ( #.#.[ C 3 8 9 8 8 < l ",
"            . . . . . . . . . . . .               . . . . . e c t 2 8 8 9 8 3 C X.%.&.J 4 5 9 8 8 8 5 8 ( #.#.[ C 3 8 9 8 8 < l ",
"          . . . . . . . . . . . .               . . . . . . w c t 2 9 9 9 8 3 C X.%.&.J 4 5 9 8 8 8 5 8 ( #.#.[ C 3 8 9 8 8 < l ",
"        . . . . . . . . . . . .               . . . . . . . q c t 2 8 8 9 8 3 C | *.+.G 4 4 9 8 8 8 5 8 ] %.%.X.C 3 8 9 8 8 < l ",
"      . . . . . . . . . . . .               . . . . . . . . N v 1 2 8 8 9 8 3 C X.*.o.J 4 4 9 8 8 8 5 8 ( #.$.[ C 3 8 9 8 8 < l ",
"    . . . . . . . . . . . .                 . . . . . . . . B v < 8 8 8 8 8 6 a /  .` V 5 8 9 8 8 9 8 5 F [  ./ u 6 8 9 8 8 < l ",
"  . . . . . . . . . . . .                         . . . . . B v > 8 8 8 8 8 8 9 s A V r 8 8 9 8 8 9 8 8 a C A f 9 8 8 9 8 8 < l ",
". . . . . . . . . . . .                                     ~ >., 8 8 8 8 8 9 8 4 3 6 8 9 9 8 8 8 8 8 9 4 3 3 4 8 9 8 8 8 8 < k ",
". . . . . . . . . . .                                         2.< 2 8 8 8 8 8 8 8 8 8 8 8 8 8 8 8 8 8 8 8 8 8 8 8 8 8 8 8 8 < k ",
". . . . . . . . . .                                           8.2 , 9 9 8 8 8 8 9 9 9 8 8 8 8 8 8 8 8 8 8 9 9 9 8 8 8 8 9 9 > j ",
"  . . . . . . . .                                               <.> 2 9 9 8 8 8 8 8 8 8 8 8 8 8 8 8 8 8 8 8 8 8 8 8 8 9 8 2 > 3.",
"    . . . . . .                                                 i.1 1 2 9 8 8 8 8 8 8 8 8 8 8 8 8 8 8 8 8 8 8 8 8 8 8 9 2 < t   ",
"      . . . .                                                     t.> & , < < < < < < < < < < < < < < < < < < < < < < > > t a.  ",
"        . .                                                         t.<.l k k k k k k k k k k k k k k k k k k k k k k k E       "
};
