/* XPM */
static const char *FreeBSD_xpm[] = {
"14 14 137 2",
"  	c None",
". 	c #99120F",
"+ 	c #EBA49E",
"@ 	c #B4755C",
"# 	c #B2B3B2",
"$ 	c #F1F1F1",
"% 	c #F4F4F5",
"& 	c #F2EAEA",
"* 	c #F2EBEA",
"= 	c #C0C3C2",
"- 	c #AD8674",
"; 	c #EFBAB4",
"> 	c #9E1411",
", 	c #8E0403",
"' 	c #D63128",
") 	c #FFF0ED",
"! 	c #FFFFFF",
"~ 	c #FEFDF8",
"{ 	c #FEFBF9",
"] 	c #FDF9FA",
"^ 	c #D58686",
"/ 	c #EAB0A4",
"( 	c #FFF4F2",
"_ 	c #DE6059",
": 	c #900908",
"< 	c #952C2C",
"[ 	c #DDABAA",
"} 	c #FDF3F0",
"| 	c #FCE9DC",
"1 	c #FCE9DE",
"2 	c #FCEBDA",
"3 	c #F0D4D2",
"4 	c #FACDC0",
"5 	c #F86D62",
"6 	c #AB0903",
"7 	c #A1494A",
"8 	c #7A7475",
"9 	c #FFECE5",
"0 	c #FFFAF7",
"a 	c #FDDFD8",
"b 	c #FCB49F",
"c 	c #F79C7D",
"d 	c #E38581",
"e 	c #DA8E8F",
"f 	c #D06762",
"g 	c #C10A03",
"h 	c #B54D4B",
"i 	c #80797A",
"j 	c #DCCACB",
"k 	c #F7C7B3",
"l 	c #FEEDD9",
"m 	c #F66541",
"n 	c #F71C0B",
"o 	c #E20601",
"p 	c #C40303",
"q 	c #AD0303",
"r 	c #991212",
"s 	c #852222",
"t 	c #804645",
"u 	c #C1AEA6",
"v 	c #D9968E",
"w 	c #F39B62",
"x 	c #F57B39",
"y 	c #E80200",
"z 	c #EA0000",
"A 	c #D00000",
"B 	c #BB0000",
"C 	c #A50000",
"D 	c #8F0000",
"E 	c #810101",
"F 	c #680F10",
"G 	c #BC806E",
"H 	c #C66F66",
"I 	c #E42700",
"J 	c #EB3001",
"K 	c #DF0800",
"L 	c #DC0000",
"M 	c #BD0000",
"N 	c #AB0000",
"O 	c #9E0000",
"P 	c #AD0000",
"Q 	c #940000",
"R 	c #740000",
"S 	c #D89378",
"T 	c #C48B8A",
"U 	c #CA0E00",
"V 	c #E22401",
"W 	c #DB1701",
"X 	c #CD0000",
"Y 	c #A80000",
"Z 	c #A30000",
"` 	c #BC0000",
" .	c #B20000",
"..	c #750000",
"+.	c #9F1808",
"@.	c #F7EBB8",
"#.	c #B9B9B9",
"$.	c #A80C02",
"%.	c #D61802",
"&.	c #DD2302",
"*.	c #CE1301",
"=.	c #920000",
"-.	c #B70000",
";.	c #B00000",
">.	c #860001",
",.	c #E5824E",
"'.	c #C1C2B0",
").	c #B46866",
"!.	c #C40A00",
"~.	c #D01701",
"{.	c #D52402",
"].	c #BE2102",
"^.	c #BC1101",
"/.	c #B60F00",
"(.	c #CC2603",
"_.	c #D8450F",
":.	c #E08F7C",
"<.	c #7A6F6F",
"[.	c #B22724",
"}.	c #C20600",
"|.	c #CC1701",
"1.	c #CA2302",
"2.	c #DC2F02",
"3.	c #E63B02",
"4.	c #EE4200",
"5.	c #F58C5C",
"6.	c #88736D",
"7.	c #6B6B6A",
"8.	c #B2302B",
"9.	c #C8160E",
"0.	c #D01E0B",
"a.	c #E62F0A",
"b.	c #E7480E",
"c.	c #DF8E3B",
"d.	c #74665F",
"e.	c #622623",
"f.	c #6B3626",
"                            ",
"  . + @ # $ % & * = - ; >   ",
"  , ' ) ! ~ { ] ^ / ( _ :   ",
"  < [ } } | 1 2 3 4 5 6 7   ",
"  8 9 0 a b c d e f g h i   ",
"  j k l m n o p q r s t u   ",
"  v w x y z A B C D E F G   ",
"  H I J K L M N O P Q R S   ",
"  T U V W X Y Z `  ...+.@.  ",
"  #.$.%.&.*.=.-.;.C >.,.'.  ",
"    ).!.~.{.].^./.(._.:.    ",
"    <.[.}.|.1.2.3.4.5.6.    ",
"      7.8.9.0.a.b.c.d.      ",
"            e.f.            "};
// This file is part of BOINC.
// http://boinc.berkeley.edu
// Copyright (C) 2013 University of California
//
// BOINC is free software; you can redistribute it and/or modify it
// under the terms of the GNU Lesser General Public License
// as published by the Free Software Foundation,
// either version 3 of the License, or (at your option) any later version.
//
// BOINC is distributed in the hope that it will be useful,
// but WITHOUT ANY WARRANTY; without even the implied warranty of
// MERCHANTABILITY or FITNESS FOR A PARTICULAR PURPOSE.
// See the GNU Lesser General Public License for more details.
//
// You should have received a copy of the GNU Lesser General Public License
// along with BOINC.  If not, see <http://www.gnu.org/licenses/>.
