/* XPM */
static char *GreenDot16[] = {
/* width height ncolors chars_per_pixel */
"16 16 32 2",
/* colors */
"AA s bg c None",
"BA c #00006C6C0000",
"CA c #2F2FF7F72F2F",
"DA c #4F4FFFFF4F4F",
"EA c #ABABCFCFABAB",
"FA c #00002A2A0000",
"GA c #0606C2C20606",
"HA c #C5C5CBCBC5C5",
"IA c #0202A6A60202",
"JA c #8E8E99998E8E",
"KA c #8787B8B88787",
"LA c #505083835050",
"MA c #D4D4E3E3D4D4",
"NA c #040497970404",
"OA c #E3E3F2F2E3E3",
"PA c #F0F0F4F4F0F0",
"AB c #E9E9ECECE9E9",
"BB c #010181810101",
"CB c #A2A2B3B3A2A2",
"DB c #36364F4F3636",
"EB c #000057570000",
"FB c #3232ADAD3232",
"GB c #0606B2B20606",
"HB c #000041410000",
"IB c #1F1FE1E11F1F",
"JB c #000017170000",
"KB c #1111BABA1111",
"LB c #FBFBFCFCFBFB",
"MB c #F6F6F8F8F6F6",
"NB c #20203C3C2020",
"OB c #9797D2D29797",
"PB c #7474C0C07474",
/* pixels */
"AAAAAAAAAALBMAEAEAMAMBAAAAAAAAAA",
"AAAAAALBEALABBBBNANAFBOBMBAAAAAA",
"AAAAPALAEBBBNANAIAIAIAIAFBOAAAAA",
"AALBLAEBBABBNAGBGAGAGAGBGBFBPAAA",
"AACBHBEBBABBGBIBCACACAIBGAIAPBAA",
"MBDBHBEBBABBKBCADADADADAIBIANAOA",
"HAFAHBEBBABBIAIBCADADADAIBIANAEA",
"CBFAHBHBEBBABBNAKBIBCAIBKBNABBKA",
"CBFAFAHBEBEBBABBBBNAIAIANABBBBKA",
"HAJBFAHBHBEBEBBABABABBBBBBBBBACB",
"PANBFAFAFAHBEBEBEBBABABABABAEBMA",
"AAJAJBFAFAFAHBHBEBEBEBEBEBHBLAAA",
"AAMBDBJBJBFAFAFAHBHBHBHBHBNBABAA",
"AAAAABDBJBJBJBJBFAFAFAFANBMAAAAA",
"AAAAAAMBJANBJBJBJBJBFAJAABAAAAAA",
"AAAAAAAAAAPAHAJAJAHAPAAAAAAAAAAA"};
