/* XPM */
static char *GreenDot16_xpm[] = {
/* width height ncolors chars_per_pixel */
"16 16 67 2",
/* colors */
"AA c #FFFFFFFFFFFF",
"BA c #F0F0E0E0F8F8",
"CA c #E8E8F8F8F0F0",
"DA c #E8E8E0E0F8F8",
"EA c #E0E0F8F8E8E8",
"FA c #E0E0F8F8D8D8",
"GA c #E0E0E8E8E8E8",
"HA c #D8D8F8F8E8E8",
"IA c #D8D8F8F8D8D8",
"JA c #D8D8F8F8C8C8",
"KA c #C0C0F8F8C0C0",
"LA c #C0C0F8F8B8B8",
"MA c #B8B8F8F8B0B0",
"NA c #B8B8F0F0C0C0",
"OA c #B8B8E8E8B8B8",
"PA c #B0B0F0F0A0A0",
"AB c #B0B0E8E8A8A8",
"BB c #A8A8E8E8A0A0",
"CB c #A0A0E0E09898",
"DB c #9898F8F89898",
"EB c #9898E0E0A0A0",
"FB c #9898D0D0A0A0",
"GB c #8888D0D09090",
"HB c #8888C8C88080",
"IB c #8080F8F88888",
"JB c #8080D0D07070",
"KB c #7878F8F87878",
"LB c #7878C8C87070",
"MB c #7878B8B87070",
"NB c #7070C0C06868",
"OB c #6868B8B86060",
"PB c #6868A8A85858",
"AC c #6060E8E86868",
"BC c #6060B0B05858",
"CC c #5858B0B05050",
"DC c #5858B0B04848",
"EC c #5858A8A85050",
"FC c #4848D0D04848",
"GC c #4848B0B04848",
"HC c #4848A0A04040",
"IC c #4040E0E04848",
"JC c #4040A0A03838",
"KC c #3838A0A03838",
"LC c #383898983838",
"MC c #3030D8D84040",
"NC c #3030D0D03030",
"OC c #303098982828",
"PC c #2828B0B03030",
"AD c #2828B0B02020",
"BD c #282898982828",
"CD c #282890901818",
"DD c #282888882828",
"ED c #2020C0C01818",
"FD c #2020A0A02828",
"GD c #202088881818",
"HD c #1818A0A01818",
"ID c #181890901010",
"JD c #181888881818",
"KD c #101088880808",
"LD c #0808B0B00808",
"MD c #0808A8A81818",
"ND c #0808A8A80808",
"OD c #080898981818",
"PD c #080898980808",
"AE c #080888881010",
"BE c #080888880808",
"CE c #000078780000",
/* pixels */
"AABAGAAAIAABCBBCPBCBLAFAAACADAAA",
"GAAAEANAHBDCJCGDOCOCDCMBMAEACAAA",
"KAFACBCCBDKDHDNDNDPDBELCOBBBKAIA",
"JAPACCGDPDNDLDLDLDNDHDHDBDDCCBJA",
"MANBJCFDCDMDNDNDLDNDNDHDJDLCJBMA",
"CBKCBDFDHDMDNDNDNDNDMDODIDIDCCIB",
"IBFDPDODNDMDNDNDNDNDNDMDODODPCAC",
"MCPDPDNDNDNDNDNDNDNDNDNDNDNDHDIC",
"NCPDLDNDNDLDNDNDPDNDNDNDNDNDEDNC",
"KBHDPDPDPDNDNDNDNDNDNDNDPDMDADFC",
"DBHCAEFDMDHDNDNDLDPDODMDJDJDGCIB",
"MANBLCKCBEMDNDNDNDMDLDIDJDBDLBKA",
"IAPABCKCBEPDNDLDLDNDNDAEBDOBABIA",
"FAIACBBCBDIDPDPDPDPDBEDDBCOAFAFA",
"AAAAIAOAHBECHCCELCKCECLBOAEAAAAA",
"DAAACAHACAFBEBLBLBGBNACACACADAAA"};
