/* XPM */
static const char *gridrepublic16_xpm[] = {
/* columns rows colors chars-per-pixel */
"16 16 158 2",
"s. c Black",
"p  c #E27835",
"Z. c #141314",
"3  c #FF7112",
"f  c #737474",
"w  c #FF7116",
"6  c #DC5205",
"/  c #FF6B07",
"L  c #3F464E",
",  c #C1440C",
"8. c #391D0B",
"e. c #43281C",
"W  c #FFFFFF",
"*  c #C75508",
"m  c #FF6502",
"&  c #88502D",
"y  c #E65100",
"Q  c #5A4B43",
"$  c #451904",
"e  c #FF6200",
"[  c #ADADAD",
"1. c #E4E8EB",
"l  c #2E343B",
"D. c #010101",
"P  c #D58958",
"M. c #C1C0C0",
"I  c #FE8435",
"H  c #F3F4F7",
"V. c #1F1C1D",
"x. c #1F1C1E",
"q. c #E05D04",
"s  c #DC7B40",
"9  c #82270C",
"C  c #1D2229",
"%  c #454B50",
"c. c #291E1B",
"D  c #BB4401",
"v. c #040200",
"O  c #B44602",
"{  c #DB5306",
"F  c #959A9F",
"N  c #6C4F3F",
",. c #A33D00",
"<. c #6B7A87",
"+  c #B44305",
"   c #485258",
"b  c #90461D",
"(  c #AB511A",
"g. c #2E1300",
";. c #F07621",
"2. c #B3B2B1",
"G. c #020202",
"*. c #DBDBDB",
"N. c #E0DFDF",
"a. c #1D0D04",
"#. c #000B14",
"O. c #A44A0F",
"w. c #8E4319",
"E  c #939190",
"B. c #ACABAB",
"5. c #0F0B0C",
"z  c #BC450C",
"h. c #2C0D00",
"o. c #B4BCC4",
"v  c #FD7926",
"A. c #030303",
"&. c #768088",
"x  c #FF6700",
"y. c #C3C2C2",
"i. c #17191E",
"Z  c #FD7622",
"8  c #9C300E",
">  c #D04C08",
"2  c #FF6400",
"c  c #FF6402",
"n. c #151C20",
"4  c #FF6100",
"9. c #3A322D",
"Y  c #B14703",
"u  c #E06B24",
"F. c #0B0B0B",
"J  c #BCBBBB",
"T  c #474D55",
"r. c #1A1A1C",
"i  c #F47B30",
"0  c #AF4700",
"C. c #1F1B1C",
"r  c #FD6100",
"M  c #F35900",
"<  c #652108",
"^  c #272C32",
"@. c #75401D",
"-. c #4E3324",
"K  c #3B3C3E",
"h  c #D64E00",
"t  c #F65D02",
"z. c #272324",
"V  c #7C7C7C",
"}  c #A88D7D",
":. c #693818",
"X  c #813300",
"$. c #FF7E18",
"t. c #D6D6D6",
"1  c #5C6163",
"H. c #020102",
"3. c #CCCBCB",
"a  c #CC7E4C",
"|  c #0A1822",
"X. c #9DA7AF",
"+. c #FF7E1F",
"n  c #FF7E24",
"d  c #E78647",
"k. c #434143",
"%. c #903600",
" . c #FF750E",
"g  c #FF781C",
"=. c #32353A",
"u. c #191516",
"7  c #C1480C",
"U  c #FF6C07",
"0. c #FB842E",
"S  c #FF6904",
"7. c #AA5A26",
"p. c #5E3721",
"-  c #FA6200",
"G  c #EBEAE9",
"j. c #0F0100",
")  c #CBD2D8",
"B  c #92A0AA",
".  c None",
":  c #E45506",
"=  c #E75C00",
"'  c #E4E3E4",
"o  c #A54100",
"q  c #E05E05",
";  c #F85F02",
"]  c #9C9C9C",
"~  c #B6886A",
"f. c #4E3523",
"j  c #632301",
"d. c #181918",
"4. c #B0AFB0",
"k  c #493126",
"6. c #1D2027",
"l. c #E7E7E7",
"_  c #CECDCE",
"#  c #8F3409",
"m. c #1D1A1A",
"R  c #1D1A1B",
">. c #FF8322",
"5  c #EF5B02",
"S. c #161617",
"A  c #FF832D",
"`  c #F9FAFA",
"!  c #FF8028",
"@  c #9C3A07",
".. c #7F350B",
"b. c #0A0B0B",
/* pixels */
"  . . X o O + @ # $ . . . . . . ",
"% & * = - ; : > , < . . . . . . ",
"1 2 3 2 4 5 6 7 8 9 . 0 . . . . ",
"1 q w e r t y u i p a s p d d . ",
"f q g e 2 h j k l l z x c v d . ",
". b n m M N B V C l l z c Z d . ",
". 1 A S D F G H J K L L c v P . ",
". f I U Y T R E W J l Q z ! ~ . ",
". ^ q / ( ) _ ` W ' ] [ { ! } . ",
". | b  ...X.W W W W W o.O.+.@.. ",
". #.1 $.%.&.W W W W *.=.-.;.:.. ",
". . f >.,.<.1.2.3.W 4.5.6.7.8.. ",
". . 9.0.q.w.e.r.t.W y.u.i.p.a.. ",
"s.s.d.f.g.h.j.k.W W l.z.x.c.v.s.",
"s.s.b.n.s.s.s.m.M.N.B.V.C.Z.s.. ",
". . A.S.D.s.s.s.A.F.D.G.H.s.. . "
};
// This file is part of BOINC.
// http://boinc.berkeley.edu
// Copyright (C) 2013 University of California
//
// BOINC is free software; you can redistribute it and/or modify it
// under the terms of the GNU Lesser General Public License
// as published by the Free Software Foundation,
// either version 3 of the License, or (at your option) any later version.
//
// BOINC is distributed in the hope that it will be useful,
// but WITHOUT ANY WARRANTY; without even the implied warranty of
// MERCHANTABILITY or FITNESS FOR A PARTICULAR PURPOSE.
// See the GNU Lesser General Public License for more details.
//
// You should have received a copy of the GNU Lesser General Public License
// along with BOINC.  If not, see <http://www.gnu.org/licenses/>.
