/* XPM */
static const char *hiddenheader_xpm[] = {
"205 33 27 1",
" 	c #FF00FF",
".	c #739CDE",
"X	c #004ABD",
"o	c #316BCE",
"O	c #0052CE",
"+	c #0063DE",
"@	c #5A94DE",
"#	c #ADCEF7",
"$	c #A5CEF7",
"%	c #9CC6F7",
"&	c #94C6F7",
"*	c #8CBDF7",
"=	c #4A84DE",
"-	c #8CADE7",
";	c #FFFFFF",
":	c #0148B2",
">	c #0248B2",
",	c #6B9CE7",
"<	c #639CE7",
"1	c #B5BCD9",
"2	c #5294E7",
"3	c #84ADE7",
"4	c #4A7BD6",
"5	c #7BA5E7",
"6	c #73A5E7",
"7	c #5A9CE7",
"8	c #2973D6",
"                                                                                                                                                                                                             ",
"                                                                                                                                                                                                             ",
"          .XXXXXXXXXXXXXXXXXXXXXXXXXXXX.                                                                                                                                                                     ",
"         .oXXXXXXXXXXXXXXXXXXXXXXXXXXXXo.                                                                                                                                                                    ",
"         XXXXXXXXXXXXXXXXXXXXXXXXXXXXXXXX                                                                                                                                                                    ",
"         XO++++++++++++++++++++++++++++OX                                                                                                                                                                    ",
"         X@###################$$%%%&&**=X                                                                                                                                                                    ",
"         X-;;;;;;;;;;;;;;;;;;;;;;;;;;;;.X                                                                                                                                                                    ",
"   :>>>>>X-;;;;;;;;;;;;;;;;;;;;;;;;;;;;,X>>>>>>>>>>>>>>>>>>>>>>>>>>>>>>>>>>>>>>>>>>>>>>>>>>>>>>>>>>>>>>>>>>>>>>>>>>>>>>>>>>>>>>>>>>>>>>>>>>>>>>>>>>>>>>>>>>>>>>>>>>>>>>>>>>>>>>>>>>>>>>>>>>>>>>>>>>>>>>>     ",
"  ::>>>>>X-;;;;;;;;;;;;;;;;;;;;;;;;;;;;<X>>>>>>>>>>>>>>>>>>>>>>>>>>>>>>>>>>>>>>>>>>>>>>>>>>>>>>>>>>>>>>>>>>>>>>>>>>>>>>>>>>>>>>>>>>>>>>>>>>>>>>>>>>>>>>>>>>>>>>>>>>>>>>>>>>>>>>>>>>>>>>>>>>>>>>>>>>>>>>>>    ",
" :::>>>>>X-;;;;;;;;;;;;;;;;;;;;;;;;;;;;<X>>>>>>>>>>>>>>>>>>>>>>>>>>>>>>>>>>>>>>>>>>>>>>>>>>>>>>>>>>>>>>>>>>>>>>>>>>>>>>>>>>>>>>>>>>>>>>>>>>>>>>>>>>>>>>>>>>>>>>>>>>>>>>>>>>>>>>>>>>>>>>>>>>>>>>>>>>>>>>>>>   ",
" :::>>>>>X-;;;;;;;;;;;;;;;;;;;;;;;;;;;;@X>>>>>>>>>>>>>>>>>>>>>>>>>>>>>>>>>>>>>>>>>>>>>>>>>>>>>>>>>>>>>>>>>>>>>>>>>>>>>>>>>>>>>>>>>>>>>>>>>>>>>>>>>>>>>>>>>>>>>>>>>>>>>>>>>>>>>>>>>>>>>>>>11111111>>>>>>>>>   ",
" :::>>>>>X-;;;;;;;;;;;;;;;;;;;;;;;;;;;;@X>>>>>>>>>>>>>>>>>>>>>>>>>>>>>>>>>>>>>>>>>>>>>>>>>>>>>>>>>>>>>>>>>>>>>>>>>>>>>>>>>>>>>>>>>>>>>>>>>>>>>>>>>>>>>>>>>>>>>>>>>>>>>>>>>>>>>>>>>>>>>>111111111111>>>>>>>   ",
" :::>>>>>X-;;;;;;;;;;;;;;;;;;;;;;;;;;;;@X>>>>>>>>>>>>>>>>>>>>>>>>>>>>>>>>>>>>>>>>>>>>>>>>>>>>>>>>>>>>>>>>>>>>>>>>>>>>>>>>>>>>>>>>>>>>>>>>>>>>>>>>>>>>>>>>>>>>>>>>>>>>>>>>>>>>>>>>>>>>>1111>>>>>>1111>>>>>>   ",
" :::>>>>>X-;;;;;;;;;;;;;;;;;;;;;;;;;;;;@X>>>>>>>>>>>>>>>>>>>>>>>>>>>>>>>>>>>>>>>>>>>>>>>>>>>>>>>>>>>>>>>>>>>>>>>>>>>>>>>>>>>>>>>>>>>>>>>>>>>>>>>>>>>>>>>>>>>>>>>>>>>>>>>>>>>>>>>>>>>>111>>>>>>>>>>111>>>>>   ",
" :::>>>>>X-;;;;;;;;;;;;;;;;;;;;;;;;;;;;@X>>>>>>>>>>>>>>>>>>>>>>>>>>>>>>>>>>>>>>>>>>>>>>>>>>>>>>>>>>>>>>>>>>>>>>>>>>>>>>>>>>>>>>>>>>>>>>>>>>>>>>>>>>>>>>>>>>>>>>>>>>>>>>>>>>>>>>>>>>>>11>>>>>>>>>>>>11>>>>>   ",
" :::>>>>>X-;;;;;;;;;;;;;;;;;;;;;;;;;;;;@X>>>>>>>>>>>>>>>>>>>>>>>>>>>>>>>>>>>>>>>>>>>>>>>>>>>>>>>>>>>>>>>>>>>>>>>>>>>>>>>>>>>>>>>>>>>>>>>>>>>>>>>>>>>>>>>>>>>>>>>>>>>>>>>>>>>>>>>>>>>11>>>>;;>>>;;>>>11>>>>   ",
" :::>>>>>X-;;;;;;;;;;;;;;;;;;;;;;;;;;;;2X>>>>>>>>>>>>>>>>>>>>>>>>>>>>>>>>>>>>>>>>>>>>>>>>>>>>>>>>>>>>>>>>>>>>>>>>>>>>>>>>>>>>>>>>>>>>>>>>>>>>>>>>>>>>>>>>>>>>>>>>>>>>>>>>>>>>>>>>>>>11>>>>>;;>;;>>>>11>>>>   ",
" :::>>>>>X-;;;;;;;;;;;;;;;;;;;;;;;;;;;;2X>>>>>>>>>>>>>>>>>>>>>>>>>>>>>>>>>>>>>>>>>>>>>>>>>>>>>>>>>>>>>>>>>>>>>>>>>>>>>>>>>>>>>>>>>>>>>>>>>>>>>>>>>>>>>>>>>>>>>>>>>>>>>>>>>>>>>>>>>>>11>>>>>>;;;>>>>>11>>>>   ",
" :::>>>>>X-;;;;;;;;;;;;;;;;;;;;;;;;;;;;2X>>>>>>>>>>>>>>>>>>>>>>>>>>>>>>>>>>>>>>>>>>>>>>>>>>>>>>>>>>>>>>>>>>>>>>>>>>>>>>>>>>>>>>>>>>>>>>>>>>>>>>>>>>>>>>>>>>>>>>>>>>>>>>>>>>>>>>>>>>>11>>>>>>>;>>>>>>11>>>>   ",
" :::>>>>>X-;;;;;;;;;;;;;;;;;;;;;;;;;;;;2X>>>>>>>>>>>>>>>>>>>>>>>>>>>>>>>>>>>>>>>>>>>>>>>>>>>>>>>>>>>>>>>>>>>>>>>>>>>>>>>>>>>>>>>>>>>>>>>>>>>>>>>>>>>>>>>>>>>>>>>>>>>>>>>>>>>>>>>>>>>11>>>>>>>>>>>>>>11>>>>   ",
" :::>>>>>X-;;;;;;;;;;;;;;;;;;;;;;;;;;;;2X>>>>>>>>>>>>>>>>>>>>>>>>>>>>>>>>>>>>>>>>>>>>>>>>>>>>>>>>>>>>>>>>>>>>>>>>>>>>>>>>>>>>>>>>>>>>>>>>>>>>>>>>>>>>>>>>>>>>>>>>>>>>>>>>>>>>>>>>>>>11>>>>;;>>>;;>>>11>>>>   ",
" :::>>>>>X-;;;;;;;;;;;;;;;;;;;;;;;;;;;;2X>>>>>>>>>>>>>>>>>>>>>>>>>>>>>>>>>>>>>>>>>>>>>>>>>>>>>>>>>>>>>>>>>>>>>>>>>>>>>>>>>>>>>>>>>>>>>>>>>>>>>>>>>>>>>>>>>>>>>>>>>>>>>>>>>>>>>>>>>>>11>>>>>;;>;;>>>>11>>>>   ",
" :::>>>>>X-;;;;;;;;;;;;;;;;;;;;;;;;;;;;2X>>>>>>>>>>>>>>>>>>>>>>>>>>>>>>>>>>>>>>>>>>>>>>>>>>>>>>>>>>>>>>>>>>>>>>>>>>>>>>>>>>>>>>>>>>>>>>>>>>>>>>>>>>>>>>>>>>>>>>>>>>>>>>>>>>>>>>>>>>>11>>>>>>;;;>>>>>11>>>>   ",
" :::>>>>>X3;;;;;;;;;;;;;;;;;;;;;;;;;;;;2X>>>>>>>>>>>>>>>>>>>>>>>>>>>>>>>>>>>>>>>>>>>>>>>>>>>>>>>>>>>>>>>>>>>>>>>>>>>>>>>>>>>>>>>>>>>>>>>>>>>>>>>>>>>>>>>>>>>>>>>>>>>>>>>>>>>>>>>>>>>>11>>>>>>;>>>>>11>>>>>   ",
" :::>>>>>X3;;;;;;;;;;;;;;;;;;;;;;;;;;;;2X>>>>>>>>>>>>>>>>>>>>>>>>>>>>>>>>>>>>>>>>>>>>>>>>>>>>>>>>>>>>>>>>>>>>>>>>>>>>>>>>>>>>>>>>>>>>>>>>>>>>>>>>>>>>>>>>>>>>>>>>>>>>>>>>>>>>>>>>>>>>111>>>>>>>>>>111>>>>>   ",
" :::>>>>>X435556..,,<<7@@@@@222222222228X>>>>>>>>>>>>>>>>>>>>>>>>>>>>>>>>>>>>>>>>>>>>>>>>>>>>>>>>>>>>>>>>>>>>>>>>>>>>>>>>>>>>>>>>>>>>>>>>>>>>>>>>>>>>>>>>>>>>>>>>>>>>>>>>>>>>>>>>>>>>>1111>>>>>>1111>>>>>>   ",
" :::>>>>>XXXXXXXXXXXXXXXXXXXXXXXXXXXXXXXX>>>>>>>>>>>>>>>>>>>>>>>>>>>>>>>>>>>>>>>>>>>>>>>>>>>>>>>>>>>>>>>>>>>>>>>>>>>>>>>>>>>>>>>>>>>>>>>>>>>>>>>>>>>>>>>>>>>>>>>>>>>>>>>>>>>>>>>>>>>>>>111111111111>>>>>>>   ",
" :::>>>>>>>>>>>>>>>>>>>>>>>>>>>>>>>>>>>>>>>>>>>>>>>>>>>>>>>>>>>>>>>>>>>>>>>>>>>>>>>>>>>>>>>>>>>>>>>>>>>>>>>>>>>>>>>>>>>>>>>>>>>>>>>>>>>>>>>>>>>>>>>>>>>>>>>>>>>>>>>>>>>>>>>>>>>>>>>>>>>>>11111111>>>>>>>>>   ",
" :::>>>>>>>>>>>>>>>>>>>>>>>>>>>>>>>>>>>>>>>>>>>>>>>>>>>>>>>>>>>>>>>>>>>>>>>>>>>>>>>>>>>>>>>>>>>>>>>>>>>>>>>>>>>>>>>>>>>>>>>>>>>>>>>>>>>>>>>>>>>>>>>>>>>>>>>>>>>>>>>>>>>>>>>>>>>>>>>>>>>>>>>>>>>>>>>>>>>>>>   ",
" :::>>>>>>>>>>>>>>>>>>>>>>>>>>>>>>>>>>>>>>>>>>>>>>>>>>>>>>>>>>>>>>>>>>>>>>>>>>>>>>>>>>>>>>>>>>>>>>>>>>>>>>>>>>>>>>>>>>>>>>>>>>>>>>>>>>>>>>>>>>>>>>>>>>>>>>>>>>>>>>>>>>>>>>>>>>>>>>>>>>>>>>>>>>>>>>>>>>>>>>   ",
" :::>>>>>>>>>>>>>>>>>>>>>>>>>>>>>>>>>>>>>>>>>>>>>>>>>>>>>>>>>>>>>>>>>>>>>>>>>>>>>>>>>>>>>>>>>>>>>>>>>>>>>>>>>>>>>>>>>>>>>>>>>>>>>>>>>>>>>>>>>>>>>>>>>>>>>>>>>>>>>>>>>>>>>>>>>>>>>>>>>>>>>>>>>>>>>>>>>>>>>>   ",
" :::>>>>>>>>>>>>>>>>>>>>>>>>>>>>>>>>>>>>>>>>>>>>>>>>>>>>>>>>>>>>>>>>>>>>>>>>>>>>>>>>>>>>>>>>>>>>>>>>>>>>>>>>>>>>>>>>>>>>>>>>>>>>>>>>>>>>>>>>>>>>>>>>>>>>>>>>>>>>>>>>>>>>>>>>>>>>>>>>>>>>>>>>>>>>>>>>>>>>>>   "};
