/* XPM */
static const char *intelgpuicon2_xpm[] = {
"13 16 139 2",
"  	c #0A78BB",
". 	c #057AC1",
"+ 	c #0A7ABF",
"@ 	c #047AC0",
"# 	c #A5BEDC",
"$ 	c #9EBCDE",
"% 	c #2282C6",
"& 	c #4B8FCA",
"* 	c #679ECF",
"= 	c #9BB8D8",
"- 	c #097DC5",
"; 	c #4E91CA",
"> 	c #167DC1",
", 	c #C9D9E8",
"' 	c #8CB7D7",
") 	c #067BC3",
"! 	c #A6BEDC",
"~ 	c #AAC5E0",
"{ 	c #DCE8F0",
"] 	c #D8E2EC",
"^ 	c #A9C6DF",
"/ 	c #CCDAE7",
"( 	c #C5D7E7",
"_ 	c #CBDEEC",
": 	c #9BB9D8",
"< 	c #C8D5E4",
"[ 	c #027DC5",
"} 	c #047BC2",
"| 	c #C3D5E6",
"1 	c #B9CDE5",
"2 	c #93BADD",
"3 	c #C1D0E0",
"4 	c #CEDCE9",
"5 	c #B0C5DD",
"6 	c #8DAFD1",
"7 	c #C8D5E5",
"8 	c #047CC2",
"9 	c #508EC8",
"0 	c #5190C9",
"a 	c #5F95CB",
"b 	c #5992C9",
"c 	c #3086C7",
"d 	c #7CA5D3",
"e 	c #468AC7",
"f 	c #85AAD3",
"g 	c #2181C5",
"h 	c #6295CA",
"i 	c #82ACD4",
"j 	c #88B9DF",
"k 	c #B3CFE5",
"l 	c #7DA8D1",
"m 	c #88ADD4",
"n 	c #9BBBDA",
"o 	c #8DAED1",
"p 	c #A7C8E3",
"q 	c #8DB2D6",
"r 	c #81ABD4",
"s 	c #96B9D8",
"t 	c #057CC2",
"u 	c #78A4D0",
"v 	c #8EBADA",
"w 	c #8EB2D6",
"x 	c #80AAD1",
"y 	c #92B4D5",
"z 	c #4C90C9",
"A 	c #6697C7",
"B 	c #96BCDA",
"C 	c #7DA7D1",
"D 	c #79A7D3",
"E 	c #85AED1",
"F 	c #057BC3",
"G 	c #137BC0",
"H 	c #A3BDDC",
"I 	c #ADC5E0",
"J 	c #ABC3DE",
"K 	c #4188C6",
"L 	c #78A0CB",
"M 	c #FFFFFF",
"N 	c #FCFEFD",
"O 	c #FEFEFE",
"P 	c #FEFFFD",
"Q 	c #A8BDDA",
"R 	c #7AA0CB",
"S 	c #EAF1F2",
"T 	c #DAE4EC",
"U 	c #D9E4EC",
"V 	c #D0DCE5",
"W 	c #CEDDE7",
"X 	c #C1D2E1",
"Y 	c #F9FBFC",
"Z 	c #A9BED9",
"` 	c #FCFDFD",
" .	c #D8E7EB",
"..	c #E1E8EC",
"+.	c #EDF2F3",
"@.	c #D0DCE6",
"#.	c #EBF1F3",
"$.	c #CEDCE7",
"%.	c #E9F2F1",
"&.	c #CBD7E6",
"*.	c #D8E2E9",
"=.	c #D6E3ED",
"-.	c #99B7D4",
";.	c #B5C9DB",
">.	c #AAC7DE",
",.	c #81A5C8",
"'.	c #92B2D1",
").	c #D7E3EB",
"!.	c #DEE6EF",
"~.	c #D2DCE7",
"{.	c #E4EDF2",
"].	c #DAE5EB",
"^.	c #E7EDF2",
"/.	c #DDE7ED",
"(.	c #CEDCE5",
"_.	c #D4E2EA",
":.	c #DEE8EC",
"<.	c #FFFEFE",
"[.	c #FBFDFD",
"}.	c #BBCDDD",
"|.	c #B2C6DC",
"1.	c #B9CEE5",
"2.	c #AEC1D9",
"3.	c #A9C2DA",
"4.	c #B4C8DC",
"5.	c #F9FAFA",
"6.	c #6797C9",
"7.	c #FDFEFD",
"8.	c #FEFFFF",
"9.	c #FEFFFE",
"0.	c #FCFFFF",
"a.	c #FDFFFF",
"b.	c #FFFFFE",
"c.	c #9CB8D6",
"d.	c #1078BC",
"e.	c #6898C8",
"f.	c #7AA1CA",
"g.	c #759FCA",
"h.	c #147ABF",
"  . . . . . . . . . . . + ",
"@ # $ % & * = - ; > , ' ) ",
"@ ! ~ { ] ^ / ( _ : < [ } ",
"@ ! ~ | 1 2 3 4 5 6 7 [ 8 ",
"@ 9 0 a b c d e f g h [ 8 ",
"@ i j k l m n o p q r s t ",
"@ u v w x y z A B C D E F ",
"G H I I I I I I I I I J K ",
"L M M M M M M N O M M P Q ",
"R M M M S T U V W X Y O Z ",
"R M `  ...+.@.#.$.%.&.O Z ",
"R M *.=.-.;.>.,.'.).!.O Z ",
"R M ~.{.].^./.(._.:.<.O Z ",
"R M [.}.|.1.2.3.4.5.M O Z ",
"6.7.M 8.9.0.a.b.8.M M 7.c.",
"d.e.f.f.f.f.f.f.f.f.f.g.h."};
// This file is part of BOINC.
// https://boinc.berkeley.edu
// Copyright (C) 2018 University of California
//
// BOINC is free software; you can redistribute it and/or modify it
// under the terms of the GNU Lesser General Public License
// as published by the Free Software Foundation,
// either version 3 of the License, or (at your option) any later version.
//
// BOINC is distributed in the hope that it will be useful,
// but WITHOUT ANY WARRANTY; without even the implied warranty of
// MERCHANTABILITY or FITNESS FOR A PARTICULAR PURPOSE.
// See the GNU Lesser General Public License for more details.
//
// You should have received a copy of the GNU Lesser General Public License
// along with BOINC.  If not, see <https://www.gnu.org/licenses/>.
