/* XPM */
static const char *linuxarmicon2_xpm[] = {
"16 16 152 2",
"  	c #108CAB",
". 	c #118CAB",
"+ 	c #0F84A2",
"@ 	c #044859",
"# 	c #1E4B5A",
"$ 	c #0E7E9A",
"% 	c #108BAB",
"& 	c #32768D",
"* 	c #555555",
"= 	c #7D7D7D",
"- 	c #054E60",
"; 	c #3E94B0",
"> 	c #86B3C5",
", 	c #75A9BE",
"' 	c #8AB4C5",
") 	c #1F8DAC",
"! 	c #5B889B",
"~ 	c #C4A048",
"{ 	c #CEB88F",
"] 	c #04404F",
"^ 	c #3592AF",
"/ 	c #6BA6BB",
"( 	c #79ADC0",
"_ 	c #91B8C9",
": 	c #3191AE",
"< 	c #5C8493",
"[ 	c #DFB54C",
"} 	c #E6CB9C",
"| 	c #404243",
"1 	c #1086A4",
"2 	c #7BADC0",
"3 	c #97BBCA",
"4 	c #3291AE",
"5 	c #1088A7",
"6 	c #AAB1B4",
"7 	c #F1F1F1",
"8 	c #FBFBFB",
"9 	c #A2A2A2",
"0 	c #065164",
"a 	c #9FC1CF",
"b 	c #BBD1DA",
"c 	c #288FAD",
"d 	c #1C687E",
"e 	c #E6E6E6",
"f 	c #FEFEFE",
"g 	c #D8D8D8",
"h 	c #121212",
"i 	c #0D7691",
"j 	c #63A5BB",
"k 	c #83B4C6",
"l 	c #3692AF",
"m 	c #118AA8",
"n 	c #888E91",
"o 	c #FFFFFF",
"p 	c #F9F9F9",
"q 	c #474747",
"r 	c #89B4C5",
"s 	c #9CBFCD",
"t 	c #268FAD",
"u 	c #739495",
"v 	c #CFB475",
"w 	c #FEF5E6",
"x 	c #5D4F36",
"y 	c #6F7662",
"z 	c #9DBFCD",
"A 	c #218EAC",
"B 	c #919E90",
"C 	c #F7C931",
"D 	c #FFD02F",
"E 	c #A8946C",
"F 	c #E5D1B2",
"G 	c #DFAE0C",
"H 	c #F2C842",
"I 	c #6797A0",
"J 	c #8FB7C7",
"K 	c #A4C4D1",
"L 	c #188CAB",
"M 	c #A3A284",
"N 	c #FDCD28",
"O 	c #FFD030",
"P 	c #F3C859",
"Q 	c #CBCBCB",
"R 	c #B5B5B5",
"S 	c #B18A39",
"T 	c #EAC247",
"U 	c #849E96",
"V 	c #80AEC1",
"W 	c #84B1C3",
"X 	c #1087A5",
"Y 	c #547A87",
"Z 	c #998C6A",
"` 	c #9F8C65",
" .	c #13728C",
"..	c #0C6F88",
"+.	c #71746E",
"@.	c #A18D64",
"#.	c #2A7E98",
"$.	c #118BA9",
"%.	c #9EC0CE",
"&.	c #99BCCA",
"*.	c #138CAB",
"=.	c #EBF2F4",
"-.	c #B2CAD6",
";.	c #108BAA",
">.	c #F8FBFB",
",.	c #DCE8ED",
"'.	c #C3D5DE",
").	c #9BBCCB",
"!.	c #E4EBEF",
"~.	c #3A92AF",
"{.	c #CADAE1",
"].	c #C3D6DF",
"^.	c #178DAC",
"/.	c #198EAC",
"(.	c #8CB3C5",
"_.	c #CFDEE4",
":.	c #E8EFF2",
"<.	c #FDFEFD",
"[.	c #BCD2DB",
"}.	c #D4E0E6",
"|.	c #9EBECD",
"1.	c #F0F4F6",
"2.	c #EDF2F4",
"3.	c #F1F5F7",
"4.	c #C6D7E0",
"5.	c #69A2BA",
"6.	c #74A8BD",
"7.	c #198CAB",
"8.	c #D3E0E6",
"9.	c #DBE4EA",
"0.	c #EFF3F5",
"a.	c #8BB3C5",
"b.	c #A8C4D1",
"c.	c #D4E0E7",
"d.	c #A0BFCD",
"e.	c #ADC7D3",
"f.	c #E7EEF1",
"g.	c #2E90AD",
"h.	c #1E8EAC",
"i.	c #C6D8E0",
"j.	c #128CAB",
"k.	c #82AFC2",
"l.	c #9FBFCD",
"m.	c #CCDBE2",
"n.	c #C3D6DE",
"o.	c #8AB3C5",
"p.	c #A2C1CF",
"q.	c #88B2C4",
"r.	c #9FBFCE",
"s.	c #B9CFD9",
"t.	c #CCDBE3",
"u.	c #258EAC",
"  . . . . + @ # $ . . . . . . % ",
"  . . . . & * = - . . ; > , ' ) ",
"  . . . . ! ~ { ] . . ^ / ( _ : ",
"  . . . . < [ } | 1 . . . 2 3 4 ",
"  . . . 5 6 7 8 9 0 . . . a b c ",
"  . . . d e f 8 g h i . . j k l ",
"  . . m n o p o o q 0 . . r s t ",
"  . . u v p p o w x y . . r z A ",
"  . B C D E o o F G H I . J K L ",
"  . M N O P Q R S D T U . V W l ",
"  . X Y Z `  ...+.@.#.$.. %.&.) ",
"  *.=.-.;.>.,.'.).!.~.{.].^./.. ",
"  (._.:.  <.[.}.|.1.2.3.4.5.6.7.",
"  8.9.0.a.<.b.c.|.{.d.e.4.f.o g.",
"h.i.j.k.l.m.. n.o.p.. q.r.s.t.u.",
"                              % "};
// This file is part of BOINC.
// https://boinc.berkeley.edu
// Copyright (C) 2018 University of California
//
// BOINC is free software; you can redistribute it and/or modify it
// under the terms of the GNU Lesser General Public License
// as published by the Free Software Foundation,
// either version 3 of the License, or (at your option) any later version.
//
// BOINC is distributed in the hope that it will be useful,
// but WITHOUT ANY WARRANTY; without even the implied warranty of
// MERCHANTABILITY or FITNESS FOR A PARTICULAR PURPOSE.
// See the GNU Lesser General Public License for more details.
//
// You should have received a copy of the GNU Lesser General Public License
// along with BOINC.  If not, see <https://www.gnu.org/licenses/>.
