/* XPM */
static char *RedDot16[] = {
/* width height ncolors chars_per_pixel */
"16 16 32 2",
/* colors */
"AA c #FFFFFFFFFFFF",
"BA c #FFFF00000000",
"CA c #313100000000",
"DA c #FFFF10101010",
"EA c #6A6A00000000",
"FA c #D5D500000000",
"GA c #525200000000",
"HA c #DEDE00000000",
"IA c #ACAC00000000",
"JA c #838300000000",
"KA c #F6F600000000",
"LA c #FFFF18181818",
"MA c #FFFF31313131",
"NA c #FFFF52525252",
"OA c #FFFF6A6A6A6A",
"PA c #FFFF8B8B8B8B",
"AB c #FFFFA4A4A4A4",
"BB c #F6F608080808",
"CB c #9C9C7B7B7B7B",
"DB c #FFFFBDBDBDBD",
"EB c #D5D5CDCDCDCD",
"FB c #B4B4A4A4A4A4",
"GB c #F6F6CDCDCDCD",
"HB c #4A4A18181818",
"IB c #6A6A31313131",
"JB c #D5D54A4A4A4A",
"KB c #ACAC4A4A4A4A",
"LB c #BDBDA4A4A4A4",
"MB c #DEDEA4A4A4A4",
"NB s bg c None",
"OB c #FFFF08080808",
"PB c #5A5A00000000",
/* pixels */
"NBNBNBNBNBAAGBABABGBAANBNBNBNBNB",
"NBNBNBAAMBJBBBOBBAOBMAPAAANBNBNB",
"NBNBAAKBFABABABABABABAOBMAGBNBNB",
"NBAAKBIAHABABADALADAOBBABAMAAANB",
"NBLBJAIAHABALANAOAOANAMADABAOANB",
"AAIBJAIAHAOBMAOAPAABDBABMABADAGB",
"EBEAJAIAFABBLANAOAPADBABMABAOBAB",
"LBPBJAJAIAHABBLAMAMANANALAOBBAPA",
"LBGAEAJAIAIAFAKAOBDALADAOBBAKAPA",
"EBGAPBEAJAIAIAFAHAKAKABABAKAFAMB",
"AAHBGAPBEAJAIAIAFAFAHAHAFAFAIAGB",
"NBCBCAGAGAEAJAJAIAIAIAIAIAIAKBNB",
"NBAAIBCACAGAGAEAEAJAJAJAJAIBAANB",
"NBNBGBIBCACACACAGAGAPBGAIBEBNBNB",
"NBNBNBAAFBHBCACACACAHBCBAANBNBNB",
"NBNBNBNBNBAAEBFBCBEBAANBNBNBNBNB"};
