/* XPM */
static char *RedDot16_xpm[] = {
/* width height ncolors chars_per_pixel */
"16 16 64 2",
/* colors */
"AA c #FFFFFFFFFFFF",
"BA c #F8F8F8F8E8E8",
"CA c #F8F8E8E8F0F0",
"DA c #F8F8E8E8E8E8",
"EA c #F8F8E8E8D0D0",
"FA c #F8F8D0D0C0C0",
"GA c #F8F8C8C8B8B8",
"HA c #F8F8C8C8A8A8",
"IA c #F8F8B8B8A8A8",
"JA c #F8F8A8A89898",
"KA c #F8F8A0A0A8A8",
"LA c #F8F89898A0A0",
"MA c #F8F888889898",
"NA c #F8F878787070",
"OA c #F8F870706060",
"PA c #F8F840404848",
"AB c #F8F838384040",
"BB c #F8F820202020",
"CB c #F8F818181818",
"DB c #F8F818180808",
"EB c #F8F810102828",
"FB c #F8F808081818",
"GB c #F8F808080808",
"HB c #F0F098989898",
"IB c #F0F070708080",
"JB c #F0F060605050",
"KB c #E8E8F8F8F8F8",
"LB c #E8E898989898",
"MB c #E8E880808888",
"NB c #E8E870707878",
"OB c #E8E818181010",
"PB c #E8E810102020",
"AC c #E8E810100000",
"BC c #E8E808081010",
"CC c #E8E808080808",
"DC c #E0E058584848",
"EC c #D8D8E8E8E8E8",
"FC c #D8D828283838",
"GC c #D8D810101818",
"HC c #D8D810100808",
"IC c #D8D808082020",
"JC c #D8D800000808",
"KC c #D0D030304040",
"LC c #D0D020202020",
"MC c #C8C8D0D0D0D0",
"NC c #C8C828284040",
"OC c #C8C828283030",
"PC c #C8C820202020",
"AD c #C8C810101010",
"BD c #C8C808081818",
"CD c #C8C808080000",
"DD c #C0C0E0E0E0E0",
"ED c #C0C0D8D8E0E0",
"FD c #C0C048484848",
"GD c #C0C038383838",
"HD c #C0C010100808",
"ID c #B8B820202020",
"JD c #B8B818181818",
"KD c #B8B810100808",
"LD c #B0B048483030",
"MD c #B0B008080808",
"ND c #A8A840403030",
"OD c #A8A818180808",
"PD c #A0A038383030",
/* pixels */
"KBDDAABAIAGADCKDKDJBGAGABAAADDKB",
"EDAAAAKAGDADHDOBACCDMDGDLACAAAEC",
"AADANBFCPBFBGBCCGBFBFBPBFCIBAABA",
"EAHBOCBCGBFBGBGBCBDBGBFBBDFCHBEA",
"HAPDLCBCCCGBGBDBDBCCGBCCCCPCNDGA",
"IAODGCOBFBBBACACJCCCEBGBOBGCKDIA",
"PAJCBBCCCCCCCCCCDBCCGBCCFBOBHCAB",
"GBFBGBCCCBGBGBGBGBGBGBGBGBGBEBGB",
"GBEBGBGBFBCCGBGBGBGBGBCBCCGBFBGB",
"ABCCJCGBGBGBGBGBGBCCCCGBGBGBCCBC",
"JAJDOBCBGBGBGBCCGBGBGBGBFBJCADNA",
"HALDADCCCCGBGBCCCCGBGBGBEBADFDKA",
"EAJAIDCDFBGBGBGBGBGBFBFBCDFCKAEA",
"AABAMBKCBCJCACGBCCJCFBICNCMAAAAA",
"ECAADALBFDJDGCHDACHDMDGDHBAACAMC",
"KBEDAAAAFAIAOAGCMDOAHAFADADABAKB"};
