/* XPM */
static const char *tips_xpm[] = {
"16 16 6 1",
" 	c #FF00FF",
".	c #808080",
"X	c #C0C0C0",
"o	c #FFFFFF",
"O	c #000000",
"+	c #0000FF",
"    .......     ",
"  ..Xoooooo..   ",
" .XooooXXooooO  ",
" .ooooo++ooooO  ",
".oooooooooooooO ",
".ooooo+++oooooO.",
".oooooo++oooooO.",
".oooooo++oooooO.",
" .oooo++++oooO..",
" .oooooooooooO. ",
"  .XoooooooXO.. ",
"   OXoooooOO..  ",
"    OOXoooO..   ",
"     .OOooO.    ",
"       .OoO.    ",
"         OO.    "};
