/* XPM */
static char *usage_xpm[] = {
"16 16 3 1",
" 	c #FF00FF",
".	c #000000",
"X	c #0000FF",
"                ",
"      ...       ",
"    ..XXX..     ",
"   .XXXXXXX.    ",
"  .XXXXXXXXX.   ",
"  .XXXXXXXXX.   ",
" .XXXXXXXXXXX.  ",
" .XXXXX.......  ",
" .XXXXXX.       ",
"  .XXXXXX.      ",
"  .XXXXXXX.     ",
"   .XXXXXXX.    ",
"    ..XXX..     ",
"      ...       ",
"                ",
"                "};
