/* XPM */
static const char *virtualboxicon_xpm[] = {
/* columns rows colors chars-per-pixel */
"16 16 221 2",
"2X c #A2A7BD",
"s. c #04094F",
"G. c #3A5781",
"F. c #355076",
"&. c #828FA7",
"[  c #3F587C",
"n  c #B4C3DD",
"B. c #9D9DB3",
"1X c #505B7C",
" X c #627DAA",
"|. c #8098BB",
"8X c #111858",
"g. c #5D708E",
"L. c #070D4E",
"H  c #99AFCE",
"0X c #0A1445",
"U. c #414971",
"]. c #646B8E",
"f  c #E1E4ED",
"`  c #9195B1",
"i  c #9CB9DA",
",X c #0A1451",
"s  c #737AA3",
"q  c #607794",
"L  c #99AFDE",
"O  c #8F9EBE",
">  c #8DA1B9",
"4. c #464D86",
";  c #D5DCE8",
"yX c #0F1554",
"|  c #D0D5DF",
"M  c #7377A7",
"5  c #5A5D90",
"+X c #050A4F",
"Z. c #365176",
"{  c #8D98AA",
"B  c #ADB0C5",
":  c #B0BDCF",
"7. c #8894AA",
"k  c #546C8C",
"T. c #7B7C96",
"q. c #4F6584",
"k. c #A1ABBF",
"7  c #A3A5C1",
"A  c #8193A9",
"8  c #E7ECF2",
"qX c #747B96",
"(. c #384578",
"Q  c #9FAEC1",
"a  c #F6F8FB",
"v. c #436391",
"Y. c #606585",
"X. c #395886",
"$  c #606B9D",
"H. c #4D6B9B",
"S  c #617895",
"t  c #5C7494",
"x. c #4D6588",
"!. c #667FA3",
"z  c #7588A3",
"#X c #727B9B",
".X c #526994",
"<X c #1D2859",
"#. c #5B6198",
"o. c #37557D",
"J. c #5770A3",
"9. c #466184",
"8. c #3C567A",
"m. c #060B54",
"y  c #6E87A5",
"C. c #7A869F",
"p  c #DCF1F9",
"iX c #091251",
"K. c #2F4178",
"D. c #647CA2",
"3. c #93A6D8",
"eX c #48527A",
"p. c #899BCE",
"=. c #355278",
";. c #73829A",
"m  c #BED3F1",
"-X c #5A6E98",
"E. c #78869E",
"2  c #9EBBDA",
"+. c #4076A9",
"I  c #9397B3",
"5X c #697797",
"1. c #627996",
"*. c #4E6688",
"J  c #627FAA",
"E  c #C3CBD4",
"d  c #BBBDD3",
"t. c #677D9A",
",  c #768CA8",
"6. c #9394B1",
"oX c #323F6F",
"&  c #090954",
":X c #070C4E",
"X  c #5C5F93",
"6X c #627398",
"]  c #3D577C",
"{. c #C8C6CF",
"P. c #02054E",
"j  c #5B7290",
"w. c #9EA9BE",
"rX c #35406B",
">. c #6F88B2",
",. c #224371",
"Y  c #6A7B97",
"=  c #55588B",
"b. c #7993C5",
"wX c #676E91",
"7X c #6A789A",
"l  c #637A98",
"4X c #8D97B0",
"d. c #ADACC2",
"N  c #A3A4C0",
"@  c #B8CDE2",
"@. c #97ABDD",
"~  c #8198BD",
"c. c #395781",
"(  c #3A70A0",
"/. c #4F6494",
"V  c #C4C6D4",
"%  c #2B2F70",
"%X c #BABBCA",
"   c None",
"$. c #03064E",
"T  c #9FA7B8",
"l. c #617AA2",
"j. c #5C708D",
"6  c #0D0E57",
"W. c #61748F",
"}  c #C2C6CE",
"<. c #2D4C74",
"1  c #82A2C2",
"=X c #576C95",
"_  c #6F73A5",
"3X c #9AA0B9",
"x  c #466082",
"U  c #7A88A2",
"r. c #506889",
".. c #55729F",
"N. c #9F9EB1",
"w  c #697F9B",
"i. c #5882B6",
"-  c #6D739E",
"Q. c #A2ABBE",
"z. c #647896",
"*  c #EDF3F9",
"}. c #C0C6D3",
"0  c #91A2B9",
"_. c #040A4F",
"C  c #E3E5EA",
"b  c #B9CBE1",
"V. c #8E92A9",
"S. c #A0ABBD",
"A. c #536987",
"#  c #E6EFF6",
"c  c #627896",
"g  c #B9C2D0",
"[. c #C0BDCC",
".  c #E6EFFE",
"y. c #516C8D",
"-. c #334E73",
"'  c #76859F",
"@X c #0F1951",
"Z  c #A3AFBF",
"o  c #7D86AE",
"OX c #02044C",
">X c #02044E",
"9  c #C1CAD8",
"3  c #D8EAF3",
"D  c #798CA5",
"r  c #798CA6",
"G  c #A1B5CD",
"h  c #7E90A8",
"*X c #7E93B4",
"R  c #D5D7DC",
"~. c #365580",
"M. c #050B50",
"f. c #8A8FA8",
"O. c #3B567B",
"9X c #08124E",
" . c #A6B6D1",
"uX c #05084F",
"R. c #A3A3B4",
"^  c #4F6C99",
"2. c #467AAB",
";X c #5B688E",
"'. c #38436B",
"n. c #6072A5",
"v  c #869BB7",
"&X c #B5BCCC",
"`. c #101D52",
"4  c #F1F5FA",
"P  c #7175A6",
"/  c #2F4E7B",
"K  c #5974AD",
"tX c #1F295D",
"5. c #03084F",
"h. c #395378",
"^. c #52709F",
"%. c #9294B1",
"XX c #3B4A78",
"). c #060C47",
"e  c #7589A3",
"!  c #A2B6CE",
"a. c #2E3574",
"0. c #324F75",
"W  c #A2B0C0",
"+  c #BBCADC",
"$X c #B3B6C9",
"u  c #829EBE",
"<  c #7890AC",
"I. c #091352",
")  c #98AEDE",
"e. c #5F79A3",
"F  c #91A4B9",
":. c #B1B9CB",
"u. c #2B4B74",
/* pixels */
"    . X o O + @ # $ % &         ",
"* = - ; : > , < 1 2 3 4 5 6     ",
"7 8 9 0 q w e r t y u i p a s   ",
"d f g h j k l z x c v b n m M   ",
"N B V C Z A S D F G H J K L P   ",
"I U Y T R E W Q ! ~ ^ / ( ) _   ",
"` ' ] [ { } |  ...X.o.O.+.@.#.$.",
"%.&.*.=.-.;.:.>.,.<.c 1.2.3.4.5.",
"6.7.8.9.0.q.w.e.r.t.y.u.i.p.a.s.",
"d.f.g.h.O.j.k.l.z.x.c.v.b.n.m.M.",
"N.B.V.C.Z.A.S.D.F.G.H.J.K.L.P.I.",
"U.Y.T.R.E.W.Q.!.~.^./.(.).s._.I.",
"  `.'.].[.{.}.|. X.XXXoXOX+XI.  ",
"  @X'.#X$X%X&X*X=X-X;X:X>XI.I.  ",
"  ,X<X1X2X3X4X5X6X7X8X$.I.I.I.  ",
"    9X0XqXwXeXrXtXyXuXiX        "
};
