/* XPM */
static char *xfer_xpm[] = {
"16 16 4 1",
" 	c #FF00FF",
".	c #000000",
"X	c #808080",
"o	c #C0C0C0",
"                ",
"        ..      ",
"       .XX.     ",
"      .XXXX.    ",
"     .XXXXXX.   ",
"    .XXXXXXXX.  ",
"    ...XXXX...  ",
"    .o.XXXX.    ",
"    .o.XXXX.    ",
"  ...o.XXXX.    ",
"  .ooo.XXXX.    ",
"   .oo......    ",
"    .oooo.      ",
"     .oo.       ",
"      ..        ",
"                "};
