/* XPM */
static char *YellowDot16[] = {
/* width height ncolors chars_per_pixel */
"16 16 32 2",
/* colors */
"AA s bg c None",
"BA c #D3D3D3D30000",
"CA c #ABABABAB9595",
"DA c #868686860000",
"EA c #FAFAFAFAF6F6",
"FA c #FFFFFFFF5454",
"GA c #FFFFFFFF3535",
"HA c #FEFEFEFE0101",
"IA c #6E6E6E6E0303",
"JA c #FFFFFFFFE6E6",
"KA c #515151510000",
"LA c #D7D7D7D7CACA",
"MA c #FBFBFBFBD1D1",
"NA c #696969693232",
"OA c #D3D3D3D3AAAA",
"PA c #B9B9B9B90000",
"AB c #ABABABAB5454",
"BB c #A4A4A4A40101",
"CB c #FFFFFFFF1B1B",
"DB c #FFFFFFFF6D6D",
"EB c #EAEAEAEA8787",
"FB c #FCFCFCFCA9A9",
"GB c #F3F3F3F30101",
"HB c #FFFFFFFF9696",
"IB c #333333330000",
"JB c #EFEFEFEFE7E7",
"KB c #FFFFFFFF0E0E",
"LB c #FFFFFFFFBABA",
"MB c #DFDFDFDF0000",
"NB c #4E4E4E4E2121",
"OB c #F7F7F7F70909",
"PB c #DFDFDFDF4242",
/* pixels */
"AAAAAAAAAAEAMAFBFBMAEAAAAAAAAAAA",
"AAAAAAEAOAPBOBHAHAHAGAHBEAAAAAAA",
"AAAAEAABBAHAHAHAHAHAHAHAGAJAAAAA",
"AAEAABBBMBHAHAKBCBKBKBHAHAGAJAAA",
"AAOADAPAMBHACBFADBFAFAGAKBHADBAA",
"EANADAPAMBHAGADBHBFBLBHBGAHAKBJA",
"LAIADABBBAGBCBFADBHBLBFBGAHAHAFB",
"CAKAIABBPABAOBCBCBGAFAFACBHAHAEB",
"OAKAIADABBPABAGBKBKBKBKBHAHAGBEB",
"OAKAKAIADABBPABAMBGBHAHAHAGBBAOA",
"JBNBKAKAIADABBPAPABABAMBMBBAPAJB",
"AACAIBKAKAIAIADABBBBPAPAPABBABAA",
"AAEANAIBIBKAKAIADADADADADAIAJBAA",
"AAAAJBNAIBIBIBIBKAKAKAKANALAAAAA",
"AAAAAAJBCANBIBIBIBIBNBCAJBAAAAAA",
"AAAAAAAAAAJBLACACALAJBAAAAAAAAAA"};
