<?xml version="1.0" encoding="UTF-8" standalone="no"?>
<!-- Created with Inkscape (http://www.inkscape.org/) -->
<svg
   xmlns:dc="http://purl.org/dc/elements/1.1/"
   xmlns:cc="http://creativecommons.org/ns#"
   xmlns:rdf="http://www.w3.org/1999/02/22-rdf-syntax-ns#"
   xmlns:svg="http://www.w3.org/2000/svg"
   xmlns="http://www.w3.org/2000/svg"
   xmlns:xlink="http://www.w3.org/1999/xlink"
   xmlns:sodipodi="http://sodipodi.sourceforge.net/DTD/sodipodi-0.dtd"
   xmlns:inkscape="http://www.inkscape.org/namespaces/inkscape"
   width="80"
   height="120"
   id="svg2"
   sodipodi:version="0.32"
   inkscape:version="0.46"
   version="1.0"
   sodipodi:docname="context_reaction_block.svg"
   inkscape:output_extension="org.inkscape.output.svg.inkscape"
   inkscape:export-filename="/home/devseed/kitrium/profiles/openatrium/modules/contrib/context/plugins/context_reaction_block.png"
   inkscape:export-xdpi="90"
   inkscape:export-ydpi="90">
  <defs
     id="defs4">
    <linearGradient
       inkscape:collect="always"
       id="linearGradient3186">
      <stop
         style="stop-color:#000000;stop-opacity:0.1254902"
         offset="0"
         id="stop3188" />
      <stop
         style="stop-color:#000000;stop-opacity:0;"
         offset="1"
         id="stop3190" />
    </linearGradient>
    <linearGradient
       inkscape:collect="always"
       id="linearGradient3191">
      <stop
         style="stop-color:#ffffff;stop-opacity:1;"
         offset="0"
         id="stop3193" />
      <stop
         style="stop-color:#c0c0c0;stop-opacity:1"
         offset="1"
         id="stop3195" />
    </linearGradient>
    <inkscape:perspective
       sodipodi:type="inkscape:persp3d"
       inkscape:vp_x="0 : 526.18109 : 1"
       inkscape:vp_y="0 : 1000 : 0"
       inkscape:vp_z="744.09448 : 526.18109 : 1"
       inkscape:persp3d-origin="372.04724 : 350.78739 : 1"
       id="perspective10" />
    <linearGradient
       inkscape:collect="always"
       xlink:href="#linearGradient3191"
       id="linearGradient3197"
       x1="10"
       y1="10"
       x2="10"
       y2="30"
       gradientUnits="userSpaceOnUse" />
    <linearGradient
       inkscape:collect="always"
       xlink:href="#linearGradient3191"
       id="linearGradient3199"
       gradientUnits="userSpaceOnUse"
       x1="10"
       y1="10"
       x2="10"
       y2="30" />
    <linearGradient
       inkscape:collect="always"
       xlink:href="#linearGradient3191"
       id="linearGradient3176"
       gradientUnits="userSpaceOnUse"
       x1="18"
       y1="81"
       x2="18"
       y2="99" />
    <linearGradient
       inkscape:collect="always"
       xlink:href="#linearGradient3186"
       id="linearGradient3192"
       x1="2"
       y1="92.5"
       x2="10"
       y2="92.5"
       gradientUnits="userSpaceOnUse" />
    <linearGradient
       inkscape:collect="always"
       xlink:href="#linearGradient3191"
       id="linearGradient3255"
       gradientUnits="userSpaceOnUse"
       x1="18"
       y1="81"
       x2="18"
       y2="99" />
    <linearGradient
       inkscape:collect="always"
       xlink:href="#linearGradient3191"
       id="linearGradient3260"
       gradientUnits="userSpaceOnUse"
       x1="18"
       y1="81"
       x2="18"
       y2="99" />
    <linearGradient
       inkscape:collect="always"
       xlink:href="#linearGradient3191"
       id="linearGradient3265"
       gradientUnits="userSpaceOnUse"
       x1="18"
       y1="81"
       x2="18"
       y2="99" />
    <linearGradient
       inkscape:collect="always"
       xlink:href="#linearGradient3191"
       id="linearGradient3276"
       gradientUnits="userSpaceOnUse"
       x1="18"
       y1="81"
       x2="18"
       y2="99" />
    <linearGradient
       inkscape:collect="always"
       xlink:href="#linearGradient3191"
       id="linearGradient3284"
       gradientUnits="userSpaceOnUse"
       x1="18"
       y1="81"
       x2="18"
       y2="99" />
  </defs>
  <sodipodi:namedview
     id="base"
     pagecolor="#ffffff"
     bordercolor="#666666"
     borderopacity="1.0"
     gridtolerance="10000"
     guidetolerance="10"
     objecttolerance="10"
     inkscape:pageopacity="0.0"
     inkscape:pageshadow="2"
     inkscape:zoom="1"
     inkscape:cx="31.144684"
     inkscape:cy="24.681366"
     inkscape:document-units="px"
     inkscape:current-layer="layer1"
     showgrid="false">
    <inkscape:grid
       type="xygrid"
       id="grid2383"
       visible="true"
       enabled="true" />
  </sodipodi:namedview>
  <metadata
     id="metadata7">
    <rdf:RDF>
      <cc:Work
         rdf:about="">
        <dc:format>image/svg+xml</dc:format>
        <dc:type
           rdf:resource="http://purl.org/dc/dcmitype/StillImage" />
      </cc:Work>
    </rdf:RDF>
  </metadata>
  <g
     inkscape:label="Layer 1"
     inkscape:groupmode="layer"
     id="layer1">
    <path
       sodipodi:nodetypes="ccccsccccccccccssccsccc"
       id="path3287"
       d="M 30,84.5 C 27.8265,84.5 25.87799,85.506572 24.59375,87.0625 L 24.59375,87.09375 L 26,88.5 C 26.912944,87.291403 28.369734,86.5 30,86.5 C 32.044638,86.5 33.787894,87.740652 34.5625,89.5 L 31.5,89.5 L 35.5,93.5 L 39.5,89.5 L 39,89.5 L 36.6875,89.5 C 35.825628,86.615704 33.164199,84.5 30,84.5 z M 24.5,89.5 L 20.5,93.5 L 23.3125,93.5 C 24.174372,96.384296 26.835801,98.5 30,98.5 C 32.1735,98.5 34.12201,97.493428 35.40625,95.9375 C 35.411546,95.931083 35.400976,95.912686 35.40625,95.90625 L 34,94.5 C 33.087056,95.708597 31.630266,96.5 30,96.5 C 27.955362,96.5 26.212106,95.259348 25.4375,93.5 L 28.5,93.5 L 24.5,89.5 z"
       style="opacity:1;fill:#000000;fill-opacity:0.50196078000000000;fill-rule:nonzero;stroke:none;stroke-width:1.25000000000000000;stroke-linecap:square;stroke-linejoin:round;marker:none;marker-start:none;marker-mid:none;marker-end:none;stroke-miterlimit:0;stroke-dasharray:none;stroke-dashoffset:0;stroke-opacity:1;visibility:visible;display:inline;overflow:visible;enable-background:accumulate;color:#000000" />
    <rect
       style="opacity:1;fill:#404040;fill-opacity:0.75294118;fill-rule:nonzero;stroke:none;stroke-width:1.25;stroke-linecap:square;stroke-linejoin:round;marker:none;marker-start:none;marker-mid:none;marker-end:none;stroke-miterlimit:0;stroke-dasharray:none;stroke-dashoffset:0;stroke-opacity:1;visibility:visible;display:inline;overflow:visible;enable-background:accumulate"
       id="rect2385"
       width="80"
       height="40"
       x="0"
       y="0"
       rx="10"
       ry="10" />
    <path
       id="path3183"
       d="M 20,12.5 L 17,15.5 L 19,15.5 L 19,20.5 L 14,20.5 L 14,18.5 L 11,21.5 L 14,24.5 L 14,22.5 L 19,22.5 L 19,27.5 L 17,27.5 L 20,30.5 L 23,27.5 L 21,27.5 L 21,22.5 L 26,22.5 L 26,24.5 L 29,21.5 L 26,18.5 L 26,20.5 L 21,20.5 L 21,15.5 L 23,15.5 L 20,12.5 z"
       style="opacity:1;fill:#000000;fill-opacity:0.50196078;fill-rule:nonzero;stroke:none;stroke-width:1.25;stroke-linecap:square;stroke-linejoin:round;marker:none;marker-start:none;marker-mid:none;marker-end:none;stroke-miterlimit:0;stroke-dasharray:none;stroke-dashoffset:0;stroke-opacity:1;visibility:visible;display:inline;overflow:visible;enable-background:accumulate" />
    <path
       style="opacity:1;fill:url(#linearGradient3199);fill-opacity:1;fill-rule:nonzero;stroke:none;stroke-width:1.25;stroke-linecap:square;stroke-linejoin:round;marker:none;marker-start:none;marker-mid:none;marker-end:none;stroke-miterlimit:0;stroke-dasharray:none;stroke-dashoffset:0;stroke-opacity:1;visibility:visible;display:inline;overflow:visible;enable-background:accumulate"
       d="M 20,11 L 17,14 L 19,14 L 19,19 L 14,19 L 14,17 L 11,20 L 14,23 L 14,21 L 19,21 L 19,26 L 17,26 L 20,29 L 23,26 L 21,26 L 21,21 L 26,21 L 26,23 L 29,20 L 26,17 L 26,19 L 21,19 L 21,14 L 23,14 L 20,11 z"
       id="path3161" />
    <path
       id="path3185"
       d="M 55.5,15.21875 C 55.372191,15.21875 55.254184,15.245816 55.15625,15.34375 L 53.84375,16.65625 C 53.647881,16.852119 53.647881,17.147881 53.84375,17.34375 L 58,21.5 L 53.84375,25.65625 C 53.647883,25.852118 53.647881,26.147881 53.84375,26.34375 L 55.15625,27.65625 C 55.352118,27.852119 55.647881,27.852119 55.84375,27.65625 L 60,23.5 L 64.15625,27.65625 C 64.352119,27.852119 64.64788,27.852119 64.84375,27.65625 L 66.15625,26.34375 C 66.352119,26.147881 66.352117,25.852118 66.15625,25.65625 L 62,21.5 L 66.15625,17.34375 C 66.352119,17.147882 66.352119,16.852119 66.15625,16.65625 L 64.84375,15.34375 C 64.64788,15.147881 64.352119,15.147881 64.15625,15.34375 L 60,19.5 L 55.84375,15.34375 C 55.745816,15.245816 55.627809,15.21875 55.5,15.21875 z"
       style="opacity:1;fill:#000000;fill-opacity:0.50196078;fill-rule:nonzero;stroke:none;stroke-width:1.25;stroke-linecap:square;stroke-linejoin:round;marker:none;marker-start:none;marker-mid:none;marker-end:none;stroke-miterlimit:0;stroke-dasharray:none;stroke-dashoffset:0;stroke-opacity:1;visibility:visible;display:inline;overflow:visible;enable-background:accumulate" />
    <path
       style="opacity:1;fill:url(#linearGradient3197);fill-opacity:1;fill-rule:nonzero;stroke:none;stroke-width:1.25;stroke-linecap:square;stroke-linejoin:round;marker:none;marker-start:none;marker-mid:none;marker-end:none;stroke-miterlimit:0;stroke-dasharray:none;stroke-dashoffset:0;stroke-opacity:1;visibility:visible;display:inline;overflow:visible;enable-background:accumulate"
       d="M 55.5,13.71875 C 55.372191,13.71875 55.254184,13.745816 55.15625,13.84375 L 53.84375,15.15625 C 53.647881,15.352119 53.647881,15.647881 53.84375,15.84375 L 58,20 L 53.84375,24.15625 C 53.647883,24.352118 53.647881,24.647881 53.84375,24.84375 L 55.15625,26.15625 C 55.352118,26.352119 55.647881,26.352119 55.84375,26.15625 L 60,22 L 64.15625,26.15625 C 64.352119,26.352119 64.64788,26.352119 64.84375,26.15625 L 66.15625,24.84375 C 66.352119,24.647881 66.352117,24.352118 66.15625,24.15625 L 62,20 L 66.15625,15.84375 C 66.352119,15.647882 66.352119,15.352119 66.15625,15.15625 L 64.84375,13.84375 C 64.64788,13.647881 64.352119,13.647881 64.15625,13.84375 L 60,18 L 55.84375,13.84375 C 55.745816,13.745816 55.627809,13.71875 55.5,13.71875 z"
       id="rect3173" />
    <rect
       style="opacity:1;fill:#404040;fill-opacity:0.50196078;fill-rule:nonzero;stroke:none;stroke-width:1.25;stroke-linecap:square;stroke-linejoin:round;marker:none;marker-start:none;marker-mid:none;marker-end:none;stroke-miterlimit:0;stroke-dasharray:none;stroke-dashoffset:0;stroke-opacity:1;visibility:visible;display:inline;overflow:visible;enable-background:accumulate"
       id="rect3179"
       width="1"
       height="30"
       x="40"
       y="5"
       ry="0.5"
       rx="0.5" />
    <rect
       y="40"
       x="0"
       height="40"
       width="80"
       id="rect2391"
       style="opacity:1;fill:#404040;fill-opacity:0.75294118;fill-rule:nonzero;stroke:none;stroke-width:1.25;stroke-linecap:square;stroke-linejoin:round;marker:none;marker-start:none;marker-mid:none;marker-end:none;stroke-miterlimit:0;stroke-dasharray:none;stroke-dashoffset:0;stroke-opacity:1;visibility:visible;display:inline;overflow:visible;enable-background:accumulate" />
    <g
       id="g3215">
      <rect
         style="opacity:1;fill:#000000;fill-opacity:0.50196078000000000;fill-rule:nonzero;stroke:none;stroke-width:1.25000000000000000;stroke-linecap:square;stroke-linejoin:round;marker:none;marker-start:none;marker-mid:none;marker-end:none;stroke-miterlimit:0;stroke-dasharray:none;stroke-dashoffset:0;stroke-opacity:1;visibility:visible;display:inline;overflow:visible;enable-background:accumulate;color:#000000"
         id="rect3200"
         width="14"
         height="14"
         x="3"
         y="84.5"
         rx="2"
         ry="2" />
      <path
         style="fill:url(#linearGradient3176);fill-opacity:1;fill-rule:nonzero;stroke:none;stroke-width:1.25;stroke-linecap:square;stroke-linejoin:round;stroke-miterlimit:0;stroke-dashoffset:0;stroke-opacity:1;marker:none;marker-start:none;marker-mid:none;marker-end:none;visibility:visible;display:inline;overflow:visible;enable-background:accumulate"
         d="M 5,83 L 15,83 C 16.108,83 17,83.892 17,85 L 17,95 C 17,96.108 16.108,97 15,97 L 5,97 C 3.892,97 3,96.108 3,95 L 3,85 C 3,83.892 3.892,83 5,83 z"
         id="rect3198" />
      <rect
         ry="0.5"
         rx="0.5"
         y="87"
         x="5"
         height="8"
         width="10"
         id="rect3206"
         style="opacity:1;fill:#000000;fill-opacity:0.1254902;fill-rule:nonzero;stroke:none;stroke-width:1.25000000000000000;stroke-linecap:square;stroke-linejoin:round;marker:none;marker-start:none;marker-mid:none;marker-end:none;stroke-miterlimit:0;stroke-dasharray:none;stroke-dashoffset:0;stroke-opacity:1;visibility:visible;display:inline;overflow:visible;enable-background:accumulate" />
      <path
         id="rect3208"
         d="M 5.5 87 C 5.223 87 5 87.223 5 87.5 L 5 94 L 6 88 L 14 88 L 15 94 L 15 87.5 C 15 87.223 14.777 87 14.5 87 L 5.5 87 z "
         style="opacity:1;fill:#000000;fill-opacity:0.1254902;fill-rule:nonzero;stroke:none;stroke-width:1.25;stroke-linecap:square;stroke-linejoin:round;marker:none;marker-start:none;marker-mid:none;marker-end:none;stroke-miterlimit:0;stroke-dasharray:none;stroke-dashoffset:0;stroke-opacity:1;visibility:visible;display:inline;overflow:visible;enable-background:accumulate" />
    </g>
    <path
       style="opacity:1;fill:url(#linearGradient3284);fill-opacity:1;fill-rule:nonzero;stroke:none;stroke-width:1.25000000000000000;stroke-linecap:square;stroke-linejoin:round;marker:none;marker-start:none;marker-mid:none;marker-end:none;stroke-miterlimit:0;stroke-dasharray:none;stroke-dashoffset:0;stroke-opacity:1;visibility:visible;display:inline;overflow:visible;enable-background:accumulate;color:#000000"
       d="M 30,83 C 27.8265,83 25.87799,84.006572 24.59375,85.5625 L 24.59375,85.59375 L 26,87 C 26.912944,85.791403 28.369734,85 30,85 C 32.044638,85 33.787894,86.240652 34.5625,88 L 31.5,88 L 35.5,92 L 39.5,88 L 39,88 L 36.6875,88 C 35.825628,85.115704 33.164199,83 30,83 z M 24.5,88 L 20.5,92 L 23.3125,92 C 24.174372,94.884296 26.835801,97 30,97 C 32.1735,97 34.12201,95.993428 35.40625,94.4375 C 35.411546,94.431083 35.400976,94.412686 35.40625,94.40625 L 34,93 C 33.087056,94.208597 31.630266,95 30,95 C 27.955362,95 26.212106,93.759348 25.4375,92 L 28.5,92 L 24.5,88 z"
       id="path3231"
       sodipodi:nodetypes="ccccsccccccccccssccsccc" />
  </g>
</svg>
